<?xml version="1.0" standalone="no"?>
<!DOCTYPE svg PUBLIC "-//W3C//DTD SVG 1.1//EN" "http://www.w3.org/Graphics/SVG/1.1/DTD/svg11.dtd" >
<svg xmlns="http://www.w3.org/2000/svg">
<metadata></metadata>
<defs>
<font id="shofarboldoblique" horiz-adv-x="0" >
<font-face units-per-em="2048" ascent="1638" descent="-410" />
<missing-glyph horiz-adv-x="650" />
<glyph horiz-adv-x="1128" d="M-235 1189h1049l290 -1253h-1049zM-53 1035l222 -961h756l-222 961h-756zM101 824q0 68 62.5 109.5t161.5 41.5q115 0 201 -59t108 -154q6 -27 6 -49q0 -43 -23.5 -79.5t-83.5 -95.5q-29 -26 -40 -44t-11 -45t10 -68l9 -40h-119l-15 65q-10 43 -10 80q0 42 14 78t30.5 57 t30.5 50.5t14 59.5q0 60 -31.5 98.5t-95.5 38.5q-46 0 -66 -20q68 -49 68 -94q0 -32 -23 -53.5t-58 -21.5q-57 0 -98 42.5t-41 102.5zM357 240q0 33 25 54.5t64 21.5q49 0 90 -33.5t41 -81.5q0 -33 -24.5 -55t-63.5 -22q-49 0 -90.5 34t-41.5 82z" />
<glyph horiz-adv-x="1128" d="M-235 1189h1049l290 -1253h-1049zM-53 1035l222 -961h756l-222 961h-756zM101 824q0 68 62.5 109.5t161.5 41.5q115 0 201 -59t108 -154q6 -27 6 -49q0 -43 -23.5 -79.5t-83.5 -95.5q-29 -26 -40 -44t-11 -45t10 -68l9 -40h-119l-15 65q-10 43 -10 80q0 42 14 78t30.5 57 t30.5 50.5t14 59.5q0 60 -31.5 98.5t-95.5 38.5q-46 0 -66 -20q68 -49 68 -94q0 -32 -23 -53.5t-58 -21.5q-57 0 -98 42.5t-41 102.5zM357 240q0 33 25 54.5t64 21.5q49 0 90 -33.5t41 -81.5q0 -33 -24.5 -55t-63.5 -22q-49 0 -90.5 34t-41.5 82z" />
<glyph unicode="&#xd;" horiz-adv-x="682" />
<glyph unicode=" "  horiz-adv-x="650" />
<glyph unicode="&#x09;" horiz-adv-x="650" />
<glyph unicode="&#xa0;" horiz-adv-x="650" />
<glyph unicode="!" horiz-adv-x="562" d="M-179 1270q0 62 37 96t106 34q107 0 170.5 -83t63.5 -215q0 -14 -6 -121t-6 -155q0 -174 50 -393h-100q-45 194 -87.5 297t-153.5 311q-49 93 -66 169q-8 35 -8 60zM69 189q0 60 39.5 99t101.5 39q83 0 153.5 -64t70.5 -153q0 -60 -40 -99t-105 -39q-80 0 -150 64.5 t-70 152.5z" />
<glyph unicode="&#x22;" horiz-adv-x="838" d="M-244 1253q0 63 39.5 102.5t104.5 39.5q104 0 179.5 -91.5t75.5 -223.5q0 -206 -227 -365l-69 78q64 52 99.5 109t35.5 106q0 40 -14 40q-4 0 -11 -2t-11 -2q-79 0 -140.5 60.5t-61.5 148.5zM140 1253q0 63 39.5 102.5t104.5 39.5q104 0 179.5 -91.5t75.5 -223.5 q0 -206 -227 -365l-69 78q64 52 99.5 109t35.5 106q0 40 -14 40q-4 0 -11 -2t-11 -2q-79 0 -140.5 60.5t-61.5 148.5z" />
<glyph unicode="#" horiz-adv-x="1090" d="M-90 939h204l-33 391h171l33 -391h163l-35 391h171l35 -391h177l37 -158h-200l19 -205h178l36 -158h-201l36 -418h-171l-36 418h-163l36 -418h-171l-37 418h-178l-36 158h201l-16 205h-183zM301 781l16 -205h162l-17 205h-161z" />
<glyph unicode="$" horiz-adv-x="1090" d="M-136 1009q0 90 41 160.5t118 112.5q32 19 66 28.5t100 17.5l-44 194h110l44 -192q187 0 319.5 -78t159.5 -194q5 -27 5 -45q0 -57 -35 -91.5t-96 -34.5q-71 0 -125.5 49t-54.5 122q0 31 13 67q8 14 5 28q-14 58 -167 73l93 -403l53 -15q220 -63 333 -159t148 -248 q13 -53 13 -106q0 -133 -90.5 -215.5t-261.5 -102.5l55 -237h-110l-54 233q-45 0 -108 14q-173 33 -280 111.5t-133 192.5q-6 25 -6 49q0 59 34 94t94 35q75 0 132.5 -49.5t57.5 -125.5q0 -67 -39 -104q-10 -13 -8 -21q8 -33 79 -62t153 -29l-104 452l-70 21 q-194 56 -296 141.5t-133 219.5q-11 52 -11 97zM67 1092q0 -24 6 -49q31 -132 199 -179l26 -7l-85 369q-146 -26 -146 -134zM491 496l96 -412q75 8 117 46t42 107q0 19 -5 46q-18 78 -73.5 128t-155.5 79z" />
<glyph unicode="%" horiz-adv-x="1582" d="M-171 925q0 76 24.5 151t67.5 135t107.5 97t139.5 37q59 0 105 -21t94 -70q82 -36 184 -36q106 0 172.5 36t109.5 118h87l-470 -1372h-97l395 1163q-93 -34 -186 -34q-62 0 -130 17q30 -78 30 -154q0 -140 -66 -247q-89 -147 -249 -147q-131 0 -224.5 92.5t-93.5 234.5z M41 847q0 -70 35 -114.5t92 -44.5q89 0 152 96t63 223q0 96 -39 171q-72 23 -128 72q-49 -19 -70.5 -49t-51.5 -120q-53 -158 -53 -234zM813 361q0 133 63 245q99 167 274 167q126 0 211 -94t85 -240q0 -147 -69 -270q-38 -67 -101.5 -104.5t-139.5 -37.5q-138 0 -230.5 93 t-92.5 241zM1025 271q0 -66 36 -110.5t90 -44.5q91 0 156 97t65 224q0 49 -10 93q-14 60 -55 102t-87 42q-40 0 -70.5 -31.5t-56.5 -100.5q-68 -175 -68 -271z" />
<glyph unicode="&#x26;" horiz-adv-x="1618" d="M-14 422q0 165 154 272q53 36 140 79q-62 86 -92 146t-46 128q-8 38 -8 73q0 139 91 209.5t246 70.5t267.5 -74.5t140.5 -196.5q7 -27 7 -57q0 -93 -65 -158q-38 -36 -78 -61t-118 -61q104 -127 210 -246t149 -155q51 85 51 151q0 73 -45 102t-149 29l-24 102h518 l24 -102q-100 0 -140 -34.5t-71 -144.5q-38 -118 -76 -192q124 -125 223 -125q94 0 94 154v5l100 -21q4 -28 4 -57q0 -58 -21 -117q-33 -90 -93 -130.5t-160 -40.5q-173 0 -329 127q-163 -139 -370 -139q-190 0 -338.5 111.5t-185.5 270.5q-10 40 -10 82zM277 543 q0 -20 7 -53q18 -76 82 -165q144 -198 314 -198q66 0 117 42q-268 254 -450 509q-70 -52 -70 -135zM378 1195q0 -10 4 -36q13 -54 50.5 -116.5t117.5 -160.5q10 5 28 13q102 58 102 167q0 98 -61 169t-137 71q-47 0 -75.5 -30t-28.5 -77z" />
<glyph unicode="'" horiz-adv-x="457" d="M-243 1258q0 63 39.5 102.5t104.5 39.5q104 0 179.5 -91.5t75.5 -223.5q0 -206 -227 -365l-69 78q64 52 99.5 109t35.5 106q0 40 -14 40q-3 0 -10.5 -2t-11.5 -2q-79 0 -140.5 60.5t-61.5 148.5z" />
<glyph unicode="(" horiz-adv-x="739" d="M-23 791q0 216 108 389q47 74 98.5 122t135.5 98l22 -95q-83 -69 -115 -151t-32 -221q0 -223 76 -465t176 -390q50 -70 98.5 -114.5t127.5 -92.5l22 -95q-117 54 -201 112t-171 144q-251 248 -322 557q-23 99 -23 202z" />
<glyph unicode=")" horiz-adv-x="739" d="M-228 1400q116 -54 201 -112.5t171 -143.5q121 -120 203 -263t117 -294q24 -103 24 -202q0 -217 -107 -389q-47 -74 -98.5 -122t-135.5 -98l-22 95q82 69 114.5 151.5t32.5 220.5q0 223 -75.5 466t-175.5 389q-51 70 -99.5 114.5t-127.5 92.5z" />
<glyph unicode="*" horiz-adv-x="950" d="M-105 915q0 29 21 48.5t55 19.5q40 0 81 -30q18 -15 69 -73q54 -59 119 -91l34 -17l-12 49q-8 37 -22 62.5t-64 93.5q-37 54 -37 95q0 33 19.5 54.5t50.5 21.5q45 0 83 -38t38 -89q0 -5 -12.5 -64t-12.5 -80q0 -50 10 -69l9 -36l24 17q36 26 51 46.5t42 80.5q28 67 90 67 q42 0 76.5 -32t34.5 -77q0 -48 -43 -72q-5 -2 -8 -3.5t-8 -3t-8 -2t-12 -1.5t-15 -1.5t-21.5 -2.5t-27.5 -3q-59 0 -117 -38l-27 -17l34 -17q42 -20 58.5 -26.5t46 -11t75.5 -4.5q59 0 104 -37.5t45 -91.5q0 -28 -18 -46t-48 -18q-38 0 -67.5 19t-92.5 85q-42 45 -117 88 l-32 18l8 -36q12 -50 24.5 -77t58.5 -92q39 -49 39 -94q0 -34 -19 -55.5t-52 -21.5q-42 0 -79.5 38.5t-37.5 88.5q0 6 12.5 66.5t12.5 82.5q0 28 -9 64l-8 36l-26 -18q-35 -25 -52 -47.5t-41 -78.5q-26 -66 -90 -66q-43 0 -78 32t-35 77q0 49 43 71q1 1 7 3.5t7 2.5t6.5 2 t8 2.5t8.5 1.5t11.5 1.5t14 1t18.5 0.5h22q57 0 115 38l25 19l-33 17q-55 27 -84 34.5t-96 7.5q-59 0 -104 36.5t-45 89.5z" />
<glyph unicode="+" horiz-adv-x="1151" d="M-96 835h370l-85 371h219l85 -371h368l51 -219h-368l85 -370h-219l-85 370h-370z" />
<glyph unicode="," horiz-adv-x="528" d="M36 187q0 62 39.5 102t104.5 40q104 0 179.5 -91.5t75.5 -225.5q0 -207 -227 -365l-68 77q134 111 134 217q0 40 -14 40h-7h-15q-79 0 -140.5 59t-61.5 147z" />
<glyph unicode="-" horiz-adv-x="632" d="M-75 672h472l57 -247h-472z" />
<glyph unicode="." horiz-adv-x="528" d="M47 191q0 60 39 99t102 39q83 0 154 -64.5t71 -154.5q0 -60 -40 -99t-105 -39q-81 0 -151 65t-70 154z" />
<glyph unicode="/" horiz-adv-x="528" d="M-38 -28l148 1428h141l-148 -1428h-141z" />
<glyph unicode="0" horiz-adv-x="1090" d="M-129 886q0 208 97.5 333.5t265.5 125.5q194 0 368 -165q210 -205 285 -530q26 -110 26 -217q0 -207 -98 -333.5t-264 -126.5q-105 0 -209 52t-190 142.5t-152.5 218t-100.5 273.5q-28 118 -28 227zM149 1124q0 -54 22.5 -190t54.5 -275q39 -167 82 -306t71 -186 q59 -95 147 -95q50 0 77.5 31.5t27.5 90.5q0 54 -21.5 188.5t-53.5 273.5q-41 175 -83.5 312t-71.5 183q-55 95 -146 95q-50 0 -78 -31.5t-28 -90.5z" />
<glyph unicode="1" horiz-adv-x="1090" d="M-122 1214q165 0 270 31.5t179 99.5h67l248 -1071q21 -91 27 -111.5t19 -31.5q27 -28 160 -28h61l24 -103h-758l-24 103h61q47 0 71 1t46.5 5.5t30.5 14t8 26.5t-24 124l-156 674q-8 37 -11.5 53t-12 38.5t-12.5 29.5t-17.5 18t-22 12.5t-32.5 5t-42 3.5h-56h-80z" />
<glyph unicode="2" horiz-adv-x="1090" d="M-153 1038q0 134 105 220.5t273 86.5q132 0 250 -46.5t197.5 -128.5t102.5 -182q9 -40 9 -84q0 -101 -47 -192q-29 -52 -85.5 -102.5t-228.5 -181.5q-91 -72 -157 -143h367q87 0 107 2.5t33 12.5q16 13 16 100v10v95h103l119 -513q-79 8 -162 8h-714q-34 0 -97 -8l-21 90 q47 103 102.5 191.5t176.5 256.5q88 125 125.5 211t37.5 167q0 147 -75.5 238t-198.5 91q-66 0 -117.5 -34.5t-51.5 -77.5q0 -19 9 -30t31 -20q73 -32 111 -71t52 -100q6 -24 6 -46q0 -54 -34.5 -84.5t-96.5 -30.5q-101 0 -174 84t-73 211z" />
<glyph unicode="3" horiz-adv-x="1090" d="M-151 1082q0 88 59 157q97 106 305 106q202 0 347 -92.5t180 -243.5q9 -38 9 -71q0 -165 -197 -226q-6 -2 -22.5 -6t-25.5 -7q77 -10 122.5 -22t91.5 -35q75 -38 129.5 -111.5t74.5 -163.5q11 -47 11 -89q0 -138 -86 -210q-54 -45 -142.5 -70t-193.5 -25 q-205 0 -352.5 89.5t-180.5 233.5q-6 26 -6 49q0 61 36 96.5t99 35.5q80 0 143.5 -57t63.5 -140q0 -38 -45 -94q-16 -17 -11 -34q7 -30 64 -55t117 -25q81 0 123.5 47.5t42.5 135.5q0 53 -15 117q-62 270 -238 270q-4 0 -43.5 -5.5t-80.5 -5.5q-34 0 -60.5 26.5t-26.5 64.5 q0 44 56 44q10 0 72.5 -10.5t77.5 -10.5q48 0 74 38.5t26 108.5q0 52 -15 119q-26 111 -90.5 173t-154.5 62q-50 0 -89 -20t-39 -46q0 -14 19 -29q92 -70 109 -142q5 -23 5 -39q0 -51 -33.5 -81t-90.5 -30q-86 0 -152.5 64t-66.5 159z" />
<glyph unicode="4" horiz-adv-x="1090" d="M-76 484l493 861h131q20 -85 38 -187l17 -102l135 -585h190l30 -127h-190l16 -70q20 -89 27 -110.5t20 -34.5q29 -26 143 -26h20l24 -103h-648l-24 103h21q81 0 112.5 7.5t31.5 37.5q0 16 -25 126l-16 70h-513zM66 471h374l-109 475z" />
<glyph unicode="5" horiz-adv-x="1090" d="M-110 1345q159 -32 379 -32q230 0 338 27q13 5 28 5q24 0 24 -54q0 -66 -31 -126q-38 -70 -122.5 -108.5t-202.5 -38.5q-104 0 -247 29l29 -245q84 43 136.5 57.5t119.5 14.5q205 0 367 -121.5t205 -307.5q14 -62 14 -114q0 -163 -115 -260.5t-314 -97.5 q-196 0 -334 85.5t-171 228.5q-7 28 -7 57q0 64 38 100.5t106 36.5q73 0 127 -43t71 -113q5 -22 5 -37q0 -58 -76 -100q-18 -12 -18 -25q0 -29 66 -55t121 -26q172 0 172 199q0 65 -20 154q-73 310 -286 310q-125 0 -194 -72q12 -29 12 -48q0 -26 -17 -42.5t-45 -16.5 q-35 0 -62.5 26t-27.5 64q0 23 33 66q-43 186 -65.5 376.5t-35.5 246.5z" />
<glyph unicode="6" horiz-adv-x="1090" d="M-111 835q0 167 68 294q114 216 382 216q164 0 277.5 -72t141.5 -194q6 -24 6 -47q0 -58 -38 -91t-106 -33q-85 0 -145 52t-60 136q0 41 17 71q8 16 8 28q0 24 -26.5 37.5t-66.5 13.5q-76 0 -121.5 -64t-45.5 -180q0 -76 21 -172q5 -19 13.5 -76.5t11.5 -67.5 q44 68 100.5 96.5t147.5 28.5q168 0 299.5 -108t171.5 -279q13 -53 13 -106q0 -154 -106.5 -249.5t-285.5 -95.5q-234 0 -416 173q-165 159 -229 435q-32 135 -32 254zM285 540q0 -61 25 -171q34 -147 94.5 -226.5t137.5 -79.5q102 0 102 155q0 78 -25 185 q-30 129 -83.5 197.5t-127.5 68.5q-55 0 -88.5 -34t-34.5 -95z" />
<glyph unicode="7" horiz-adv-x="1090" d="M-161 1345q239 -26 460 -26q270 0 427 26l19 -80q-66 -279 -93.5 -434.5t-27.5 -276.5q0 -148 52 -370q9 -40 9 -73q0 -67 -38 -102.5t-111 -35.5q-99 0 -163 75.5t-64 192.5q0 87 39 226q18 57 153 382l84 194q-45 0 -86 -0.5t-68.5 -1.5t-48 -2.5t-32.5 -2t-13 -0.5 q-28 0 -107.5 3.5t-111.5 3.5h-34q-45 0 -58.5 -26.5t-13.5 -120.5q0 -29 1 -45v-85l-106 11z" />
<glyph unicode="8" horiz-adv-x="1090" d="M-136 1036q0 143 107 226t296 83q184 0 317 -81.5t163 -212.5q7 -28 7 -59q0 -80 -43 -127.5t-125 -83.5q151 -55 238 -147t119 -226q12 -53 12 -101q0 -153 -113.5 -243.5t-311.5 -90.5q-216 0 -365.5 91.5t-185.5 245.5q-8 40 -8 71q0 118 98 176q22 14 106 43 q-247 118 -299 340q-12 51 -12 96zM90 1104q0 -21 4 -40q15 -63 67 -116.5t122 -77.5q58 -19 186 -49q4 2 5 5l4 2q44 57 44 133q0 126 -77.5 205.5t-187.5 79.5q-76 0 -121.5 -39.5t-45.5 -102.5zM215 393q0 -30 10 -78q26 -114 106.5 -178.5t196.5 -64.5q96 0 154 47.5 t58 125.5q0 23 -6 49q-16 72 -65 115t-147 75q-101 30 -233 65q-74 -77 -74 -156z" />
<glyph unicode="9" horiz-adv-x="1090" d="M-171 1000q0 155 103.5 250t278.5 95q120 0 234 -51t208 -148q155 -160 214 -413q31 -138 31 -252q0 -158 -54 -278q-48 -112 -150 -171t-249 -59q-161 0 -272 66.5t-137 177.5q-6 25 -6 50q0 63 38.5 101.5t103.5 38.5q71 0 125.5 -43t70.5 -111q5 -27 5 -39 q0 -23 -18 -70q-7 -13 -7 -25q0 -22 21.5 -34.5t54.5 -12.5q88 0 136.5 58.5t48.5 172.5q0 77 -22 174q-5 21 -12.5 62t-17.5 86q-45 -67 -102.5 -96t-145.5 -29q-163 0 -295.5 110.5t-170.5 278.5q-14 61 -14 111zM139 1094q0 -88 33.5 -204t68.5 -166q26 -36 66.5 -59 t80.5 -23q53 0 81.5 41t28.5 114q0 53 -15 119q-38 156 -99 245q-56 85 -134 85q-111 0 -111 -152z" />
<glyph unicode=":" horiz-adv-x="528" d="M-67 776q0 60 39.5 99t101.5 39q84 0 154.5 -64t70.5 -153q0 -61 -40 -99.5t-105 -38.5q-80 0 -150.5 64.5t-70.5 152.5zM69 189q0 60 39.5 99t101.5 39q83 0 153.5 -64t70.5 -153q0 -60 -40 -99t-105 -39q-80 0 -150 64.5t-70 152.5z" />
<glyph unicode=";" horiz-adv-x="528" d="M-76 776q0 60 39.5 99t101.5 39q84 0 154 -64t70 -154q0 -60 -39.5 -98.5t-104.5 -38.5q-80 0 -150.5 64.5t-70.5 152.5zM51 188q0 63 40 103t105 40q103 0 179 -91.5t76 -224.5q0 -208 -228 -367l-70 76q136 117 136 218q0 39 -13 39h-8h-15q-79 0 -140.5 59.5 t-61.5 147.5z" />
<glyph unicode="&#x3c;" horiz-adv-x="1151" d="M-37 564l865 441l55 -237l-557 -287l690 -291l55 -238l-1071 441z" />
<glyph unicode="=" horiz-adv-x="1151" d="M-99 850h957l50 -219h-957zM-9 458h957l51 -218h-957z" />
<glyph unicode="&#x3e;" horiz-adv-x="1151" d="M-141 1005l1069 -441l39 -171l-865 -441l-55 238l556 291l-689 287z" />
<glyph unicode="?" horiz-adv-x="950" d="M-217 1160q0 109 99 174.5t266 65.5q199 0 337 -91.5t174 -246.5q8 -33 8 -74q0 -101 -58 -162q-4 -4 -145 -136q-54 -50 -74.5 -83t-20.5 -76q0 -36 14 -98h-103q-34 97 -34 154q0 61 58 236q26 81 26 164q0 135 -66 220t-171 85q-41 0 -65.5 -12t-24.5 -30v-7.5t2 -5.5 t3 -5t5.5 -5.5t8 -5.5t12 -7.5t15.5 -10.5q94 -59 94 -161q0 -52 -35.5 -83.5t-97.5 -31.5q-92 0 -159.5 66t-67.5 167zM217 191q0 60 39.5 99t102.5 39q83 0 154 -64.5t71 -154.5q0 -60 -40 -99t-105 -39q-82 0 -152 64.5t-70 154.5z" />
<glyph unicode="@" horiz-adv-x="1419" d="M-133 855q0 238 152 391.5t397 153.5q173 0 337 -78.5t279.5 -214.5t152.5 -298q14 -57 14 -120q0 -171 -100.5 -289.5t-251.5 -118.5q-66 0 -113 29t-58 78q-1 8 -3 30q-41 -142 -182 -142q-106 0 -197 81.5t-119 201.5q-13 55 -13 119q0 138 57 249q39 77 108.5 119.5 t153.5 42.5q61 0 105 -22.5t93 -76.5l8 66h198l-49 -547q0 -6 -0.5 -16.5t-0.5 -15.5q0 -80 59 -80q55 0 109 57q78 81 78 217q0 59 -15 125q-49 212 -225.5 350t-399.5 138q-206 0 -329 -122t-123 -319q0 -70 18 -148q29 -127 99.5 -240t165 -193.5t211.5 -127.5t236 -47 q153 0 262.5 71t159.5 203h131q-9 -51 -27 -89.5t-55 -85.5q-161 -214 -449 -214q-142 0 -282.5 56t-254.5 152t-198.5 228.5t-118.5 279.5q-20 89 -20 167zM374 615q0 -101 30 -171t97 -70q92 0 123 158q32 165 32 318q0 39 -4 54q-8 35 -40.5 60.5t-69.5 25.5 q-87 0 -130 -139q-38 -112 -38 -236z" />
<glyph unicode="A" horiz-adv-x="1442" d="M-58 103q83 0 128 66.5t75 223.5l199 1007h144l761 -1178q47 -73 86 -96t119 -23l24 -103h-667l-24 104h33q56 0 78.5 7.5t22.5 26.5q0 13 -6.5 28.5t-12.5 25t-24 36.5l-115 186h-473l-14 -72q-10 -44 -10 -69q0 -16 5 -39q15 -67 67 -99t153 -32l24 -103h-549zM310 542 h376l-289 454z" />
<glyph unicode="B" horiz-adv-x="1478" d="M-285 1372h734q171 0 260.5 -15.5t177.5 -60.5q78 -38 134.5 -108.5t75.5 -151.5q8 -37 8 -66q0 -128 -123 -195q-59 -32 -188 -53q204 -26 345 -119t176 -244q8 -32 8 -70q0 -76 -36.5 -137.5t-102.5 -94.5q-66 -32 -150 -44.5t-232 -12.5h-770l-24 103h29q46 0 69.5 1 t46 5.5t31 14t8.5 25.5q0 15 -25 125l-190 824q-22 94 -28.5 113.5t-18.5 31.5q-29 26 -162 26h-29zM295 1214q0 -8 9 -55l93 -403h93q89 0 140 13t81 44q53 51 53 137q0 36 -9 78q-28 118 -108 179.5t-205 61.5h-57q-90 0 -90 -55zM421 652l99 -428q16 -69 25 -83 q25 -38 119 -38h57q119 0 177.5 47t58.5 152q0 101 -47.5 181.5t-118.5 122.5q-46 26 -98 36t-141 10h-131z" />
<glyph unicode="C" horiz-adv-x="1478" d="M-101 858q0 245 154.5 393.5t417.5 148.5q103 0 184 -21t186 -77l81 91h82l126 -544l-79 -11q-120 238 -252.5 351t-290.5 113q-254 0 -254 -316q0 -117 38 -283q72 -313 199.5 -463.5t321.5 -150.5q157 0 242 100t85 285v30l124 -29q0 -3 0.5 -9.5t0.5 -10.5 q0 -245 -120.5 -364t-367.5 -119q-167 0 -303.5 50t-259.5 158q-226 200 -292 489q-23 95 -23 189z" />
<glyph unicode="D" horiz-adv-x="1582" d="M-281 1372h676q202 0 325 -23t222 -80q312 -176 403 -568q26 -115 26 -210q0 -247 -154 -375q-74 -61 -188 -88.5t-294 -27.5h-699l-24 103h29q74 0 107 6t42 22q5 8 5 19q0 21 -24 124l-190 824q-21 89 -28 110.5t-20 32.5q-28 28 -161 28h-29zM301 1210q0 -20 8 -55 l215 -929q17 -76 44.5 -99.5t97.5 -23.5h40q96 0 167 34t99 95q31 61 31 181q0 135 -37 292q-65 285 -194.5 424.5t-327.5 139.5h-47q-53 0 -74.5 -12.5t-21.5 -46.5z" />
<glyph unicode="E" horiz-adv-x="1442" d="M-287 1372h1275l114 -494h-87q-36 71 -68.5 122.5t-79.5 105t-98 87t-121.5 55t-153.5 21.5h-54q-74 0 -107.5 -15t-33.5 -58q0 -23 16 -90l79 -344h32q99 0 151 55.5t52 160.5q0 26 -3 54h103l148 -644h-103q-46 131 -129.5 200t-194.5 69h-32l98 -421q11 -48 21.5 -69 t32.5 -38q21 -17 48 -21.5t99 -4.5h57q173 0 257 97.5t94 310.5h100l118 -511h-1313l-24 103h29q46 0 69.5 1t46 5.5t31 14t8.5 25.5q0 15 -25 125l-190 824q-21 92 -27.5 112t-19.5 31q-28 28 -162 28h-29z" />
<glyph unicode="F" horiz-adv-x="1371" d="M-275 1372h1258l114 -494h-88q-36 71 -68 123t-79 105.5t-98.5 87t-122 54.5t-153.5 21h-36q-74 0 -108 -15t-34 -58q0 -23 16 -90l79 -344h33q100 0 151.5 54t51.5 160q0 26 -3 56h102l148 -644h-102q-46 131 -129 200t-195 69h-33l89 -383q20 -89 27 -110.5t20 -32.5 q17 -16 52 -22t111 -6h50l24 -103h-760l-24 103h28q46 0 69.5 1t46 5.5t31 14t8.5 25.5q0 15 -25 125l-190 824q-21 92 -27.5 112t-19.5 31q-28 28 -162 28h-28z" />
<glyph unicode="G" horiz-adv-x="1582" d="M-104 861q0 175 96 309q160 230 493 230q103 0 187.5 -22.5t197.5 -79.5l90 95h84l126 -546h-84q-97 217 -243 336t-314 119q-84 0 -146.5 -38t-88.5 -105q-32 -85 -32 -203q0 -191 65 -395t151 -327q54 -78 131.5 -121t164.5 -43q105 0 164.5 56.5t59.5 154.5 q0 41 -10 84l-6 26q-9 39 -14.5 59.5t-17 39.5t-21.5 26t-34.5 13t-48.5 6.5t-71 0.5h-21l-23 102h674l23 -102q-78 0 -109 -6t-41 -21q-5 -8 -5 -18q0 -18 26 -126l90 -393h-101l-136 188q-32 -44 -54.5 -67t-52.5 -44q-119 -77 -302 -77q-194 0 -365.5 87.5t-291 245 t-166.5 360.5q-24 107 -24 196z" />
<glyph unicode="H" horiz-adv-x="1653" d="M-279 1372h739l24 -103h-28q-46 0 -70 -1t-47 -5.5t-31.5 -14t-8.5 -25.5q0 -18 26 -127l78 -338h496l-78 338q-21 91 -28 112.5t-20 32.5q-28 28 -162 28h-28l-24 103h739l24 -103h-29q-46 0 -69.5 -1t-46.5 -5.5t-31.5 -14t-8.5 -25.5q0 -18 26 -127l190 -822 q22 -94 28 -113t18 -30q29 -28 163 -28h29l24 -103h-739l-24 103h28q31 0 48.5 0.5t38 2t31 4.5t20.5 8t13.5 13t3.5 19q0 21 -24 124l-86 370h-496l86 -370q22 -94 28 -113t18 -30q29 -28 164 -28h28l24 -103h-739l-24 103h28q31 0 48.5 0.5t38 2t31 4.5t20.5 8t13.5 13 t3.5 19q0 21 -24 124l-190 822q-21 91 -28 112.5t-20 32.5q-28 28 -162 28h-28z" />
<glyph unicode="I" horiz-adv-x="843" d="M-264 1372h739l24 -103h-28q-46 0 -70 -1t-47 -5.5t-31.5 -14t-8.5 -25.5q0 -17 26 -125l190 -824q22 -94 28 -113t18 -30q29 -28 164 -28h28l24 -103h-739l-24 103h29q46 0 69.5 1t46 5.5t31 14t8.5 25.5q0 15 -25 125l-188 824q-20 87 -28 109t-21 34q-28 28 -162 28 h-29z" />
<glyph unicode="J" horiz-adv-x="1231" d="M-82 429q0 90 48.5 144t131.5 54q85 0 153 -55t88 -139q5 -20 5 -45q0 -60 -37.5 -96.5t-101.5 -36.5q-9 0 -35 4.5t-35 4.5q-16 0 -23.5 -10t-4.5 -26q13 -56 91 -98.5t166 -42.5q102 0 165 52.5t63 150.5q0 62 -27 176l-145 632q-22 92 -28.5 112t-19.5 31 q-28 28 -161 28h-29l-24 103h739l24 -103h-28q-46 0 -70 -1t-47 -5.5t-31.5 -14t-8.5 -25.5q0 -17 26 -125l130 -566q28 -119 28 -207q0 -148 -93 -238q-116 -115 -354 -115q-214 0 -359 100t-186 274q-10 41 -10 83z" />
<glyph unicode="K" horiz-adv-x="1548" d="M-289 1372h740l24 -103h-29q-46 0 -70 -1t-47 -5.5t-31.5 -14t-8.5 -25.5q0 -17 26 -125l102 -444l318 444q39 60 39 97q0 74 -159 74h-45l-24 103h640l24 -103q-92 0 -164 -49.5t-170 -174.5l-119 -165l541 -631q51 -59 72 -82t49 -41t48 -20.5t63 -2.5l24 -103h-691 l-24 103h24q120 0 120 37q0 20 -32 60q-3 5 -5 7l-366 435l-122 -167l47 -201q21 -91 27 -111.5t19 -31.5q29 -28 164 -28h29l24 -103h-740l-24 103h29q46 0 69.5 1t46 5.5t31 14t8.5 25.5q0 15 -25 125l-190 824q-21 92 -27.5 112t-19.5 31q-28 28 -162 28h-29z" />
<glyph unicode="L" horiz-adv-x="1371" d="M-281 1372h752l24 -103h-41q-47 0 -71 -1t-46.5 -5.5t-31 -14t-8.5 -25.5q0 -17 26 -125l199 -862q11 -48 21.5 -69t32.5 -38q21 -17 48 -21.5t99 -4.5h40q202 0 288 142q51 87 62 266h101l118 -511h-1296l-24 103h29q74 0 107 6t42 22q5 8 5 19q0 16 -25 126l-189 822 q-21 89 -28 110.5t-20 32.5q-28 28 -161 28h-29z" />
<glyph unicode="M" horiz-adv-x="1863" d="M-287 1372h612l484 -817l88 817h620l24 -103h-21q-47 0 -71 -1t-46.5 -5.5t-31 -14t-8.5 -25.5q0 -12 26 -125l190 -824q21 -92 27.5 -112t18.5 -31q29 -28 164 -28h21l24 -103h-726l-24 103h21q76 0 109 6t42 22q5 8 5 19q0 21 -24 124l-219 948l-138 -1222h-99 l-709 1203l183 -791q29 -126 50 -176t58 -82q61 -51 172 -51l24 -103h-542l-24 103q82 0 123.5 28.5t41.5 94.5q0 52 -31 186l-158 686q-21 92 -27.5 112t-19.5 31q-28 28 -164 28h-21z" />
<glyph unicode="N" horiz-adv-x="1582" d="M-283 1372h479l932 -859l-104 447q-28 125 -49.5 175.5t-58.5 82.5q-61 51 -168 51l-24 103h542l24 -103q-84 0 -126.5 -28t-42.5 -94q0 -51 31 -187l225 -973h-128l-1125 1050l144 -625q28 -125 49 -174.5t59 -81.5q60 -52 172 -52l24 -104h-542l-24 104q107 0 144 52 q21 28 21 73q0 54 -30 183l-173 749q-102 108 -227 108z" />
<glyph unicode="O" horiz-adv-x="1582" d="M-100 842q0 245 143 397q148 161 426 161q277 0 499 -161q142 -101 245.5 -254t141.5 -318q20 -84 20 -170q0 -231 -149 -377q-151 -148 -437 -148q-309 0 -553.5 195.5t-315.5 497.5q-20 92 -20 177zM254 989q0 -119 38 -288q69 -301 209 -484q113 -147 277 -147 q116 0 175.5 78.5t59.5 231.5q0 126 -38 285q-72 316 -210 490q-117 147 -272 147q-84 0 -135 -32.5t-76 -102.5q-28 -74 -28 -178z" />
<glyph unicode="P" horiz-adv-x="1442" d="M-271 1372h754q142 0 238.5 -15.5t182.5 -51.5q101 -43 170 -125.5t93 -189.5q13 -51 13 -99q0 -302 -518 -302h-213l73 -315q22 -94 28 -113.5t18 -31.5q30 -26 164 -26h42l24 -103h-752l-24 103h28q48 0 70.5 1t45.5 5t31 13.5t8 25.5q0 15 -25 126l-190 822 q-21 91 -27.5 111.5t-19.5 33.5q-29 26 -162 26h-28zM310 1213q0 -23 9 -60l106 -459h110q148 0 214.5 42.5t66.5 141.5q0 50 -15 114q-33 142 -113 208.5t-215 66.5h-76q-49 0 -68 -11.5t-19 -42.5z" />
<glyph unicode="Q" horiz-adv-x="1582" d="M-107 859q0 240 157 390.5t417 150.5q194 0 379.5 -94.5t318 -258t177.5 -357.5q19 -82 19 -165q0 -136 -52 -250.5t-150 -190.5q88 -158 133 -211t90 -53q68 0 68 77q0 29 -9 69h102q13 -63 13 -92q0 -106 -71 -168.5t-195 -62.5q-149 0 -248.5 80.5t-133.5 228.5l-7 29 q-49 -9 -118 -9q-319 0 -575 231q-231 206 -295 487q-20 84 -20 169zM248 1001q0 -144 53.5 -345t107.5 -297q12 81 41 116q28 36 78.5 56t110.5 20q151 0 276 -112q37 -35 82 -107q4 24 4 62q0 125 -42 309q-59 251 -171 420q-120 179 -302 179q-238 0 -238 -301zM503 307 q0 -107 75.5 -172t186.5 -65q35 0 57.5 6t55.5 25q-6 23 -10 52t-6 37q-28 122 -87 187.5t-142 65.5q-61 0 -95.5 -37t-34.5 -99z" />
<glyph unicode="R" horiz-adv-x="1548" d="M-279 1372h811q268 0 391 -69q177 -101 218 -275q8 -40 8 -73q0 -141 -125 -214q-55 -29 -184 -55q133 -41 210 -112.5t128 -199.5l29 -72q48 -126 63 -142q26 -29 62 -29q59 0 59 85q0 41 -13 96h102l5 -23q12 -51 12 -96q0 -106 -67.5 -163.5t-194.5 -57.5 q-124 0 -215.5 57.5t-140.5 168.5q-55 126 -80 237q-12 52 -25.5 84t-25 46.5t-34.5 36.5q-64 57 -182 57h-106l88 -383q21 -91 27.5 -111.5t19.5 -33.5q30 -27 164 -27h49l24 -104h-760l-24 104h28q31 0 48.5 0.5t38 2t31 4.5t20.5 8t13.5 13t3.5 19q0 15 -25 125l-189 822 q-22 91 -28.5 111.5t-19.5 33.5q-29 26 -162 26h-28zM302 1218q0 -23 11 -70l89 -384h104q156 0 221.5 35t65.5 123q0 36 -13 96q-30 130 -106 190.5t-209 60.5h-46q-69 0 -93 -9.5t-24 -41.5z" />
<glyph unicode="S" horiz-adv-x="1267" d="M-140 1076q0 148 109.5 236t298.5 88q192 0 365 -102l79 87h85l116 -492h-78q-265 409 -562 409q-98 0 -156.5 -44t-58.5 -116q0 -22 5 -40q27 -118 166 -163q42 -14 69 -20t136 -26l97 -21q259 -54 395.5 -160.5t178.5 -287.5q13 -53 13 -107q0 -157 -110.5 -251 t-300.5 -94q-219 0 -418 127l-92 -112h-97l-124 537h97q128 -214 289.5 -334t322.5 -120q106 0 167 47t61 126q0 69 -35 122.5t-90 79.5q-38 18 -78.5 28.5t-139.5 28.5l-123 22q-233 41 -384 160t-192 293q-11 48 -11 99z" />
<glyph unicode="T" horiz-adv-x="1371" d="M-260 1372h1258l119 -515h-72q-46 113 -88 181.5t-95 122.5q-113 112 -231 112q-32 0 -44.5 -7.5t-12.5 -27.5q0 -11 7 -43l213 -921q21 -91 27 -111.5t19 -31.5q29 -28 164 -28h41l25 -103h-768l-24 103h42q47 0 71 1t46.5 5.5t31 14t8.5 25.5q0 15 -25 125l-213 921 q-11 49 -27.5 63.5t-59.5 14.5q-74 0 -125.5 -45.5t-74.5 -119t-23 -167.5q0 -53 2 -84h-72z" />
<glyph unicode="U" horiz-adv-x="1582" d="M-289 1372h740l24 -103h-29q-46 0 -70 -1t-47 -5.5t-31.5 -14t-8.5 -25.5q0 -17 26 -125l140 -608q48 -207 128 -283q102 -93 265 -93q240 0 281 180q5 18 5 49q0 68 -38 235l-89 382q-29 126 -50 176t-58 82q-61 51 -168 51l-24 103h542l24 -103q-84 0 -126.5 -28.5 t-42.5 -94.5q0 -56 30 -186l90 -382q43 -193 43 -277q0 -65 -21 -119q-44 -110 -148 -160t-286 -50q-201 0 -349 55.5t-231 162.5q-39 50 -66.5 119t-54.5 187l-138 602q-21 92 -27.5 112t-19.5 31q-28 28 -162 28h-29z" />
<glyph unicode="V" horiz-adv-x="1442" d="M-351 1372h688l24 -103h-40q-108 0 -108 -37q0 -6 1 -12t5 -14l6 -12t9.5 -17t10.5 -18l480 -768l113 677q4 20 4 41q0 48 -25.5 84t-68.5 55q-43 21 -123 21l-24 103h560l24 -103q-165 0 -206 -241l-192 -1056h-167l-731 1166q-52 82 -92 106.5t-124 24.5z" />
<glyph unicode="W" horiz-adv-x="1863" d="M-306 1372h589l24 -103q-58 0 -80.5 -8t-22.5 -27q0 -5 0.5 -9.5t1.5 -8t3 -8.5t3 -8t5 -9.5t5.5 -9.5t6.5 -11.5t8 -12.5l377 -680l42 477l-118 214q-36 62 -63 81.5t-82 19.5l-24 103h562l24 -103q-57 0 -79.5 -8.5t-22.5 -29.5q0 -5 0.5 -9t1.5 -8.5t2 -7t3.5 -8 t4.5 -8t6.5 -10.5t7.5 -13l359 -677l40 542q3 45 3 67q0 170 -204 170l-24 103h479l24 -103q-82 -17 -110 -65.5t-36 -188.5l-91 -1043h-139l-415 773l-73 -773h-143l-661 1187q-38 68 -69.5 89t-96.5 21h-4z" />
<glyph unicode="X" horiz-adv-x="1371" d="M-340 1372h680l24 -103q-72 0 -96.5 -6.5t-24.5 -24.5q0 -29 33 -64l266 -287l95 164q39 61 39 102q0 10 -3 19q-22 97 -204 97l-24 103h585l24 -103q-72 0 -120.5 -34t-96.5 -112l-199 -338l449 -491q120 -130 165 -160.5t120 -30.5l24 -103h-684l-24 103q64 0 90.5 8.5 t26.5 27.5q0 33 -41 74l-276 296l-117 -213q-19 -31 -19 -68q0 -14 3 -27q11 -50 65.5 -74t161.5 -24l24 -103h-629l-24 103q82 0 128.5 34.5t106.5 136.5l199 344l-517 554q-54 59 -89.5 78t-96.5 19z" />
<glyph unicode="Y" horiz-adv-x="1371" d="M-340 1372h684l24 -103h-30q-98 0 -98 -35q0 -16 7 -27.5t30 -38.5l347 -416l112 339q9 31 9 63q0 55 -45.5 85t-116.5 30h-40l-24 103h560l24 -103q-78 0 -128 -43t-85 -134l-172 -488l76 -330q21 -91 27 -111.5t19 -31.5q29 -28 164 -28h42l24 -103h-768l-24 103h42 q47 0 71 1t46.5 5.5t31 14t8.5 25.5q0 17 -25 125l-71 306l-531 621q-37 41 -69.5 54.5t-96.5 13.5z" />
<glyph unicode="Z" horiz-adv-x="1267" d="M-201 1372h1089l24 -105l-493 -1163h169q101 0 150 8t88 30q76 43 116.5 133.5t40.5 215.5v33h101l121 -524h-1159l-25 110l494 1157h-141q-151 0 -223 -33t-115 -121q-41 -81 -52 -220h-74z" />
<glyph unicode="[" horiz-adv-x="739" d="M-157 1372h484l22 -95h-251l320 -1387h251l22 -95h-484z" />
<glyph unicode="\" horiz-adv-x="1151" d="M-228 1400h141l1141 -1400h-140z" />
<glyph unicode="]" horiz-adv-x="739" d="M-258 1372h484l364 -1577h-484l-22 95h251l-320 1387h-251z" />
<glyph unicode="^" horiz-adv-x="1151" d="M-40 604l219 768h161l574 -768h-227l-358 475l-143 -475h-226z" />
<glyph unicode="_" horiz-adv-x="950" d="M25 -110h950l40 -171h-950z" />
<glyph unicode="`" horiz-adv-x="457" d="M-191 1054q0 207 226 365l69 -78q-134 -111 -134 -216q0 -40 14 -40q2 0 9.5 2t11.5 2q79 0 141 -61t62 -149q0 -63 -39.5 -102.5t-104.5 -39.5q-104 0 -179.5 91.5t-75.5 225.5z" />
<glyph unicode="a" horiz-adv-x="1160" d="M-42 723q0 94 102 149t279 55q231 0 358 -87q59 -40 90.5 -92t53.5 -144l77 -334q19 -83 35.5 -110t47.5 -27q11 0 34 13.5t34 13.5q18 0 28 -15.5t10 -38.5q0 -55 -51.5 -94.5t-124.5 -39.5t-133 35t-98 99q-59 -74 -134.5 -104t-198.5 -30q-138 0 -228.5 58t-115.5 164 q-7 35 -7 57q0 120 154 190q59 26 121.5 44.5t203.5 50.5q30 4 60 13l-23 99q-23 98 -67.5 139t-129.5 41q-53 0 -90 -16t-37 -38q0 -12 3.5 -17t21.5 -22q46 -46 46 -96q0 -44 -36 -71.5t-94 -27.5q-76 0 -133.5 52t-57.5 131zM326 281q0 -79 46 -129.5t112 -50.5 q62 0 96 40.5t34 112.5q0 42 -10 86l-25 106l-96 -22q-81 -20 -119 -54.5t-38 -88.5z" />
<glyph unicode="b" horiz-adv-x="1231" d="M-317 1372l450 28l142 -615q41 74 103.5 108t157.5 34q181 0 327 -129.5t192 -331.5q16 -68 16 -132q0 -166 -103.5 -264t-285.5 -98q-107 0 -192.5 36t-170.5 117l-89 -153h-93q-7 148 -69 419l-163 707q-11 48 -17.5 72.5t-17 48t-18 32t-25.5 15.5t-35 8t-50 1h-36z M335 598q0 -85 26 -195q38 -162 106.5 -247.5t162.5 -85.5q128 0 128 178q0 79 -26 195q-80 342 -257 342q-140 0 -140 -187z" />
<glyph unicode="c" horiz-adv-x="1056" d="M-55 549q0 170 120.5 274t322.5 104q172 0 290.5 -70.5t145.5 -187.5q7 -35 7 -42q0 -55 -37 -87.5t-102 -32.5q-68 0 -120.5 39t-66.5 100q-4 15 -4 29q0 23 22 64q14 23 12 36q-5 22 -38 37.5t-74 15.5q-79 0 -121 -53.5t-42 -152.5q0 -65 20 -153q40 -176 126 -272 t202 -96q101 0 150 60.5t66 174.5l107 -32q-11 -128 -67 -203q-47 -68 -114.5 -98.5t-173.5 -30.5q-229 0 -399 127.5t-218 335.5q-14 56 -14 114z" />
<glyph unicode="d" horiz-adv-x="1267" d="M-46 564q0 161 92 262t244 101q171 0 307 -129l-69 300q-11 48 -17.5 72.5t-17 48t-18 32t-25.5 15.5t-35 8t-50 1h-61l-23 97l475 28l269 -1168q18 -75 45 -95q13 -10 26.5 -11.5t65.5 -1.5h52l34 -124h-445l-37 137q-38 -85 -104.5 -125t-169.5 -40q-185 0 -330 128 t-192 335q-16 65 -16 129zM275 611q0 -72 23 -172q37 -162 106.5 -250t159.5 -88q65 0 100.5 54t35.5 148q0 68 -19 147q-37 159 -111.5 253.5t-162.5 94.5q-65 0 -98.5 -48t-33.5 -139z" />
<glyph unicode="e" horiz-adv-x="1090" d="M-53 549q0 178 113.5 278t297.5 100q208 0 360 -125.5t201 -337.5l7 -31h-636q33 -142 97 -218q103 -114 238 -114q93 0 148.5 50t87.5 161l102 -38q-28 -153 -122.5 -227.5t-260.5 -74.5q-223 0 -385 115q-85 61 -149 157t-87 197q-12 54 -12 108zM252 655 q0 -53 15 -117h285q22 0 32 7t10 25q0 6 -4 28q-26 112 -78 171t-125 59q-65 0 -100 -45t-35 -128z" />
<glyph unicode="f" horiz-adv-x="739" d="M-181 899h165l-5 24q-17 71 -17 142q0 152 85 240t237 88q118 0 211 -59t113 -148q5 -23 5 -39q0 -52 -33 -84.5t-88 -32.5q-66 0 -121 45.5t-55 111.5q0 47 28 75q10 15 1.5 23.5t-29.5 8.5q-38 0 -63 -33t-25 -81q0 -43 30 -173l24 -108h238l27 -114h-238l139 -601 q13 -57 42 -73t121 -16h34l22 -95h-627l-22 95h8q76 0 102.5 9.5t26.5 39.5q0 13 -5 40l-139 601h-165z" />
<glyph unicode="g" horiz-adv-x="1160" d="M-49 663q0 118 104 191t276 73q144 0 268 -55q45 78 94.5 114t113.5 36q70 0 121.5 -42t51.5 -110q0 -41 -25.5 -67t-67.5 -26t-79.5 28t-45.5 65q-2 10 -11 10q-32 0 -58 -52q74 -51 111 -100t53 -116q9 -41 9 -68q0 -132 -121 -196q-48 -25 -107 -35.5t-153 -10.5h-34 q-72 0 -102 -10.5t-30 -36.5q0 -10 2 -16q7 -34 33.5 -44.5t103.5 -10.5h131q198 0 289 -28q76 -21 133.5 -82.5t76.5 -141.5q7 -31 7 -63q0 -122 -125 -187.5t-360 -65.5q-464 0 -507 186q-4 16 -4 33q0 53 43 88.5t122 48.5q-88 23 -143 68t-69 108q-5 23 -5 40 q0 112 182 146q-111 36 -180 104.5t-91 163.5q-7 29 -7 61zM250 710q0 -67 22.5 -135t55.5 -113q46 -69 130 -69q50 0 76.5 33t26.5 93q0 37 -11 89q-52 220 -190 220q-110 0 -110 -118zM342 -152q0 -7 2 -23q13 -53 80 -81.5t176 -28.5q266 0 266 97q0 25 -13.5 48.5 t-32.5 33.5q-27 16 -58 20t-120 4h-249q-51 -25 -51 -70z" />
<glyph unicode="h" horiz-adv-x="1301" d="M-287 1372l450 28l150 -650q39 92 106.5 134.5t175.5 42.5q155 0 255 -91q89 -76 129 -245l93 -405q13 -58 42.5 -73.5t121.5 -15.5h7l22 -97h-579l-22 97q68 0 92 9t24 38q0 13 -5 40l-88 380q-21 91 -66.5 138.5t-111.5 47.5q-67 0 -107 -45.5t-40 -120.5 q0 -45 18 -126l63 -272q13 -58 40.5 -73.5t110.5 -15.5l22 -97h-580l-22 97h8q76 0 102.5 9t26.5 39q0 12 -5 39l-210 907q-12 52 -18 77t-17 50t-18 33t-25.5 15.5t-34.5 8t-51 0.5h-36z" />
<glyph unicode="i" horiz-adv-x="703" d="M-151 885l443 14l166 -715q13 -56 41 -71.5t115 -15.5h12l22 -97h-595l-22 97h8q73 0 99 9.5t26 39.5q0 16 -6 40l-98 424q-11 48 -17 72.5t-16.5 48.5t-18.5 32t-25.5 15.5t-34.5 8.5t-50 1h-27zM-112 1270q0 55 38 92.5t97 37.5q77 0 143.5 -61t66.5 -145 q0 -57 -38 -93.5t-99 -36.5q-75 0 -141.5 61.5t-66.5 144.5z" />
<glyph unicode="j" horiz-adv-x="668" d="M-176 885l477 14l160 -692q42 -183 42 -280q0 -147 -81 -229t-223 -82q-117 0 -203 53.5t-105 136.5q-6 24 -6 34q0 49 32 79t87 30q60 0 108.5 -45.5t48.5 -111.5q0 -38 -37 -66q20 -20 54 -20q71 0 71 90q0 43 -14 98l-168 731q-10 42 -16 65.5t-16 44t-18.5 29.5 t-26 15.5t-35 7.5t-48.5 1h-61zM-109 1269q0 56 38 93.5t98 37.5q77 0 143.5 -61t66.5 -145q0 -57 -38 -93.5t-99 -36.5q-75 0 -142 61.5t-67 143.5z" />
<glyph unicode="k" horiz-adv-x="1267" d="M-294 1372l450 28l215 -933l188 206q32 35 32 63q0 66 -128 66h-23l-23 97h559l23 -97h-44q-54 0 -96 -20.5t-88 -69.5l-119 -121l385 -373q82 -81 114 -101t81 -20l22 -97h-581l-22 97h19q66 0 66 31q0 28 -40 66l-224 211l-68 -78l32 -141q13 -57 40 -73t110 -16 l22 -97h-580l-22 97h8q76 0 102.5 9t26.5 39q0 12 -5 39l-211 914q-12 49 -18 72.5t-16.5 48t-18 32t-25 15.5t-34.5 8.5t-50 0.5h-36z" />
<glyph unicode="l" horiz-adv-x="668" d="M-287 1372l450 28l281 -1216q13 -59 41.5 -73t108.5 -14h13l22 -97h-593l-22 97h8q76 0 102.5 9t26.5 39q0 12 -5 39l-211 914q-11 48 -17.5 72.5t-17 48t-18 32t-25.5 15.5t-35 8t-50 1h-36z" />
<glyph unicode="m" horiz-adv-x="1829" d="M-166 885l429 14l35 -149q71 177 263 177q95 0 177 -45.5t130 -125.5q46 91 106.5 131t152.5 40q127 0 233.5 -79.5t133.5 -195.5l109 -468q9 -39 22.5 -56t42.5 -24t92 -7h8l22 -97h-559l-22 97q56 0 76 8.5t20 34.5q0 17 -6 44l-92 397q-20 88 -54.5 128.5t-88.5 40.5 q-63 0 -97 -38.5t-34 -106.5q0 -35 9 -77l80 -344q13 -56 35.5 -71.5t94.5 -15.5l22 -97h-517l-22 97q55 0 75 8.5t20 34.5q0 13 -7 46l-90 388q-21 93 -55 134.5t-90 41.5q-62 0 -96.5 -39t-34.5 -108q0 -35 9 -75l80 -344q13 -56 35.5 -71.5t94.5 -15.5l22 -97h-560 l-22 97h10q75 0 101 9t26 39q0 17 -6 41l-98 424q-11 48 -17.5 72.5t-17 48t-18 32t-25.5 16t-35 8.5t-50 1h-30z" />
<glyph unicode="n" horiz-adv-x="1301" d="M-166 885l431 14l39 -167q45 105 112.5 150t180.5 45q157 0 257 -91q89 -76 129 -245l93 -405q13 -58 42.5 -73.5t121.5 -15.5h7l22 -97h-579l-22 97q68 0 92 9t24 38q0 13 -5 40l-88 380q-21 91 -68 138.5t-114 47.5q-66 0 -106.5 -47t-40.5 -122q0 -45 18 -123l64 -274 q13 -55 40.5 -71t111.5 -16l22 -97h-580l-22 97h8q75 0 101 9t26 39q0 17 -6 41l-96 418q-12 50 -18.5 75.5t-17 50t-18.5 33.5t-26 16t-35 8t-50 1h-28z" />
<glyph unicode="o" horiz-adv-x="1160" d="M-57 556q0 165 117 268t311 103q217 0 398 -139.5t228 -342.5q13 -53 13 -107q0 -163 -116.5 -264.5t-309.5 -101.5q-225 0 -403 134.5t-225 341.5q-13 53 -13 108zM258 646q0 -81 27 -198q87 -378 279 -378q63 0 96 48t33 139q0 111 -39 245.5t-86 213.5q-31 50 -80 81 t-98 31q-132 0 -132 -182z" />
<glyph unicode="p" horiz-adv-x="1267" d="M-170 885l445 14l29 -122q46 81 105.5 115.5t155.5 34.5q182 0 331.5 -129t195.5 -325q16 -67 16 -133q0 -164 -95.5 -266t-254.5 -102q-158 0 -297 123l68 -295q14 -57 43 -73t122 -16h21l22 -95h-614l-22 95h8q74 0 100.5 9.5t26.5 39.5q0 16 -6 40l-185 804 q-9 40 -14 60t-13 44t-12 33.5t-14.5 21.5t-17.5 14.5t-23.5 6.5t-30 4h-39.5h-29zM360 593q0 -68 21 -158q37 -161 108.5 -247.5t167.5 -86.5q65 0 99 48t34 137q0 72 -20 155q-39 168 -104.5 256t-151.5 88q-76 0 -115 -49t-39 -143z" />
<glyph unicode="q" horiz-adv-x="1231" d="M-51 561q0 163 105 264.5t281 101.5q108 0 195.5 -37t171.5 -117l85 152h93q24 -222 67 -408l165 -717q14 -57 43 -73t120 -16h8l22 -95h-614l-22 95h21q76 0 103 9.5t27 40.5q0 15 -6 39l-71 310q-87 -138 -262 -138q-83 0 -172 35.5t-152 93.5q-66 58 -119 152t-75 188 q-14 65 -14 120zM263 645q0 -81 27 -197q39 -171 106 -259t159 -88q64 0 97.5 51t33.5 146q0 100 -34 223t-74 186q-35 55 -85 88t-99 33q-131 0 -131 -183z" />
<glyph unicode="r" horiz-adv-x="986" d="M-170 885l420 14l54 -230q20 131 83 194.5t172 63.5q91 0 162.5 -54.5t90.5 -137.5q5 -23 5 -40q0 -54 -35.5 -88.5t-94.5 -34.5q-69 0 -124.5 49.5t-55.5 122.5q0 24 17 58q-137 -43 -137 -277q0 -104 25 -213l29 -126q13 -58 42.5 -73.5t121.5 -15.5h42l22 -97h-635 l-22 97h8q75 0 101 9t26 39q0 17 -6 41l-96 418q-12 50 -18 75.5t-17 50t-18.5 33.5t-26 16.5t-35 8t-49.5 0.5h-29z" />
<glyph unicode="s" horiz-adv-x="950" d="M-71 686q0 108 82.5 174.5t220.5 66.5q131 0 250 -61l60 42h82l70 -300h-82q-97 117 -180 168.5t-175 51.5q-62 0 -99 -24.5t-37 -64.5q0 -7 2 -21q9 -37 37.5 -55.5t102.5 -37.5l180 -42q109 -25 156.5 -43.5t91.5 -51.5q135 -100 135 -266q0 -114 -85 -182t-231 -68 q-157 0 -283 66l-66 -34h-90l-76 328h86q100 -135 198.5 -198.5t208.5 -63.5q66 0 103 23.5t37 65.5q0 11 -3 23q-10 43 -47 69t-112 42l-146 30q-96 20 -151.5 43t-108.5 65q-97 76 -123 188q-8 37 -8 67z" />
<glyph unicode="t" horiz-adv-x="809" d="M-160 884q228 27 228 302q0 36 -5 89h120l86 -376h247l27 -114h-247l113 -489q22 -96 44 -129.5t63 -33.5q84 0 84 113q0 43 -14 107h101q22 -68 22 -134q0 -247 -255 -247q-166 0 -254 104q-33 40 -51.5 88.5t-45.5 166.5l-103 454h-137z" />
<glyph unicode="u" horiz-adv-x="1301" d="M-183 899h450l127 -547q25 -108 68 -156t114 -48q69 0 110.5 45.5t41.5 120.5q0 41 -21 138l-35 152q-12 50 -18 75.5t-17 50t-18.5 33.5t-26 16.5t-35 8t-49.5 0.5h-31l-22 97l447 14l161 -694q12 -55 37.5 -78.5t88.5 -23.5h53l24 -103h-442l-35 156 q-59 -101 -126 -142.5t-169 -41.5q-97 0 -179.5 42.5t-138.5 120.5q-29 39 -43.5 79.5t-39.5 148.5l-55 241q-12 52 -18 77t-17.5 50t-18.5 33t-25.5 15.5t-34.5 8t-51 0.5h-30z" />
<glyph unicode="v" horiz-adv-x="1160" d="M-185 899h536l22 -95q-48 0 -69 -7.5t-21 -26.5q0 -23 28 -59l306 -445l58 350q11 71 11 85q0 58 -39 80.5t-128 22.5l-22 95h431l22 -95h-7q-57 0 -85.5 -36.5t-48.5 -131.5l-140 -663h-161l-518 730q-46 64 -73.5 82.5t-79.5 18.5z" />
<glyph unicode="w" horiz-adv-x="1689" d="M-172 899h524l23 -97q-48 0 -66.5 -6.5t-18.5 -24.5q0 -11 1 -16t2.5 -8t9 -13t14.5 -22l261 -419l63 323l-75 114q-28 44 -53.5 58t-78.5 14l-23 97h531l23 -97h-14q-93 0 -93 -35q0 -20 22 -51l272 -423l59 323q7 36 7 64q0 59 -41.5 90.5t-113.5 31.5h-13l-23 97h429 l23 -97q-63 0 -91.5 -34t-49.5 -128l-144 -667h-143l-318 500l-102 -500h-144l-476 722q-41 62 -73.5 84.5t-86.5 22.5z" />
<glyph unicode="x" horiz-adv-x="1160" d="M-183 899h562l23 -97h-21q-56 0 -56 -26q0 -17 30 -44l139 -132l76 94q26 32 26 54q0 26 -24 40t-63 14h-44l-23 97h467l23 -97q-61 0 -104 -22.5t-89 -76.5l-155 -186l334 -312q76 -70 110 -89t86 -19l22 -97h-596l-22 97h13q67 0 67 34q0 15 -7 24.5t-25 26.5l-143 135 l-88 -112q-17 -21 -17 -43q0 -29 30.5 -47t74.5 -18h24l22 -97h-444l-22 97q42 0 75 19.5t74 67.5l179 219l-347 325q-49 46 -75.5 60t-68.5 14z" />
<glyph unicode="y" horiz-adv-x="1160" d="M-181 899h539l23 -97h-34q-58 0 -58 -30q0 -25 28 -61l296 -411l77 348q4 13 4 36q0 62 -36 90t-113 28h-21l-23 97h427l23 -97q-58 0 -87 -34t-50 -122l-167 -716q-38 -168 -110 -244.5t-192 -76.5q-106 0 -182 48t-94 126q-5 23 -5 39q0 56 36.5 91.5t95.5 35.5 q72 0 124.5 -46t52.5 -119q0 -5 -2 -15t-2.5 -16t3.5 -10.5t15 -4.5q40 0 73.5 39t53.5 111l25 82l-565 756q-34 48 -57 62t-75 14z" />
<glyph unicode="z" horiz-adv-x="1020" d="M-88 899h820l21 -91l-347 -713h117q97 0 131.5 13t60.5 59q41 67 49 194h93l83 -361h-874l-19 84l350 720h-97q-99 0 -135.5 -10.5t-60.5 -43.5q-16 -22 -24 -63t-15 -130h-74z" />
<glyph unicode="{" horiz-adv-x="739" d="M16 625q64 16 87.5 38.5t23.5 74.5q0 26 -26 140l-48 209q-19 79 -19 133q0 66 33 100q20 22 68 37t101 15h99l21 -88q-48 0 -69.5 -18.5t-21.5 -57.5q0 -26 7 -57l76 -330q13 -51 13 -90q0 -60 -35 -93t-117 -55q119 -29 171.5 -78.5t77.5 -158.5l52 -224 q27 -120 35 -145.5t26 -46.5q35 -40 108 -48l20 -87h-99q-53 0 -107.5 14.5t-84.5 36.5q-44 30 -72.5 85t-49.5 149l-49 209q-22 95 -32.5 124t-31.5 56q-24 28 -53 43.5t-86 29.5z" />
<glyph unicode="|" horiz-adv-x="1151" d="M145 1372h226l317 -1372h-226z" />
<glyph unicode="}" horiz-adv-x="739" d="M-258 1372h103q52 0 106.5 -14.5t85.5 -37.5q43 -30 71.5 -84.5t50.5 -148.5l48 -209q22 -94 32.5 -124t32.5 -57q23 -29 51.5 -44t83.5 -28l19 -83q-63 -16 -85 -39.5t-22 -76.5q0 -29 24 -137l49 -209q19 -87 19 -134q0 -67 -33 -100q-21 -22 -68.5 -36.5t-100.5 -14.5 h-103l-21 87q41 5 60.5 15.5t28.5 32.5q8 16 8 29q0 20 -33 163l-52 224q-12 52 -12 90q0 60 34 92.5t116 54.5q-118 28 -170 78t-78 160l-76 330q-15 69 -49.5 101t-98.5 32z" />
<glyph unicode="~" horiz-adv-x="1151" d="M0 420q65 216 223 216q57 0 182 -43l108 -36q101 -36 135 -36q33 0 55.5 21t48.5 77l182 -100q-68 -215 -223 -215q-59 0 -181 44l-110 36q-100 36 -133 36t-56 -21.5t-49 -77.5z" />
<glyph unicode="&#xad;" horiz-adv-x="632" d="M-75 672h472l57 -247h-472z" />
<glyph unicode="&#x591;" d="M-232 138v627h464v-627h-464zM-189 178h378v540h-378v-540zM-100 590q0 3 9 16t33 28t53 15q45 0 77.5 -27t32.5 -70q0 -26 -10.5 -48t-23.5 -35.5t-30.5 -31.5t-25.5 -33q-3 -3 -5 -3q-8 -2 -26 -2q-14 0 -14 4q0 11 34 47.5t34 59.5q0 41 -21 66.5t-51 25.5 q-24 0 -37 -10.5t-15 -10.5q-14 0 -14 9zM-34 288v26q0 11 6 18l28 28q16 14 16 -6v-30q0 -7 -10 -19l-25 -27q-5 -5 -10 -2.5t-5 12.5z" />
<glyph unicode="&#x592;" d="M-232 138v627h464v-627h-464zM-189 178h378v540h-378v-540zM-100 590q0 3 9 16t33 28t53 15q45 0 77.5 -27t32.5 -70q0 -26 -10.5 -48t-23.5 -35.5t-30.5 -31.5t-25.5 -33q-3 -3 -5 -3q-8 -2 -26 -2q-14 0 -14 4q0 11 34 47.5t34 59.5q0 41 -21 66.5t-51 25.5 q-24 0 -37 -10.5t-15 -10.5q-14 0 -14 9zM-34 288v26q0 11 6 18l28 28q16 14 16 -6v-30q0 -7 -10 -19l-25 -27q-5 -5 -10 -2.5t-5 12.5z" />
<glyph unicode="&#x593;" d="M-232 138v627h464v-627h-464zM-189 178h378v540h-378v-540zM-100 590q0 3 9 16t33 28t53 15q45 0 77.5 -27t32.5 -70q0 -26 -10.5 -48t-23.5 -35.5t-30.5 -31.5t-25.5 -33q-3 -3 -5 -3q-8 -2 -26 -2q-14 0 -14 4q0 11 34 47.5t34 59.5q0 41 -21 66.5t-51 25.5 q-24 0 -37 -10.5t-15 -10.5q-14 0 -14 9zM-34 288v26q0 11 6 18l28 28q16 14 16 -6v-30q0 -7 -10 -19l-25 -27q-5 -5 -10 -2.5t-5 12.5z" />
<glyph unicode="&#x594;" d="M-232 138v627h464v-627h-464zM-189 178h378v540h-378v-540zM-100 590q0 3 9 16t33 28t53 15q45 0 77.5 -27t32.5 -70q0 -26 -10.5 -48t-23.5 -35.5t-30.5 -31.5t-25.5 -33q-3 -3 -5 -3q-8 -2 -26 -2q-14 0 -14 4q0 11 34 47.5t34 59.5q0 41 -21 66.5t-51 25.5 q-24 0 -37 -10.5t-15 -10.5q-14 0 -14 9zM-34 288v26q0 11 6 18l28 28q16 14 16 -6v-30q0 -7 -10 -19l-25 -27q-5 -5 -10 -2.5t-5 12.5z" />
<glyph unicode="&#x595;" d="M-232 138v627h464v-627h-464zM-189 178h378v540h-378v-540zM-100 590q0 3 9 16t33 28t53 15q45 0 77.5 -27t32.5 -70q0 -26 -10.5 -48t-23.5 -35.5t-30.5 -31.5t-25.5 -33q-3 -3 -5 -3q-8 -2 -26 -2q-14 0 -14 4q0 11 34 47.5t34 59.5q0 41 -21 66.5t-51 25.5 q-24 0 -37 -10.5t-15 -10.5q-14 0 -14 9zM-34 288v26q0 11 6 18l28 28q16 14 16 -6v-30q0 -7 -10 -19l-25 -27q-5 -5 -10 -2.5t-5 12.5z" />
<glyph unicode="&#x596;" d="M-232 138v627h464v-627h-464zM-189 178h378v540h-378v-540zM-100 590q0 3 9 16t33 28t53 15q45 0 77.5 -27t32.5 -70q0 -26 -10.5 -48t-23.5 -35.5t-30.5 -31.5t-25.5 -33q-3 -3 -5 -3q-8 -2 -26 -2q-14 0 -14 4q0 11 34 47.5t34 59.5q0 41 -21 66.5t-51 25.5 q-24 0 -37 -10.5t-15 -10.5q-14 0 -14 9zM-34 288v26q0 11 6 18l28 28q16 14 16 -6v-30q0 -7 -10 -19l-25 -27q-5 -5 -10 -2.5t-5 12.5z" />
<glyph unicode="&#x597;" d="M-232 138v627h464v-627h-464zM-189 178h378v540h-378v-540zM-100 590q0 3 9 16t33 28t53 15q45 0 77.5 -27t32.5 -70q0 -26 -10.5 -48t-23.5 -35.5t-30.5 -31.5t-25.5 -33q-3 -3 -5 -3q-8 -2 -26 -2q-14 0 -14 4q0 11 34 47.5t34 59.5q0 41 -21 66.5t-51 25.5 q-24 0 -37 -10.5t-15 -10.5q-14 0 -14 9zM-34 288v26q0 11 6 18l28 28q16 14 16 -6v-30q0 -7 -10 -19l-25 -27q-5 -5 -10 -2.5t-5 12.5z" />
<glyph unicode="&#x598;" d="M-232 138v627h464v-627h-464zM-189 178h378v540h-378v-540zM-100 590q0 3 9 16t33 28t53 15q45 0 77.5 -27t32.5 -70q0 -26 -10.5 -48t-23.5 -35.5t-30.5 -31.5t-25.5 -33q-3 -3 -5 -3q-8 -2 -26 -2q-14 0 -14 4q0 11 34 47.5t34 59.5q0 41 -21 66.5t-51 25.5 q-24 0 -37 -10.5t-15 -10.5q-14 0 -14 9zM-34 288v26q0 11 6 18l28 28q16 14 16 -6v-30q0 -7 -10 -19l-25 -27q-5 -5 -10 -2.5t-5 12.5z" />
<glyph unicode="&#x599;" d="M-232 138v627h464v-627h-464zM-189 178h378v540h-378v-540zM-100 590q0 3 9 16t33 28t53 15q45 0 77.5 -27t32.5 -70q0 -26 -10.5 -48t-23.5 -35.5t-30.5 -31.5t-25.5 -33q-3 -3 -5 -3q-8 -2 -26 -2q-14 0 -14 4q0 11 34 47.5t34 59.5q0 41 -21 66.5t-51 25.5 q-24 0 -37 -10.5t-15 -10.5q-14 0 -14 9zM-34 288v26q0 11 6 18l28 28q16 14 16 -6v-30q0 -7 -10 -19l-25 -27q-5 -5 -10 -2.5t-5 12.5z" />
<glyph unicode="&#x59a;" d="M-232 138v627h464v-627h-464zM-189 178h378v540h-378v-540zM-100 590q0 3 9 16t33 28t53 15q45 0 77.5 -27t32.5 -70q0 -26 -10.5 -48t-23.5 -35.5t-30.5 -31.5t-25.5 -33q-3 -3 -5 -3q-8 -2 -26 -2q-14 0 -14 4q0 11 34 47.5t34 59.5q0 41 -21 66.5t-51 25.5 q-24 0 -37 -10.5t-15 -10.5q-14 0 -14 9zM-34 288v26q0 11 6 18l28 28q16 14 16 -6v-30q0 -7 -10 -19l-25 -27q-5 -5 -10 -2.5t-5 12.5z" />
<glyph unicode="&#x59b;" d="M-232 138v627h464v-627h-464zM-189 178h378v540h-378v-540zM-100 590q0 3 9 16t33 28t53 15q45 0 77.5 -27t32.5 -70q0 -26 -10.5 -48t-23.5 -35.5t-30.5 -31.5t-25.5 -33q-3 -3 -5 -3q-8 -2 -26 -2q-14 0 -14 4q0 11 34 47.5t34 59.5q0 41 -21 66.5t-51 25.5 q-24 0 -37 -10.5t-15 -10.5q-14 0 -14 9zM-34 288v26q0 11 6 18l28 28q16 14 16 -6v-30q0 -7 -10 -19l-25 -27q-5 -5 -10 -2.5t-5 12.5z" />
<glyph unicode="&#x59c;" d="M-232 138v627h464v-627h-464zM-189 178h378v540h-378v-540zM-100 590q0 3 9 16t33 28t53 15q45 0 77.5 -27t32.5 -70q0 -26 -10.5 -48t-23.5 -35.5t-30.5 -31.5t-25.5 -33q-3 -3 -5 -3q-8 -2 -26 -2q-14 0 -14 4q0 11 34 47.5t34 59.5q0 41 -21 66.5t-51 25.5 q-24 0 -37 -10.5t-15 -10.5q-14 0 -14 9zM-34 288v26q0 11 6 18l28 28q16 14 16 -6v-30q0 -7 -10 -19l-25 -27q-5 -5 -10 -2.5t-5 12.5z" />
<glyph unicode="&#x59d;" d="M-232 138v627h464v-627h-464zM-189 178h378v540h-378v-540zM-100 590q0 3 9 16t33 28t53 15q45 0 77.5 -27t32.5 -70q0 -26 -10.5 -48t-23.5 -35.5t-30.5 -31.5t-25.5 -33q-3 -3 -5 -3q-8 -2 -26 -2q-14 0 -14 4q0 11 34 47.5t34 59.5q0 41 -21 66.5t-51 25.5 q-24 0 -37 -10.5t-15 -10.5q-14 0 -14 9zM-34 288v26q0 11 6 18l28 28q16 14 16 -6v-30q0 -7 -10 -19l-25 -27q-5 -5 -10 -2.5t-5 12.5z" />
<glyph unicode="&#x59e;" d="M-232 138v627h464v-627h-464zM-189 178h378v540h-378v-540zM-100 590q0 3 9 16t33 28t53 15q45 0 77.5 -27t32.5 -70q0 -26 -10.5 -48t-23.5 -35.5t-30.5 -31.5t-25.5 -33q-3 -3 -5 -3q-8 -2 -26 -2q-14 0 -14 4q0 11 34 47.5t34 59.5q0 41 -21 66.5t-51 25.5 q-24 0 -37 -10.5t-15 -10.5q-14 0 -14 9zM-34 288v26q0 11 6 18l28 28q16 14 16 -6v-30q0 -7 -10 -19l-25 -27q-5 -5 -10 -2.5t-5 12.5z" />
<glyph unicode="&#x59f;" d="M-232 138v627h464v-627h-464zM-189 178h378v540h-378v-540zM-100 590q0 3 9 16t33 28t53 15q45 0 77.5 -27t32.5 -70q0 -26 -10.5 -48t-23.5 -35.5t-30.5 -31.5t-25.5 -33q-3 -3 -5 -3q-8 -2 -26 -2q-14 0 -14 4q0 11 34 47.5t34 59.5q0 41 -21 66.5t-51 25.5 q-24 0 -37 -10.5t-15 -10.5q-14 0 -14 9zM-34 288v26q0 11 6 18l28 28q16 14 16 -6v-30q0 -7 -10 -19l-25 -27q-5 -5 -10 -2.5t-5 12.5z" />
<glyph unicode="&#x5a0;" d="M-232 138v627h464v-627h-464zM-189 178h378v540h-378v-540zM-100 590q0 3 9 16t33 28t53 15q45 0 77.5 -27t32.5 -70q0 -26 -10.5 -48t-23.5 -35.5t-30.5 -31.5t-25.5 -33q-3 -3 -5 -3q-8 -2 -26 -2q-14 0 -14 4q0 11 34 47.5t34 59.5q0 41 -21 66.5t-51 25.5 q-24 0 -37 -10.5t-15 -10.5q-14 0 -14 9zM-34 288v26q0 11 6 18l28 28q16 14 16 -6v-30q0 -7 -10 -19l-25 -27q-5 -5 -10 -2.5t-5 12.5z" />
<glyph unicode="&#x5a1;" d="M-232 138v627h464v-627h-464zM-189 178h378v540h-378v-540zM-100 590q0 3 9 16t33 28t53 15q45 0 77.5 -27t32.5 -70q0 -26 -10.5 -48t-23.5 -35.5t-30.5 -31.5t-25.5 -33q-3 -3 -5 -3q-8 -2 -26 -2q-14 0 -14 4q0 11 34 47.5t34 59.5q0 41 -21 66.5t-51 25.5 q-24 0 -37 -10.5t-15 -10.5q-14 0 -14 9zM-34 288v26q0 11 6 18l28 28q16 14 16 -6v-30q0 -7 -10 -19l-25 -27q-5 -5 -10 -2.5t-5 12.5z" />
<glyph unicode="&#x5a2;" d="M-232 138v627h464v-627h-464zM-189 178h378v540h-378v-540zM-100 590q0 3 9 16t33 28t53 15q45 0 77.5 -27t32.5 -70q0 -26 -10.5 -48t-23.5 -35.5t-30.5 -31.5t-25.5 -33q-3 -3 -5 -3q-8 -2 -26 -2q-14 0 -14 4q0 11 34 47.5t34 59.5q0 41 -21 66.5t-51 25.5 q-24 0 -37 -10.5t-15 -10.5q-14 0 -14 9zM-34 288v26q0 11 6 18l28 28q16 14 16 -6v-30q0 -7 -10 -19l-25 -27q-5 -5 -10 -2.5t-5 12.5z" />
<glyph unicode="&#x5a3;" d="M-232 138v627h464v-627h-464zM-189 178h378v540h-378v-540zM-100 590q0 3 9 16t33 28t53 15q45 0 77.5 -27t32.5 -70q0 -26 -10.5 -48t-23.5 -35.5t-30.5 -31.5t-25.5 -33q-3 -3 -5 -3q-8 -2 -26 -2q-14 0 -14 4q0 11 34 47.5t34 59.5q0 41 -21 66.5t-51 25.5 q-24 0 -37 -10.5t-15 -10.5q-14 0 -14 9zM-34 288v26q0 11 6 18l28 28q16 14 16 -6v-30q0 -7 -10 -19l-25 -27q-5 -5 -10 -2.5t-5 12.5z" />
<glyph unicode="&#x5a4;" d="M-232 138v627h464v-627h-464zM-189 178h378v540h-378v-540zM-100 590q0 3 9 16t33 28t53 15q45 0 77.5 -27t32.5 -70q0 -26 -10.5 -48t-23.5 -35.5t-30.5 -31.5t-25.5 -33q-3 -3 -5 -3q-8 -2 -26 -2q-14 0 -14 4q0 11 34 47.5t34 59.5q0 41 -21 66.5t-51 25.5 q-24 0 -37 -10.5t-15 -10.5q-14 0 -14 9zM-34 288v26q0 11 6 18l28 28q16 14 16 -6v-30q0 -7 -10 -19l-25 -27q-5 -5 -10 -2.5t-5 12.5z" />
<glyph unicode="&#x5a5;" d="M-232 138v627h464v-627h-464zM-189 178h378v540h-378v-540zM-100 590q0 3 9 16t33 28t53 15q45 0 77.5 -27t32.5 -70q0 -26 -10.5 -48t-23.5 -35.5t-30.5 -31.5t-25.5 -33q-3 -3 -5 -3q-8 -2 -26 -2q-14 0 -14 4q0 11 34 47.5t34 59.5q0 41 -21 66.5t-51 25.5 q-24 0 -37 -10.5t-15 -10.5q-14 0 -14 9zM-34 288v26q0 11 6 18l28 28q16 14 16 -6v-30q0 -7 -10 -19l-25 -27q-5 -5 -10 -2.5t-5 12.5z" />
<glyph unicode="&#x5a6;" d="M-232 138v627h464v-627h-464zM-189 178h378v540h-378v-540zM-100 590q0 3 9 16t33 28t53 15q45 0 77.5 -27t32.5 -70q0 -26 -10.5 -48t-23.5 -35.5t-30.5 -31.5t-25.5 -33q-3 -3 -5 -3q-8 -2 -26 -2q-14 0 -14 4q0 11 34 47.5t34 59.5q0 41 -21 66.5t-51 25.5 q-24 0 -37 -10.5t-15 -10.5q-14 0 -14 9zM-34 288v26q0 11 6 18l28 28q16 14 16 -6v-30q0 -7 -10 -19l-25 -27q-5 -5 -10 -2.5t-5 12.5z" />
<glyph unicode="&#x5a7;" d="M-232 138v627h464v-627h-464zM-189 178h378v540h-378v-540zM-100 590q0 3 9 16t33 28t53 15q45 0 77.5 -27t32.5 -70q0 -26 -10.5 -48t-23.5 -35.5t-30.5 -31.5t-25.5 -33q-3 -3 -5 -3q-8 -2 -26 -2q-14 0 -14 4q0 11 34 47.5t34 59.5q0 41 -21 66.5t-51 25.5 q-24 0 -37 -10.5t-15 -10.5q-14 0 -14 9zM-34 288v26q0 11 6 18l28 28q16 14 16 -6v-30q0 -7 -10 -19l-25 -27q-5 -5 -10 -2.5t-5 12.5z" />
<glyph unicode="&#x5a8;" d="M-232 138v627h464v-627h-464zM-189 178h378v540h-378v-540zM-100 590q0 3 9 16t33 28t53 15q45 0 77.5 -27t32.5 -70q0 -26 -10.5 -48t-23.5 -35.5t-30.5 -31.5t-25.5 -33q-3 -3 -5 -3q-8 -2 -26 -2q-14 0 -14 4q0 11 34 47.5t34 59.5q0 41 -21 66.5t-51 25.5 q-24 0 -37 -10.5t-15 -10.5q-14 0 -14 9zM-34 288v26q0 11 6 18l28 28q16 14 16 -6v-30q0 -7 -10 -19l-25 -27q-5 -5 -10 -2.5t-5 12.5z" />
<glyph unicode="&#x5a9;" d="M-232 138v627h464v-627h-464zM-189 178h378v540h-378v-540zM-100 590q0 3 9 16t33 28t53 15q45 0 77.5 -27t32.5 -70q0 -26 -10.5 -48t-23.5 -35.5t-30.5 -31.5t-25.5 -33q-3 -3 -5 -3q-8 -2 -26 -2q-14 0 -14 4q0 11 34 47.5t34 59.5q0 41 -21 66.5t-51 25.5 q-24 0 -37 -10.5t-15 -10.5q-14 0 -14 9zM-34 288v26q0 11 6 18l28 28q16 14 16 -6v-30q0 -7 -10 -19l-25 -27q-5 -5 -10 -2.5t-5 12.5z" />
<glyph unicode="&#x5aa;" d="M-232 138v627h464v-627h-464zM-189 178h378v540h-378v-540zM-100 590q0 3 9 16t33 28t53 15q45 0 77.5 -27t32.5 -70q0 -26 -10.5 -48t-23.5 -35.5t-30.5 -31.5t-25.5 -33q-3 -3 -5 -3q-8 -2 -26 -2q-14 0 -14 4q0 11 34 47.5t34 59.5q0 41 -21 66.5t-51 25.5 q-24 0 -37 -10.5t-15 -10.5q-14 0 -14 9zM-34 288v26q0 11 6 18l28 28q16 14 16 -6v-30q0 -7 -10 -19l-25 -27q-5 -5 -10 -2.5t-5 12.5z" />
<glyph unicode="&#x5ab;" d="M-232 138v627h464v-627h-464zM-189 178h378v540h-378v-540zM-100 590q0 3 9 16t33 28t53 15q45 0 77.5 -27t32.5 -70q0 -26 -10.5 -48t-23.5 -35.5t-30.5 -31.5t-25.5 -33q-3 -3 -5 -3q-8 -2 -26 -2q-14 0 -14 4q0 11 34 47.5t34 59.5q0 41 -21 66.5t-51 25.5 q-24 0 -37 -10.5t-15 -10.5q-14 0 -14 9zM-34 288v26q0 11 6 18l28 28q16 14 16 -6v-30q0 -7 -10 -19l-25 -27q-5 -5 -10 -2.5t-5 12.5z" />
<glyph unicode="&#x5ac;" d="M-232 138v627h464v-627h-464zM-189 178h378v540h-378v-540zM-100 590q0 3 9 16t33 28t53 15q45 0 77.5 -27t32.5 -70q0 -26 -10.5 -48t-23.5 -35.5t-30.5 -31.5t-25.5 -33q-3 -3 -5 -3q-8 -2 -26 -2q-14 0 -14 4q0 11 34 47.5t34 59.5q0 41 -21 66.5t-51 25.5 q-24 0 -37 -10.5t-15 -10.5q-14 0 -14 9zM-34 288v26q0 11 6 18l28 28q16 14 16 -6v-30q0 -7 -10 -19l-25 -27q-5 -5 -10 -2.5t-5 12.5z" />
<glyph unicode="&#x5ad;" d="M-232 138v627h464v-627h-464zM-189 178h378v540h-378v-540zM-100 590q0 3 9 16t33 28t53 15q45 0 77.5 -27t32.5 -70q0 -26 -10.5 -48t-23.5 -35.5t-30.5 -31.5t-25.5 -33q-3 -3 -5 -3q-8 -2 -26 -2q-14 0 -14 4q0 11 34 47.5t34 59.5q0 41 -21 66.5t-51 25.5 q-24 0 -37 -10.5t-15 -10.5q-14 0 -14 9zM-34 288v26q0 11 6 18l28 28q16 14 16 -6v-30q0 -7 -10 -19l-25 -27q-5 -5 -10 -2.5t-5 12.5z" />
<glyph unicode="&#x5ae;" d="M-232 138v627h464v-627h-464zM-189 178h378v540h-378v-540zM-100 590q0 3 9 16t33 28t53 15q45 0 77.5 -27t32.5 -70q0 -26 -10.5 -48t-23.5 -35.5t-30.5 -31.5t-25.5 -33q-3 -3 -5 -3q-8 -2 -26 -2q-14 0 -14 4q0 11 34 47.5t34 59.5q0 41 -21 66.5t-51 25.5 q-24 0 -37 -10.5t-15 -10.5q-14 0 -14 9zM-34 288v26q0 11 6 18l28 28q16 14 16 -6v-30q0 -7 -10 -19l-25 -27q-5 -5 -10 -2.5t-5 12.5z" />
<glyph unicode="&#x5af;" d="M-232 138v627h464v-627h-464zM-189 178h378v540h-378v-540zM-100 590q0 3 9 16t33 28t53 15q45 0 77.5 -27t32.5 -70q0 -26 -10.5 -48t-23.5 -35.5t-30.5 -31.5t-25.5 -33q-3 -3 -5 -3q-8 -2 -26 -2q-14 0 -14 4q0 11 34 47.5t34 59.5q0 41 -21 66.5t-51 25.5 q-24 0 -37 -10.5t-15 -10.5q-14 0 -14 9zM-34 288v26q0 11 6 18l28 28q16 14 16 -6v-30q0 -7 -10 -19l-25 -27q-5 -5 -10 -2.5t-5 12.5z" />
<glyph unicode="&#x5b0;" d="M-38 -219q0 33 19.5 54t52.5 21q48 0 83 -39.5t35 -91.5q0 -34 -18.5 -55t-51.5 -21q-48 0 -84 40t-36 92zM18 -464q0 34 19.5 55t52.5 21q48 0 84 -40t36 -92q0 -33 -19.5 -54t-52.5 -21q-49 0 -84.5 39.5t-35.5 91.5z" />
<glyph unicode="&#x5b1;" d="M-292 -219q0 33 19.5 54t51.5 21q48 0 84 -39.5t36 -91.5q0 -34 -19.5 -54.5t-53.5 -20.5q-46 0 -82 39.5t-36 91.5zM-121 -464q0 34 19 55t51 21q47 0 84 -39.5t37 -91.5q0 -33 -20 -54t-53 -21q-48 0 -83 39t-35 91zM-65 -218q0 33 18.5 53.5t51.5 20.5 q47 0 83.5 -39.5t36.5 -90.5q0 -34 -20 -55t-53 -21q-48 0 -82.5 40t-34.5 92zM187 -221q0 34 19.5 55t52.5 21q47 0 82.5 -39.5t35.5 -91.5q0 -34 -19 -54t-52 -20q-48 0 -83.5 38.5t-35.5 90.5zM243 -465q0 34 19.5 55t52.5 21q46 0 82.5 -40t36.5 -91q0 -33 -19 -53.5 t-52 -20.5q-48 0 -84 38.5t-36 90.5z" />
<glyph unicode="&#x5b2;" d="M-302 -178q0 14 10 17.5t41 3.5h296q38 0 49 -7t19 -39q0 -12 10.5 -49t10.5 -48q0 -13 -9 -16t-38 -3h-305q-37 0 -47 7t-18 42q-1 3 -8 34t-7 33q-4 13 -4 25zM188 -221q0 34 19 55t51 21q48 0 83.5 -39.5t35.5 -92.5q0 -33 -19 -54t-52 -21q-48 0 -83 39.5t-35 91.5z M244 -465q0 34 19 55t51 21q48 0 84 -39.5t36 -92.5q0 -34 -19.5 -54.5t-52.5 -20.5q-47 0 -82.5 39.5t-35.5 91.5z" />
<glyph unicode="&#x5b3;" d="M-303 -174q0 15 10 18.5t41 3.5h296q37 0 48 -7t18 -39q2 -7 8 -28.5t10.5 -40t4.5 -27.5q0 -13 -9.5 -16.5t-38.5 -3.5h-100l12 -52q2 -7 10.5 -27t11.5 -23l69 -82q-14 -65 -59 -92h-66q-24 11 -44.5 28t-31 29.5t-25.5 34.5l31 82q2 3 2 24t-2 26l-12 52h-100 q-37 0 -47 7t-18 41q-19 76 -19 92zM184 -209q0 34 19.5 54.5t52.5 20.5q48 0 83.5 -39.5t35.5 -92.5q0 -34 -19.5 -54.5t-52.5 -20.5q-47 0 -83 40t-36 92zM241 -454q0 34 19 55t52 21q48 0 83.5 -39.5t35.5 -92.5q0 -34 -19 -54.5t-52 -20.5q-48 0 -83.5 39t-35.5 92z" />
<glyph unicode="&#x5b4;" d="M-39 -220q0 34 20 55t53 21q47 0 83.5 -39.5t36.5 -91.5q0 -34 -20.5 -55t-52.5 -21q-48 0 -84 39.5t-36 91.5z" />
<glyph unicode="&#x5b5;" d="M-151 -219q0 34 19.5 54.5t52.5 20.5q47 0 83 -39.5t36 -91.5q0 -34 -19.5 -55t-52.5 -21q-48 0 -83.5 39.5t-35.5 92.5zM75 -219q0 34 19.5 54.5t52.5 20.5q48 0 83.5 -40t35.5 -91q0 -34 -19.5 -55t-52.5 -21q-47 0 -83 40t-36 92z" />
<glyph unicode="&#x5b6;" d="M-153 -219q0 34 19.5 54.5t52.5 20.5q47 0 83 -39.5t36 -91.5q0 -34 -19.5 -55t-52.5 -21q-48 0 -83.5 39.5t-35.5 92.5zM13 -454q0 34 20 55t53 21q48 0 83.5 -39.5t35.5 -92.5q0 -33 -19 -54t-52 -21q-48 0 -84.5 40t-36.5 91zM73 -219q0 34 19.5 54.5t52.5 20.5 q48 0 83.5 -40t35.5 -91q0 -34 -19.5 -55t-52.5 -21q-47 0 -83 40t-36 92z" />
<glyph unicode="&#x5b7;" d="M-166 -165q0 14 10.5 17.5t40.5 3.5h296q38 0 49.5 -7t18.5 -39q21 -63 21 -97q0 -13 -9 -16t-37 -3h-305q-37 0 -47.5 7.5t-17.5 41.5q-20 60 -20 92z" />
<glyph unicode="&#x5b8;" d="M-167 -164q0 14 10.5 17.5t40.5 3.5h296q38 0 49.5 -7t18.5 -39q21 -63 21 -97q0 -13 -9 -16t-37 -3h-101l12 -52q1 -6 9.5 -26.5t12.5 -23.5l69 -81q-4 -20 -8 -32t-17 -30t-34 -30h-6h-12h-10l-4 -1q-1 0 -5.5 0.5t-11 0.5h-11.5h-6q-24 11 -44 27.5t-30.5 29 t-25.5 34.5l30 82q2 6 1.5 25t-1.5 25l-12 52h-100q-37 0 -47.5 7.5t-17.5 41.5q-20 60 -20 92z" />
<glyph unicode="&#x5b9;" d="M-411 1394q0 34 19.5 55t52.5 21q48 0 83.5 -40t35.5 -92q0 -34 -19.5 -55t-51.5 -21q-48 0 -84 40.5t-36 91.5z" />
<glyph unicode="&#x5ba;" d="M-411 1393q0 34 19.5 55t52.5 21q48 0 83.5 -40t35.5 -92q0 -34 -19.5 -55t-51.5 -21q-48 0 -84 40.5t-36 91.5z" />
<glyph unicode="&#x5bb;" d="M-190 -219q0 31 17.5 51.5t49.5 20.5q42 0 76.5 -36.5t34.5 -84.5q0 -31 -18.5 -51.5t-48.5 -20.5q-44 0 -77.5 37t-33.5 84zM-3 -354q0 31 17.5 51.5t49.5 20.5q44 0 77.5 -36.5t33.5 -84.5q0 -31 -18 -51t-49 -20q-43 0 -77 36.5t-34 83.5zM188 -490q0 31 17 51.5 t48 20.5q44 0 77.5 -37t33.5 -85q0 -31 -18 -50.5t-49 -19.5q-43 0 -76 36.5t-33 83.5z" />
<glyph unicode="&#x5bc;" d="M-222 578q0 33 19 54t52 21q48 0 83.5 -39.5t35.5 -91.5q0 -34 -19.5 -55.5t-51.5 -21.5q-48 0 -83.5 40t-35.5 93z" />
<glyph unicode="&#x5bd;" d="M-232 138v627h464v-627h-464zM-189 178h378v540h-378v-540zM-100 590q0 3 9 16t33 28t53 15q45 0 77.5 -27t32.5 -70q0 -26 -10.5 -48t-23.5 -35.5t-30.5 -31.5t-25.5 -33q-3 -3 -5 -3q-8 -2 -26 -2q-14 0 -14 4q0 11 34 47.5t34 59.5q0 41 -21 66.5t-51 25.5 q-24 0 -37 -10.5t-15 -10.5q-14 0 -14 9zM-34 288v26q0 11 6 18l28 28q16 14 16 -6v-30q0 -7 -10 -19l-25 -27q-5 -5 -10 -2.5t-5 12.5z" />
<glyph unicode="&#x5be;" horiz-adv-x="1051" d="M-93 1047q0 21 14 26t55 5h613q59 0 77.5 -11t29.5 -62q0 -2 6.5 -28t12.5 -51t6 -27q8 -34 8 -47q0 -20 -14.5 -25t-58.5 -5h-615q-57 0 -73.5 13t-29.5 68q-8 19 -25 106q-6 24 -6 38z" />
<glyph unicode="&#x5bf;" d="M-539 1361q0 15 11.5 18.5t45.5 3.5h326q42 0 54 -7t19 -39q21 -63 21 -96q0 -13 -10 -16.5t-42 -3.5h-335q-41 0 -52 7.5t-19 41.5q-19 57 -19 91z" />
<glyph unicode="&#x5c0;" d="M-232 138v627h464v-627h-464zM-189 178h378v540h-378v-540zM-100 590q0 3 9 16t33 28t53 15q45 0 77.5 -27t32.5 -70q0 -26 -10.5 -48t-23.5 -35.5t-30.5 -31.5t-25.5 -33q-3 -3 -5 -3q-8 -2 -26 -2q-14 0 -14 4q0 11 34 47.5t34 59.5q0 41 -21 66.5t-51 25.5 q-24 0 -37 -10.5t-15 -10.5q-14 0 -14 9zM-34 288v26q0 11 6 18l28 28q16 14 16 -6v-30q0 -7 -10 -19l-25 -27q-5 -5 -10 -2.5t-5 12.5z" />
<glyph unicode="&#x5c1;" d="M-372 1221q0 34 19.5 55t53.5 21q48 0 84 -39.5t36 -90.5q0 -34 -20 -55.5t-53 -21.5q-47 0 -83.5 39.5t-36.5 91.5z" />
<glyph unicode="&#x5c2;" d="M-372 1221q0 34 19.5 55t53.5 21q48 0 84 -39.5t36 -90.5q0 -34 -20 -55.5t-53 -21.5q-47 0 -83.5 39.5t-36.5 91.5z" />
<glyph unicode="&#x5c3;" horiz-adv-x="561" d="M-105 893q0 28 52 98q33 44 50.5 60.5t35.5 16.5t42 -16t79 -61q55 -44 76.5 -65.5t25.5 -39.5q1 -3 1 -9q0 -24 -54 -93q-35 -44 -51.5 -60t-34.5 -16t-41.5 15.5t-79.5 60.5q-9 8 -26 21t-23.5 18.5t-17.5 15t-15.5 14.5t-10 12.5t-7 14t-1.5 13.5zM58 188q0 25 53 95 q33 44 50.5 60.5t35.5 16.5t42 -16t79 -61q56 -45 77 -65.5t25 -38.5q0 -1 0.5 -4t0.5 -5q0 -16 -12 -35t-43 -59q-35 -44 -51.5 -60t-34.5 -16t-41.5 15.5t-79.5 60.5q-8 6 -20.5 16t-18.5 14.5t-15.5 12.5t-14 12.5l-11 11t-9.5 11.5t-6.5 11t-4.5 11.5t-1 11.5z" />
<glyph unicode="&#x5c4;" d="M-232 138v627h464v-627h-464zM-189 178h378v540h-378v-540zM-100 590q0 3 9 16t33 28t53 15q45 0 77.5 -27t32.5 -70q0 -26 -10.5 -48t-23.5 -35.5t-30.5 -31.5t-25.5 -33q-3 -3 -5 -3q-8 -2 -26 -2q-14 0 -14 4q0 11 34 47.5t34 59.5q0 41 -21 66.5t-51 25.5 q-24 0 -37 -10.5t-15 -10.5q-14 0 -14 9zM-34 288v26q0 11 6 18l28 28q16 14 16 -6v-30q0 -7 -10 -19l-25 -27q-5 -5 -10 -2.5t-5 12.5z" />
<glyph unicode="&#x5c5;" d="M-232 138v627h464v-627h-464zM-189 178h378v540h-378v-540zM-100 590q0 3 9 16t33 28t53 15q45 0 77.5 -27t32.5 -70q0 -26 -10.5 -48t-23.5 -35.5t-30.5 -31.5t-25.5 -33q-3 -3 -5 -3q-8 -2 -26 -2q-14 0 -14 4q0 11 34 47.5t34 59.5q0 41 -21 66.5t-51 25.5 q-24 0 -37 -10.5t-15 -10.5q-14 0 -14 9zM-34 288v26q0 11 6 18l28 28q16 14 16 -6v-30q0 -7 -10 -19l-25 -27q-5 -5 -10 -2.5t-5 12.5z" />
<glyph unicode="&#x5c6;" horiz-adv-x="824" d="M-121 987q0 33 18.5 50.5t66.5 33.5q21 5 62.5 11.5t75.5 14t64 18.5q32 9 55.5 25.5t54 48t39.5 39.5q6 8 13 8q18 0 40 -38.5t30 -76.5l31 -133q11 -47 11 -68q0 -27 -19.5 -40t-85.5 -37q-54 -21 -70 -36t-16 -53q0 -20 7 -78l33 -268l9 -38q10 -45 21.5 -62.5 t37.5 -24.5t87 -7l103 -8q34 -3 50 -5t33.5 -9.5t23.5 -13t15.5 -25.5t13 -36.5t12.5 -54.5q19 -83 19 -103q0 -25 -13 -34.5t-45 -9.5q-23 0 -91 7l-200 24q-106 17 -128 28q-31 14 -45 58q-7 20 -19 72l-129 556q-11 47 -20 62t-32 15q-12 0 -30 -3q-9 -10 -18 -10 q-25 0 -47 94q-18 79 -18 107z" />
<glyph unicode="&#x5c7;" d="M-138 -162q0 13 8.5 16t33.5 3h252q33 0 43 -7t17 -39q22 -81 22 -99q0 -11 -8.5 -14t-31.5 -3h-86l12 -52q20 -70 28 -78l62 -81q0 -2 -2 -11t-2.5 -12t-3 -12t-4.5 -13t-5.5 -11.5t-7.5 -12t-10 -10t-13 -10.5h-4h-10.5t-9 -0.5t-4.5 -0.5l-8 1h-14h-6q-47 25 -90 91 l24 82v5q0 12 -3 40.5t-5 32.5l-12 52h-84q-32 0 -41.5 7.5t-16.5 41.5q-20 63 -20 94z" />
<glyph unicode="&#x5d0;" horiz-adv-x="1335" d="M-134 1165q0 15 7 27.5t16 12.5l628 -459q31 0 65 94l83 218q23 59 40.5 83.5t37.5 24.5q10 0 24 -6.5t26.5 -15t36 -24.5t41.5 -28q30 -19 48.5 -32t33.5 -30t21.5 -24t14.5 -32t10 -34.5t11 -49.5q2 -9 7.5 -30.5t8.5 -35.5t6 -31.5t3 -30.5q0 -31 -26 -31 q-13 0 -107 45t-119 45q-27 0 -66.5 -66.5t-40.5 -102.5l281 -218q46 -35 71.5 -54t49 -43.5t32.5 -36.5t20.5 -41.5t16 -47.5t15.5 -66q21 -94 21 -124q0 -14 -8 -28t-16 -14l-930 690q-10 0 -22 -14.5t-9 -29.5l50 -271q10 -53 27.5 -68.5t65.5 -15.5h60q72 0 94 -20 t39 -100q15 -71 15 -88q0 -38 -35 -50t-138 -12h-47.5t-38.5 1.5t-33 3.5t-25.5 7.5t-22.5 12t-17 18.5t-16 25t-13 33.5t-13.5 43t-12.5 53.5q-30 129 -61 304t-61 304q-56 32 -67 44q-20 22 -38 99q-3 14 -9 39q-35 153 -35 177z" />
<glyph unicode="&#x5d1;" horiz-adv-x="1152" d="M-97 1125v8q0 31 12 69q67 -65 173 -79l424 -54q37 -4 54 -5.5t42.5 -6t35 -6t26 -9t21.5 -11.5t15.5 -17t13.5 -21t10.5 -29t11 -35.5t11.5 -44.5l98 -383q8 -28 15 -53.5t10 -41t6 -29t4.5 -20t4 -11.5t6 -6.5t9.5 -1.5q36 0 50 -1.5t30.5 -11.5t24 -30t16.5 -59 l10 -47q15 -73 15 -89q0 -32 -27 -45.5t-107 -23.5l-650 -78q-75 -11 -99 -11q-45 0 -67.5 28t-36.5 107q-3 18 -8.5 41.5t-8.5 39.5t-3 27q0 28 23 42.5t84 21.5l430 48q24 4 55.5 7t44.5 5t27.5 6.5t19 12t4.5 21.5t-4 30q-1 4 -20 66l-66 212q-31 103 -63 130.5 t-138 40.5l-426 50q-9 2 -23 4t-18.5 4t-12 9.5t-12 23.5t-11.5 44q-1 2 -8 34z" />
<glyph unicode="&#x5d2;" horiz-adv-x="795" d="M-68 1141q0 50 34 69q61 -49 93 -60l269 -96q57 -22 71 -37t27 -72q13 -60 13 -73q0 -15 -25 -92q-8 -26 -8 -50q0 -8 2 -14l82 -183q54 36 68 36q2 1 4 1q8 0 17 -19.5t16.5 -49.5t13.5 -58.5t11 -55t6 -30.5q0 -27 -26 -63l83 -169q0 -23 -45 -83.5t-65 -61.5 q-19 0 -42.5 43t-71.5 158l-343 -284q-21 0 -48.5 98.5t-27.5 139.5q0 29 15.5 47.5t63.5 56.5l239 186l-90 230q-4 9 -4 24q0 16 5.5 46t5.5 39q0 49 -48 65l-145 51q-43 15 -58.5 20.5t-29 19.5t-16 23.5t-10.5 41.5z" />
<glyph unicode="&#x5d3;" horiz-adv-x="1171" d="M-137 1149q0 37 28 52q72 -72 144 -72h572q24 0 46 9.5t52 28.5t43 26q27 -14 43 -51.5t29.5 -108.5t16.5 -81q6 -21 6 -34q0 -20 -16.5 -31t-66.5 -27l177 -628q3 -12 11 -36.5t11.5 -41t3.5 -35.5t-10 -38t-22 -33t-47 -52l-9.5 -9.5l-9 -9l-7.5 -7.5t-7 -6.5t-6 -4.5 t-5.5 -3t-5.5 -1q-15 0 -27.5 38.5t-39.5 156.5l-143 621q-6 28 -9 39t-10.5 25t-13 17.5t-21.5 8t-32.5 5t-47.5 0.5h-438q-52 0 -75.5 1.5t-41 14.5t-22 28.5t-13.5 55.5l-33 149q-4 16 -4 34z" />
<glyph unicode="&#x5d4;" horiz-adv-x="1319" d="M-123 1144q0 39 28 54q73 -72 145 -72l724 6q24 0 40.5 6.5t39.5 22t36 22.5q11 0 29 -25t23 -49l33 -149q9 -36 9 -49q0 -18 -12.5 -29t-44.5 -19l177 -628q3 -12 8.5 -29.5t8.5 -28t5.5 -25.5t2.5 -30q0 -19 -10.5 -38.5t-21 -32t-47.5 -51.5q-4 -4 -10.5 -11 t-10 -10.5l-8 -8t-7.5 -7t-6.5 -4t-6.5 -1.5q-15 0 -27.5 38.5t-39.5 156.5l-144 621q-9 62 -31 78.5t-84 16.5h-19l-589 -6q-7 0 -18 -0.5t-16 -0.5q-68 0 -86 17t-32 84l-34 149q-4 24 -4 32zM37 561q0 41 41 99q43 62 59 62q4 0 8 -3t8 -10t7 -14.5t7.5 -21.5t8 -26.5 t9.5 -33t11 -37.5l112 -372q4 -13 10.5 -34t9.5 -33t6 -29t3 -34q0 -24 -10.5 -39.5t-41.5 -46.5l-9 -9q-58 -56 -77 -56q-5 0 -8.5 2t-7.5 6.5t-6.5 10t-6 15.5t-6 18.5t-6 23.5t-6 27.5t-7 32t-8.5 35.5l-81 352q-19 95 -19 115z" />
<glyph unicode="&#x5d5;" horiz-adv-x="648" d="M-165 1177q0 47 26 47h4q49 -49 96 -63l144 -45q91 -28 138 -86t60 -112l199 -860l7 -73q-2 -19 -20.5 -31t-37.5 -12q-20 0 -38 16t-27 46l-219 734q-10 29 -17 44t-22.5 34.5t-41 32.5t-65.5 25q-74 22 -105.5 43t-40.5 61l-33 149q-7 23 -7 50z" />
<glyph unicode="&#x5d6;" horiz-adv-x="637" d="M-161 1188q0 41 17 41h4q50 -53 111 -73l231 -76q57 -19 70.5 -32.5t23.5 -62.5l14 -69q-1 -2 0.5 -11.5t-0.5 -20.5t-9 -20q-17 -20 -38 -30t-34.5 -11.5t-23 -13t-9.5 -37.5q0 -18 17 -67q45 -123 91 -213t84 -170t76 -205q3 -12 3 -23q0 -16 -6.5 -33t-14.5 -30 t-21.5 -29t-22 -24t-22 -21t-15.5 -14q-15 -15 -23 -15q-10 0 -25 41l-3 9l-216 607q0 2 -7.5 24.5t-13.5 45.5t-6 36v3q1 17 6 46.5t5 45.5q0 20 -5 38q-4 16 -18.5 27.5t-25.5 15.5t-36.5 10.5t-30.5 8.5q-38 11 -59.5 35.5t-34.5 80.5l-30 129q0 5 -1.5 25t-1.5 32z" />
<glyph unicode="&#x5d7;" horiz-adv-x="1267" d="M-123 1141q0 20 6.5 36t14.5 16q12 -5 52.5 -25t66 -28.5t49.5 -8.5h639q23 0 39 8t34.5 23.5t35.5 24.5q11 0 29 -25t23 -49l33 -149q3 -16 10.5 -37t7.5 -28q0 -22 -61 -37l242 -633q2 -7 7.5 -23.5t7.5 -24t5 -20t4 -23t1 -22.5q0 -28 -15 -50t-63 -73l-9.5 -9.5 l-9 -9l-7.5 -7.5t-7 -6.5t-6 -4.5t-5.5 -3t-5.5 -1q-4 0 -8 3t-8 11.5t-8 18t-9.5 27.5t-10.5 35t-14 46t-17 55l-183 600q-11 39 -19 56.5t-24 34.5t-41 22t-67 5h-280q-60 0 -81.5 -13.5t-21.5 -46.5q0 -18 7 -60l94 -600q5 -37 12 -79t10.5 -64.5t3.5 -33.5 q0 -19 -10 -19q-11 0 -69 41q-96 68 -113 85q-34 33 -43 91q-3 21 -6 60l-51 633q-74 19 -93 37.5t-31 72.5l-34 149q-3 11 -3 22z" />
<glyph unicode="&#x5d8;" horiz-adv-x="1240" d="M-159 1203q0 15 8 15q58 -34 92.5 -52.5t92.5 -40.5t115 -32q98 -17 119 -53q37 -62 37 -114q0 -37 -20.5 -74t-45 -61.5t-45 -53.5t-20.5 -52v-7q7 -52 21.5 -101.5t24.5 -75t38.5 -89.5t39.5 -89q9 -18 29.5 -36.5t34.5 -18.5q152 0 257.5 23t221.5 78q33 25 33 64 q0 20 -10 67l-57 246q-21 61 -53 90t-97 29q-22 0 -40 -8q-13 -16 -14 -50t-12 -58q-4 -20 -23.5 -32t-43.5 -12q-58 0 -71 56l-61 267q-10 27 -10 46q0 42 55 42q82 0 149 -7t135 -27.5t116.5 -53.5t83.5 -88.5t45 -129.5l59 -422q1 -7 1 -21q0 -29 -7 -70t-14.5 -71.5 t-18 -68.5t-12.5 -47q-107 -54 -336 -105.5t-357 -51.5q-31 0 -82 147l-141 397q-3 15 -11.5 40.5t-13.5 48.5t-5 49q0 22 22 84t22 97q0 16 -50 36q-6 2 -14.5 5.5t-11.5 5t-9.5 4.5t-10 5t-10 6t-13 9t-15.5 12q-5 7 -14.5 16.5t-12.5 14.5t-9 15.5t-10.5 25t-9.5 37.5 l-31 137q-10 41 -10 58z" />
<glyph unicode="&#x5d9;" horiz-adv-x="669" d="M-145 1159q0 58 16 58q7 0 12 -8q8 -10 16.5 -19t16 -14.5t19 -11.5t18 -8.5t21.5 -8t21 -8.5q41 -17 131 -48t119 -41q75 -28 98.5 -70.5t23.5 -134.5q0 -99 -17.5 -204t-47.5 -146q-29 -39 -57 -60t-46 -21q-13 0 -19.5 16.5t-5.5 37.5l8 269q-2 38 -25.5 59.5t-53 27 t-68 15t-59.5 24.5q-5 3 -16 10.5t-15 10.5t-12.5 10.5t-12.5 14.5t-10.5 18t-11 25.5t-8.5 33.5l-32 139q-3 13 -3 34z" />
<glyph unicode="&#x5da;" horiz-adv-x="1172" d="M-139 1150q0 33 28 51q72 -72 144 -72h572q24 0 46 9.5t52 28.5t43 26q28 -14 43.5 -53.5t27.5 -104t18 -83.5q5 -20 5 -32q0 -21 -17.5 -34t-64.5 -26l323 -1181q3 -11 8.5 -27.5l8.5 -25.5t5.5 -23t2.5 -28q0 -13 -3 -23.5t-12.5 -23.5t-16.5 -21t-27 -28l-32 -32 q-39 -41 -51 -41q-14 0 -27 40t-40 155l-275 1170q-6 28 -9 39t-10.5 25t-13 17.5t-21.5 8t-32.5 5t-47.5 0.5h-438h-34q-69 0 -86.5 17t-31.5 83l-33 149q-4 19 -4 35z" />
<glyph unicode="&#x5db;" horiz-adv-x="1087" d="M-111 1155q0 33 29 51q63 -63 144 -72l477 -57q78 -9 119 -37.5t74 -85.5v2q44 -87 84.5 -206.5t59 -190.5t56.5 -225q7 -28 7 -63q0 -89 -45.5 -166t-116.5 -90q-398 -69 -621 -69q-16 0 -28.5 7t-20 16t-14 27.5t-9.5 30.5t-8 36t-7 34q-18 70 -18 93q0 31 24 42t95 18 l475 50q77 5 107.5 22t30.5 49q0 24 -24 92q-41 119 -117 242q-30 49 -47.5 65.5t-45.5 24.5t-103 17l-367 41q-64 5 -91.5 16t-38.5 30.5t-22 71.5l-34 149q-4 28 -4 35z" />
<glyph unicode="&#x5dc;" horiz-adv-x="1065" d="M-434 1978q0 41 20 41q14 0 32 -20t34 -52q19 -39 84 -73q19 -10 35 -19.5t28.5 -22.5t21 -21.5t16.5 -26t12.5 -26t10 -31.5t7.5 -31.5t8 -37.5t8 -39l78 -373q16 -70 31 -86t74 -16q445 -4 448 -4q54 0 83 -4.5t52.5 -24t36.5 -45t36 -82.5l96 -242q40 -102 40 -156 t-29 -97l-161 -241q-14 -26 -14 -50q0 -13 8 -37t8 -32q0 -16 -18 -33l-127 -114q-40 -37 -57 -37q-18 0 -26 44t-8 84q0 78 50 169l214 392q-20 95 -73 175q-30 47 -59.5 56.5t-127.5 9.5h-366q-50 0 -76 4.5t-48.5 24t-36 52.5t-29.5 95q-22 86 -56.5 249t-41.5 194 q-14 61 -35 92.5t-71 65.5q-58 40 -75 125l-30 141q-7 35 -7 60z" />
<glyph unicode="&#x5dd;" horiz-adv-x="1241" d="M-130 1152q0 63 19 63q3 0 5 -1q55 -48 104 -66t121 -19l522 -3q65 -1 101.5 -9t66.5 -33.5t48 -67t40 -117.5l190 -667q7 -25 7 -50q0 -87 -78 -134.5t-183 -47.5h-514q-85 0 -127.5 31.5t-62.5 122.5l-113 512q-3 16 -3 34q0 60 46 130q3 8 3 14q0 16 -19.5 21t-43.5 4 t-47 7t-28 28l-51 205q-3 18 -3 43zM149 732q0 -58 25 -138l69 -220q29 -83 46.5 -99t84.5 -16h7l438 1q29 0 41 0.5t25 3.5t16.5 9t3.5 17q0 22 -18 92q-18 66 -31 121t-25 100t-39 137q-8 26 -12.5 41t-12.5 30.5t-12.5 22.5t-17 14.5t-21.5 9.5t-30.5 4.5t-38 2.5h-50.5 h-355q-93 -22 -93 -133z" />
<glyph unicode="&#x5de;" horiz-adv-x="1294" d="M-101 1196q0 47 17 53q17 -4 37 -20q16 -12 70 -62.5t101 -89.5l13 -11q13 -11 24 -19t27.5 -18.5t34.5 -16.5t35 -6q18 0 52.5 24t68.5 53t82 53t91 24q31 0 68.5 -12t83 -37t65.5 -37.5t62 -39.5q53 -34 103 -97.5t63 -119.5l127 -563q25 -106 25 -142q0 -37 -23 -48 t-98 -20l-447 -53q-62 -5 -89 -5h-4q-45 0 -60.5 17.5t-15.5 57.5q0 11 1.5 35.5t1.5 32.5q1 30 3 48.5t3.5 34t7.5 23.5t9.5 14t15.5 8.5t19.5 4t27.5 3.5t34 4l291 41q66 5 85 11t19 30q0 14 -3 29t-10.5 38.5t-9.5 29.5l-87 269q-14 43 -28 61.5t-56 42.5 q-51 30 -78.5 37.5t-75.5 7.5h-70q-79 0 -147.5 -56.5t-104.5 -132t-36 -141.5q0 -171 44 -355q8 -30 8 -51q0 -52 -44 -86q-27 -21 -58.5 -32.5t-46.5 -11.5q-12 0 -19 16t-18 62q-60 255 -60 397q0 166 63 297q0 4 0.5 9.5t0.5 7.5q0 7 -2 11t-3.5 5.5t-11.5 7t-16 9.5 q-44 27 -67.5 55t-40.5 73q-15 20 -34.5 104.5t-19.5 141.5z" />
<glyph unicode="&#x5df;" horiz-adv-x="634" d="M-159 1189q0 57 15 57q4 0 10 -6q44 -50 99 -68l259 -86q54 -22 77.5 -57.5t23.5 -100.5q0 -42 -22.5 -109t-22.5 -69q-22 -100 -22 -189q0 -83 19 -150l192 -663q7 -28 23 -75t16 -66q0 -43 -69 -104q-62 -54 -81 -54q-17 0 -28 27t-30 103q-1 6 -2 9l-181 719 q-38 154 -38 242q0 58 20.5 141t22.5 96q-2 32 -16.5 50t-51.5 32q-17 6 -46 17q-77 28 -97 41t-27 45l-40 174q-3 19 -3 44z" />
<glyph unicode="&#x5e0;" horiz-adv-x="800" d="M-25 1223q0 33 15 33q10 0 24 -13q10 -9 31.5 -30.5t41 -35.5t50.5 -27l130 -54q53 -17 91.5 -43.5t60.5 -61t33 -62.5t20 -67l160 -688q21 -94 21 -123q0 -34 -23 -44.5t-96 -19.5q-7 -1 -11 -1l-310 -37q-58 -6 -70 -6q-36 0 -53.5 21t-29.5 83l-10 42q-16 82 -16 98 q0 32 21.5 41.5t94.5 17.5l207 25q35 5 50 8.5t24 11.5t9 24q0 27 -20 101l-78 282q-22 97 -107 133l-104 43q-57 24 -76.5 43t-33.5 78l-38 166q-8 35 -8 62z" />
<glyph unicode="&#x5e1;" horiz-adv-x="1196" d="M-148 1212q0 33 29 50q72 -70 145 -79l585 -70q76 -11 127 -29t80.5 -44.5t43.5 -54.5t23 -70l101 -483q6 -34 6 -40q0 -4 -2 -14q-1 -114 -30.5 -174t-101.5 -84l-102 -35l-347 -85q-127 -33 -158 -33q-39 0 -54.5 26.5t-39.5 110.5l-175 622v9q0 18 20 70.5t20 68.5 q0 18 -12 25.5t-34.5 12t-33.5 10.5q-22 6 -27.5 14t-14.5 49q-5 23 -19 69.5t-21.5 84t-7.5 73.5zM122 754q0 -41 30 -110l110 -254q36 -89 53.5 -116t48.5 -27q25 0 108 31l222 85q69 23 91 39t22 51q0 16 -5 46l-49 253q-23 98 -143 108l-317 26q-3 0 -9 0.5t-8 0.5 q-67 0 -110.5 -35t-43.5 -98z" />
<glyph unicode="&#x5e2;" horiz-adv-x="1149" d="M-132 1180q0 34 12.5 69t24.5 35q6 0 10 -18q13 -59 90 -117l170 -126q16 -13 39 -30.5t32.5 -25t20 -19.5t14 -23t3.5 -26q0 -23 -17.5 -101.5t-17.5 -108.5q0 -19 5.5 -34.5t10 -23t24 -30.5t28.5 -35l135 -171q76 -99 122 -99q41 0 55 81l49 283q9 57 9 85 q0 12 -1 20.5t-6.5 17.5t-8.5 14t-15 14.5t-18.5 14.5t-26 18t-30.5 21q-60 42 -77.5 68t-35.5 102l-27 116q-1 6 -1 21q0 33 12.5 65.5t24.5 32.5q7 0 11 -19q9 -36 103 -105l158 -118q23 -21 50.5 -42t39.5 -30t21 -25t9 -37q0 -70 -25 -174.5t-26 -147.5l-7 -311 q-1 -36 -1 -52t-4 -39t-5.5 -30.5t-13 -22.5t-17.5 -19t-28 -16t-37 -18t-51 -20l-389 -156q-18 -7 -50 -20t-48.5 -18.5t-30.5 -5.5q-2 0 -4 -0.5t-3 -0.5q-36 0 -62 84.5t-26 146.5q0 36 28.5 56.5t110.5 47.5q73 24 103 46t30 49q0 11 -3.5 23.5t-12.5 29t-16 29 t-22 37.5t-24 39l-75 128q-47 83 -51 103v30v5q0 66 -13 87t-89 81q-58 46 -71 63q-20 27 -34 90q-4 17 -13.5 49.5t-15 59.5t-5.5 53z" />
<glyph unicode="&#x5e3;" horiz-adv-x="1107" d="M-45 546q0 9 4 55l54 524q17 136 33 136q80 -108 145 -126l425 -118q38 -11 54.5 -15.5t36.5 -15t26 -16t15.5 -24t13.5 -32.5t13 -48l321 -1208q20 -90 20 -100q0 -26 -13 -47.5t-49 -59.5q-62 -67 -79 -67q-15 0 -24.5 27.5t-29.5 110.5l-278 1173q-15 61 -34.5 77 t-86.5 32l-316 78q-25 7 -37 4q-14 -4 -35 -47.5t-21 -79.5q0 -33 21 -46l130 -41q46 -10 64 -29t24 -59q16 -91 16 -123q0 -42 -23 -42q-15 0 -70 11l-197 38q-87 18 -102 29q-21 13 -21 49z" />
<glyph unicode="&#x5e4;" horiz-adv-x="1089" d="M-16 535q0 18 5 56l54 524q1 9 4 32t5 37.5t5.5 31.5t8 26t10.5 9q80 -112 144 -126l332 -71q93 -20 153 -77.5t83 -133.5l144 -467q12 -45 12 -92q0 -98 -42.5 -177t-97.5 -85l-6 1l-536 -68q-12 -1 -30 -3t-31 -3.5t-24 -1.5q-36 0 -57 19t-34 71q-24 117 -25 148 q0 34 26 46t109 21l482 58q62 1 86 8.5t24 27.5q0 16 -14 47l-141 333q-42 67 -173 87l-240 38q-24 7 -37 4q-13 -2 -27 -35t-14 -65q0 -38 22 -52l129 -41q47 -11 63.5 -29t24.5 -59q17 -87 17 -122q0 -43 -23 -43q-16 0 -71 11l-197 38q-82 16 -102.5 27.5t-20.5 49.5z " />
<glyph unicode="&#x5e5;" horiz-adv-x="1056" d="M-143 1132q0 56 38 99q15 -53 67 -88l206 -140q63 -43 83.5 -64t20.5 -52q0 -21 -37.5 -139t-37.5 -142q0 -5 1 -7q0 -24 10 -57l21 -70q8 -14 12 -14q10 0 40 90l170 481q24 68 39 94t34 26q22 0 98 -57q77 -57 96 -82.5t36 -100.5l10 -44q30 -126 30 -154 q0 -21 -12 -21h-2q-12 0 -85.5 50.5t-87.5 50.5l-2 -1q-14 0 -24.5 -15t-28.5 -54q-4 -10 -7 -16l-179 -386q-36 -65 -36 -111q0 -10 1.5 -20.5t3 -17.5t6.5 -21.5t7 -20t10 -25.5t10 -26l109 -284q3 -10 11 -32.5t11 -31.5t7.5 -24.5t6 -27t1.5 -23.5q0 -55 -55 -117 q-40 -45 -59.5 -64t-32.5 -19q-16 0 -27.5 29.5t-31.5 109.5q-6 26 -10 40l-251 956v6.5v8v7.5v6q0 20 14 58t15 61q0 18 -3.5 30.5t-13.5 23t-19 17.5t-30 20.5t-35 24.5q-28 21 -39.5 32t-26 39t-24.5 72q-3 14 -11 42t-12.5 50.5t-4.5 44.5z" />
<glyph unicode="&#x5e6;" horiz-adv-x="1097" d="M-115 1149q0 48 38 97q8 -32 21 -46.5t46 -36.5l206 -140q62 -43 82.5 -64t20.5 -52q1 -2 1 -8q0 -19 -25.5 -96.5t-27.5 -98.5v-4q0 -23 49.5 -65.5t66.5 -42.5q13 0 23.5 18.5t23.5 62.5l97 334q19 76 31.5 105t31.5 29q8 0 16.5 -3t23 -12.5t23.5 -16t34 -24.5 q77 -58 96 -83.5t36 -99.5l10 -44q30 -133 30 -154t-13 -21h-2q-12 0 -85 50.5t-87 50.5h-1q-1 -1 -2 -1q-16 0 -26.5 -17t-32.5 -68l-45 -98q-20 -63 -20 -90q0 -13 3.5 -23.5t13.5 -22.5t18.5 -20.5t29 -27t35.5 -32.5q19 -18 51.5 -45.5t46 -41.5t31 -38t23.5 -53t6 -69 q0 -55 -28 -90t-84 -42l-395 -48q-83 -10 -114 -10q-48 0 -64.5 23t-34.5 101q-18 75 -18 102q0 42 34.5 54.5t157.5 27.5q109 14 145.5 22t36.5 24q0 12 -15.5 28t-55.5 52l-135 119q-29 24 -45.5 43t-25.5 46t-12.5 46t-8.5 66t-11 83q-2 11 -12 22t-21 18.5t-35.5 22.5 t-38.5 25q-40 27 -58 53t-32 90q-3 14 -11 41t-12.5 49t-4.5 44z" />
<glyph unicode="&#x5e7;" horiz-adv-x="1183" d="M-141 1142q0 27 5.5 50.5t11.5 23.5q12 0 27 -13.5t28.5 -30t38 -30t51.5 -13.5q563 -4 566 -4q110 0 157.5 -25t91.5 -120l90 -196q38 -90 38 -153q0 -57 -27 -100l-163 -274q-14 -24 -14 -50q0 -12 8 -35.5t8 -31.5q0 -17 -18 -35l-165 -91q-13 -7 -25.5 -17t-20 -15 t-12.5 -5q-19 0 -27 63q-8 46 -8 72q0 76 52 162l242 398q-3 15 -7 28t-7 21.5t-10.5 21l-10.5 17.5t-14 22t-16 24q-26 40 -60.5 49.5t-116.5 9.5h-536q-52 0 -73 15.5t-33 70.5q-4 17 -27.5 81t-23.5 110zM36 563q0 8 1.5 15t3 12t6 12.5t7 11t9 13.5t9.5 14q9 12 20 29 t17.5 26.5t14 19.5t13.5 14.5t11 4.5q19 0 35.5 -43t47.5 -162l228 -887q4 -16 4 -33q0 -49 -47 -90l-25 -22.5t-22.5 -20t-17 -14t-16.5 -10.5t-13 -3q-1 -1 -3 -1q-5 0 -10.5 4.5t-10.5 14t-9.5 19t-9.5 25t-8.5 27t-7.5 29t-6.5 26.5t-6 25.5t-4.5 19.5l-206 892 q-4 26 -4 32z" />
<glyph unicode="&#x5e8;" horiz-adv-x="1109" d="M-161 1148q0 51 17 102q43 -38 78 -57.5t84 -24.5l611 -72q59 -10 82 -36.5t43 -110.5l172 -730q23 -92 23 -127q0 -23 -7.5 -36t-27.5 -34q-46 -48 -57 -48q-10 0 -17.5 17.5t-22.5 67.5l-198 692q-23 77 -41.5 92t-102.5 24l-482 53q-78 11 -94 23t-30 73z" />
<glyph unicode="&#x5e9;" horiz-adv-x="1553" d="M-145 1152q0 10 1.5 20t3 17t6 16.5t6.5 13.5t7.5 14.5t7.5 13.5q19 -59 90 -107l199 -137q16 -12 39 -27.5t32.5 -22.5t20.5 -17t15 -18.5t4 -18.5q0 -26 -54 -115t-54 -119q0 -7 1 -9q0 -13 3 -28l164 -306q22 0 40 139l71 587q11 76 23.5 107t31.5 31q8 0 16.5 -3.5 t21 -12t22.5 -16t29 -22t32 -24.5q43 -32 61.5 -45.5t41.5 -35t28 -26t16 -27.5t11.5 -29.5t8 -41t12.5 -54.5q12 -51 12 -82q0 -28 -14 -28q-12 0 -41.5 21.5t-66 43.5t-65.5 22q-22 0 -28 -8t-18 -58l-10 -40l-108 -416q7 -27 50 -27q31 0 190 36q49 11 78 18.5t58.5 19 t44 17.5t31 23t22.5 27.5t15.5 38.5t14 48t13.5 63q39 189 39 216v9t-1.5 7.5t-2.5 5t-4.5 4.5t-4.5 4t-6 4t-7 4q-63 41 -76 54.5t-21 47.5l-45 193q-2 10 -2 29q0 16 4.5 31.5t9 24.5t13.5 24t12 21q19 -59 90 -107l199 -137q78 -49 78 -100q0 -10 -3 -21.5t-6.5 -20 t-12 -24.5t-13 -24t-18 -29.5t-18.5 -29.5l-113 -468q-9 -38 -13 -56t-13.5 -41.5t-12 -31.5t-18 -22t-21 -17t-32 -12.5t-40 -12.5t-54.5 -13l-485 -119q-38 0 -60.5 31.5t-64.5 129.5l-207 476q-3 9 -3 18q0 16 10 54.5t10 58.5q0 10 -1 18t-5 15t-6.5 11.5t-12 12 t-14 10.5t-20.5 13.5t-24 16.5q-54 37 -72 62.5t-27 65.5l-38 163q-3 19 -3 35z" />
<glyph unicode="&#x5ea;" horiz-adv-x="1424" d="M12 1115q0 50 21 86q31 -46 64.5 -60.5t82.5 -14.5h663q8 0 21.5 0.5t19.5 0.5q37 0 60 -2t42.5 -13t29.5 -21.5t21.5 -41t18 -57.5t19.5 -84q1 -6 2 -9l178 -770q9 -36 9 -55t-7.5 -32.5t-29.5 -41.5q-9 -12 -28 -19.5t-28 -7.5l-216 727q-35 107 -51 130q-22 30 -72 34 q-13 1 -31 1h-451q-48 -2 -61.5 -24t-13.5 -84q0 -49 5 -74q15 -67 44.5 -132.5t60 -113.5t59 -95t46.5 -96t18 -98q0 -21 -16 -32t-61 -28l-308 -115q-28 0 -43.5 29t-31.5 98q-15 62 -15 90q0 31 20 44t86 36q55 19 72.5 30.5t17.5 34.5q0 53 -39.5 175t-39.5 168 q0 22 7 69.5t7 63.5q0 26 -10 36t-48 31q-5 3 -14 7.5t-12 6.5t-8.5 5.5t-7 5t-5.5 6t-5 7.5t-3.5 9.5t-4 12.5t-3.5 16l-30 132q-1 10 -1 29z" />
<glyph unicode="&#x5f0;" horiz-adv-x="1302" d="M-165 1179q0 47 26 47h4q49 -49 96 -63l144 -45q91 -28 138 -86t60 -112l199 -860l7 -73q-2 -19 -20.5 -31t-37.5 -12q-20 0 -38 16t-27 46l-219 734q-10 29 -17 44t-22.5 34.5t-41 32.5t-65.5 25q-74 22 -105.5 43t-40.5 61l-33 149q-7 23 -7 50zM489 1175q0 47 26 47h4 q49 -49 96 -63l144 -45q91 -28 138 -86t60 -112l199 -860l7 -73q-2 -19 -20.5 -31t-37.5 -12q-20 0 -38 16t-27 46l-219 734q-10 29 -17 44t-22.5 34.5t-41 32.5t-65.5 25q-74 22 -105.5 43t-40.5 61l-33 149q-7 23 -7 50z" />
<glyph unicode="&#x5f1;" horiz-adv-x="1279" d="M-145 1167q0 58 16 58q7 0 12 -8q8 -10 16.5 -19t16 -14.5t19 -11.5t18 -8.5t21.5 -8t21 -8.5q41 -17 131 -48t119 -41q75 -28 98.5 -70.5t23.5 -134.5q0 -99 -17.5 -204t-47.5 -146q-29 -39 -57 -60t-46 -21q-13 0 -19.5 16.5t-5.5 37.5l8 269q-2 38 -25.5 59.5t-53 27 t-68 15t-59.5 24.5q-5 3 -16 10.5t-15 10.5t-12.5 10.5t-12.5 14.5t-10.5 18t-11 25.5t-8.5 33.5l-32 139q-3 13 -3 34zM466 1182q0 47 26 47h4q49 -49 96 -63l144 -45q91 -28 138 -86t60 -112l199 -860l7 -73q-2 -19 -20.5 -31t-37.5 -12q-20 0 -38 16t-27 46l-219 734 q-10 29 -17 44t-22.5 34.5t-41 32.5t-65.5 25q-74 22 -105.5 43t-40.5 61l-33 149q-7 23 -7 50z" />
<glyph unicode="&#x5f2;" horiz-adv-x="1324" d="M-145 1159q0 58 16 58q7 0 12 -8q8 -10 16.5 -19t16 -14.5t19 -11.5t18 -8.5t21.5 -8t21 -8.5q41 -17 131 -48t119 -41q75 -28 98.5 -70.5t23.5 -134.5q0 -99 -17.5 -204t-47.5 -146q-29 -39 -57 -60t-46 -21q-13 0 -19.5 16.5t-5.5 37.5l8 269q-2 38 -25.5 59.5t-53 27 t-68 15t-59.5 24.5q-5 3 -16 10.5t-15 10.5t-12.5 10.5t-12.5 14.5t-10.5 18t-11 25.5t-8.5 33.5l-32 139q-3 13 -3 34zM510 1173q0 58 16 58q7 0 12 -8q8 -10 16.5 -19t16 -14.5t19 -11.5t18 -8.5t21.5 -8t21 -8.5q41 -17 131 -48t119 -41q75 -28 98.5 -70.5t23.5 -134.5 q0 -99 -17.5 -204t-47.5 -146q-29 -39 -57 -60t-46 -21q-13 0 -19.5 16.5t-5.5 37.5l8 269q-2 38 -25.5 59.5t-53 27t-68 15t-59.5 24.5q-5 3 -16 10.5t-15 10.5t-12.5 10.5t-12.5 14.5t-10.5 18t-11 25.5t-8.5 33.5l-32 139q-3 13 -3 34z" />
<glyph unicode="&#x5f3;" horiz-adv-x="510" d="M-86 809q0 13 3 26q21 89 21 225v93v3q9 79 68 79h69q75 -12 75 -144q0 -135 -122 -294q-33 -44 -65 -44q-25 0 -37 16t-12 40z" />
<glyph unicode="&#x5f4;" horiz-adv-x="786" d="M-86 809q0 13 3 26q21 89 21 225v93v3q9 79 68 79h69q75 -12 75 -144q0 -135 -122 -294q-33 -44 -65 -44q-25 0 -37 16t-12 40zM190 808q0 13 3 26q21 89 21 225v93v3q9 79 68 79h69q75 -12 75 -144q0 -135 -122 -294q-33 -44 -65 -44q-25 0 -37 16t-12 40z" />
<glyph unicode="&#x2000;" horiz-adv-x="1009" />
<glyph unicode="&#x2001;" horiz-adv-x="2019" />
<glyph unicode="&#x2002;" horiz-adv-x="1009" />
<glyph unicode="&#x2003;" horiz-adv-x="2019" />
<glyph unicode="&#x2004;" horiz-adv-x="673" />
<glyph unicode="&#x2005;" horiz-adv-x="504" />
<glyph unicode="&#x2006;" horiz-adv-x="336" />
<glyph unicode="&#x2007;" horiz-adv-x="336" />
<glyph unicode="&#x2008;" horiz-adv-x="252" />
<glyph unicode="&#x2009;" horiz-adv-x="150" />
<glyph unicode="&#x200a;" horiz-adv-x="112" />
<glyph unicode="&#x200b;" />
<glyph unicode="&#x200c;" d="M-213 1582v57h171v-116l-80 59h-91zM42 1522v115h171v-55h-91z" />
<glyph unicode="&#x200d;" d="M-204 1524v116h408v-116l-80 60h-248z" />
<glyph unicode="&#x2010;" horiz-adv-x="632" d="M-75 672h472l57 -247h-472z" />
<glyph unicode="&#x2011;" horiz-adv-x="632" d="M-75 672h472l57 -247h-472z" />
<glyph unicode="&#x2012;" horiz-adv-x="632" d="M-75 672h472l57 -247h-472z" />
<glyph unicode="&#x2013;" horiz-adv-x="1127" d="M-75 672h914l110 -247h-914z" />
<glyph unicode="&#x2014;" horiz-adv-x="2151" d="M-75 672h1827l221 -247h-1827z" />
<glyph unicode="&#x2018;" horiz-adv-x="269" d="M-281 1258q0 63 39.5 102.5t104.5 39.5q104 0 179.5 -91.5t75.5 -223.5q0 -206 -227 -365l-69 78q64 52 99.5 109t35.5 106q0 40 -14 40q-3 0 -10.5 -2t-11.5 -2q-79 0 -140.5 60.5t-61.5 148.5z" />
<glyph unicode="&#x2019;" horiz-adv-x="269" d="M-281 1258q0 63 39.5 102.5t104.5 39.5q104 0 179.5 -91.5t75.5 -223.5q0 -206 -227 -365l-69 78q64 52 99.5 109t35.5 106q0 40 -14 40q-3 0 -10.5 -2t-11.5 -2q-79 0 -140.5 60.5t-61.5 148.5z" />
<glyph unicode="&#x201a;" horiz-adv-x="260" d="M-365 -69q0 63 39.5 102.5t104.5 39.5q104 0 179.5 -91.5t75.5 -223.5q0 -206 -227 -365l-69 78q64 52 99.5 109t35.5 106q0 40 -14 40q-3 0 -10.5 -2t-11.5 -2q-79 0 -140.5 60.5t-61.5 148.5z" />
<glyph unicode="&#x201c;" horiz-adv-x="544" d="M-282 1253q0 63 39.5 102.5t104.5 39.5q104 0 179.5 -91.5t75.5 -223.5q0 -206 -227 -365l-69 78q64 52 99.5 109t35.5 106q0 40 -14 40q-4 0 -11 -2t-11 -2q-79 0 -140.5 60.5t-61.5 148.5zM102 1253q0 63 39.5 102.5t104.5 39.5q104 0 179.5 -91.5t75.5 -223.5 q0 -206 -227 -365l-69 78q64 52 99.5 109t35.5 106q0 40 -14 40q-4 0 -11 -2t-11 -2q-79 0 -140.5 60.5t-61.5 148.5z" />
<glyph unicode="&#x201d;" horiz-adv-x="544" d="M-282 1253q0 63 39.5 102.5t104.5 39.5q104 0 179.5 -91.5t75.5 -223.5q0 -206 -227 -365l-69 78q64 52 99.5 109t35.5 106q0 40 -14 40q-4 0 -11 -2t-11 -2q-79 0 -140.5 60.5t-61.5 148.5zM102 1253q0 63 39.5 102.5t104.5 39.5q104 0 179.5 -91.5t75.5 -223.5 q0 -206 -227 -365l-69 78q64 52 99.5 109t35.5 106q0 40 -14 40q-4 0 -11 -2t-11 -2q-79 0 -140.5 60.5t-61.5 148.5z" />
<glyph unicode="&#x201e;" horiz-adv-x="544" d="M-366 20q0 63 39.5 102.5t104.5 39.5q104 0 179.5 -91.5t75.5 -223.5q0 -206 -227 -365l-69 78q64 52 99.5 109t35.5 106q0 40 -14 40q-4 0 -11 -2t-11 -2q-79 0 -140.5 60.5t-61.5 148.5zM18 20q0 63 39.5 102.5t104.5 39.5q104 0 179.5 -91.5t75.5 -223.5 q0 -206 -227 -365l-69 78q64 52 99.5 109t35.5 106q0 40 -14 40q-4 0 -11 -2t-11 -2q-79 0 -140.5 60.5t-61.5 148.5z" />
<glyph unicode="&#x202f;" horiz-adv-x="403" />
<glyph unicode="&#x205f;" horiz-adv-x="504" />
<glyph unicode="&#x20ac;" horiz-adv-x="1060" d="M-110 696h132v62q0 181 87 290t264 109q67 0 127 -10t114 -32t86 -63t32 -98q0 -29 -19 -46.5t-50 -17.5q-56 0 -98.5 48t-59.5 119q-56 29 -118 29q-55 0 -95 -23t-62 -64.5t-32.5 -90.5t-10.5 -109q0 -51 6 -103h425l19 -79h-431l7 -31q14 -58 29 -99h375l18 -79h-361 q33 -68 69 -120.5t83.5 -99t109 -71.5t133.5 -25q67 0 119 17t112 51q9 -9 21 -26l6 -26q-49 -55 -134 -90.5t-180 -35.5q-92 0 -175 35q-228 96 -347 391h-134l-18 79h122q-28 120 -30 130h-122z" />
<glyph unicode="&#xe000;" horiz-adv-x="900" d="M0 0v900h900v-900h-900z" />
<glyph unicode="&#xfb1d;" horiz-adv-x="669" d="M-145 1159q0 58 16 58q7 0 12 -8q8 -10 16.5 -19t16 -14.5t19 -11.5t18 -8.5t21.5 -8t21 -8.5q41 -17 131 -48t119 -41q75 -28 98.5 -70.5t23.5 -134.5q0 -99 -17.5 -204t-47.5 -146q-29 -39 -57 -60t-46 -21q-13 0 -19.5 16.5t-5.5 37.5l8 269q-2 38 -25.5 59.5t-53 27 t-68 15t-59.5 24.5q-5 3 -16 10.5t-15 10.5t-12.5 10.5t-12.5 14.5t-10.5 18t-11 25.5t-8.5 33.5l-32 139q-3 13 -3 34zM267 197q0 34 20 55t53 21q47 0 83.5 -39.5t36.5 -91.5q0 -34 -20.5 -55t-52.5 -21q-48 0 -84 39.5t-36 91.5z" />
<glyph unicode="&#xfb1e;" d="M-569 1513q0 6 3 6l23 -34.5t24.5 -35t24.5 -28.5t31.5 -27t36.5 -18t50 -14t62 -4q30 0 54 4t40.5 9t29.5 16.5t20 20t13.5 25t9 26.5t7 30.5t7.5 30.5q36 -72 36 -185q0 -62 -40.5 -93t-142.5 -31q-54 0 -95.5 10t-68.5 27.5t-47 42t-32 54.5t-21.5 64t-17.5 71 q-4 22 -7 33z" />
<glyph unicode="&#xfb1f;" horiz-adv-x="1324" d="M-145 1159q0 58 16 58q7 0 12 -8q8 -10 16.5 -19t16 -14.5t19 -11.5t18 -8.5t21.5 -8t21 -8.5q41 -17 131 -48t119 -41q75 -28 98.5 -70.5t23.5 -134.5q0 -99 -17.5 -204t-47.5 -146q-29 -39 -57 -60t-46 -21q-13 0 -19.5 16.5t-5.5 37.5l8 269q-2 38 -25.5 59.5t-53 27 t-68 15t-59.5 24.5q-5 3 -16 10.5t-15 10.5t-12.5 10.5t-12.5 14.5t-10.5 18t-11 25.5t-8.5 33.5l-32 139q-3 13 -3 34zM320 251q0 14 15.5 17.5t59.5 3.5h435q56 0 72.5 -7t27.5 -39q31 -63 31 -97q0 -13 -13.5 -16t-54.5 -3h-448q-54 0 -69.5 7.5t-25.5 41.5 q-30 60 -30 92zM510 1173q0 58 16 58q7 0 12 -8q8 -10 16.5 -19t16 -14.5t19 -11.5t18 -8.5t21.5 -8t21 -8.5q41 -17 131 -48t119 -41q75 -28 98.5 -70.5t23.5 -134.5q0 -99 -17.5 -204t-47.5 -146q-29 -39 -57 -60t-46 -21q-13 0 -19.5 16.5t-5.5 37.5l8 269 q-2 38 -25.5 59.5t-53 27t-68 15t-59.5 24.5q-5 3 -16 10.5t-15 10.5t-12.5 10.5t-12.5 14.5t-10.5 18t-11 25.5t-8.5 33.5l-32 139q-3 13 -3 34z" />
<glyph unicode="&#xfb20;" horiz-adv-x="1178" d="M-93 1161q0 34 13 69t24 35q6 0 10 -18q14 -60 90 -117l170 -126q17 -14 39.5 -30.5t32.5 -24.5t20.5 -19t14 -22t3.5 -26q0 -23 -17.5 -102.5t-17.5 -109.5q0 -15 2 -26t9 -23.5t12 -19t20.5 -24.5t24.5 -30l134 -171q76 -99 122 -99q42 0 55 81l49 283q10 63 10 86 q0 10 -1.5 18.5t-3.5 15t-8 14t-9.5 11.5t-15 12.5t-17.5 13t-23.5 16t-27.5 18.5q-58 39 -77 67t-37 103l-26 116q-2 6 -2 21q0 32 12.5 65t24.5 33q8 0 12 -20q7 -33 103 -104l157 -118q23 -21 51 -42l40 -30t20.5 -25t8.5 -37q0 -70 -25 -175t-26 -147l-7 -311 q-11 -156 -39 -186.5t-172 -50.5q-21 -3 -32 -5l-300 -42q-27 -3 -63 -8.5t-60 -8t-49 -2.5q-30 0 -45 29.5t-41 136.5q-3 11 -8 28.5t-7.5 30t-2.5 25.5q0 6 1.5 10.5t6 7.5t9.5 4.5t15.5 3t20 2t26.5 2t32 3.5q19 2 75 7.5t92 10.5q41 5 41 47q0 11 -1.5 20t-7 19.5t-9 16 t-13 19t-13.5 19.5l-107 159q-10 20 -22.5 40.5t-17.5 29.5t-8.5 22.5t-3.5 30.5v54q0 19 -1.5 30t-10 22t-16.5 17.5t-30.5 24.5t-41.5 35q-9 8 -28.5 24t-24 21t-16 17t-15.5 22.5t-10 27.5t-12 41q-4 17 -13.5 49.5t-15 59.5t-5.5 53z" />
<glyph unicode="&#xfb21;" horiz-adv-x="1715" d="M-134 1168q0 27 16 27q9 0 25 -15.5t47.5 -43t67.5 -48.5q98 -58 201.5 -114t166 -87t185 -90.5t173.5 -84.5q138 -69 159 -69q3 0 3 1l143 391q25 61 40 83.5t36 22.5q18 0 45 -16t85 -56q81 -55 100.5 -85t38.5 -117q1 -5 8 -31t12 -51.5t5 -43.5q0 -32 -16 -33 q-3 0 -6 1q0 -1 -3 -1q-14 0 -108 45t-118 45q-33 0 -73 -92t-40 -130v-2q7 -19 26.5 -33.5t60.5 -34.5l200 -96q48 -19 81 -42t51.5 -43.5t32 -53.5t19 -57t15 -70t18.5 -78q8 -30 8 -45q0 -21 -16 -21l-804 421q-110 55 -312 146.5t-217 91.5q-20 0 -20 -37q0 -27 11 -77 l47 -203q12 -53 23 -62.5t58 -9.5h51h21q66 0 84.5 -19.5t34.5 -90.5q1 -6 2 -10q17 -71 17 -94q0 -21 -7 -32.5t-35.5 -16.5t-55.5 -6t-94 -1h-74t-49 8t-36 16t-22.5 35.5t-21 54t-19.5 84.5q-30 129 -61 304t-61 304q-55 31 -67 44q-19 21 -38 99l-9 39l-14 62 q-21 90 -21 118z" />
<glyph unicode="&#xfb22;" horiz-adv-x="1687" d="M-132 1150q0 33 28 51q72 -72 144 -72l1085 -7q24 0 46 9.5t52 29t42 25.5q11 0 29 -25t23 -49l34 -149q9 -45 9 -49q0 -22 -17.5 -35.5t-64.5 -25.5l177 -628q3 -12 8.5 -29.5t8.5 -28t5.5 -25.5t2.5 -30q0 -19 -10 -38.5t-21.5 -32.5t-46.5 -52q-17 -18 -29.5 -29.5 t-20.5 -11.5q-15 0 -27.5 38.5t-39.5 156.5l-143 621q-6 28 -9 39t-10.5 25t-13 17.5t-21.5 8t-32.5 5t-47.5 0.5l-951 7q-6 0 -17.5 -0.5t-16.5 -0.5q-68 0 -86 17t-32 84l-33 149q-4 19 -4 35z" />
<glyph unicode="&#xfb23;" horiz-adv-x="1789" d="M-122 1147q0 32 28 51q73 -72 145 -72l1193 2q18 1 34 6t23 8.5t27 17t28 18.5h4q11 0 29 -25t23 -49l33 -148q9 -36 9 -48q0 -19 -12.5 -30t-44.5 -20l177 -628q3 -10 9 -28.5t8.5 -28.5t5 -25t2.5 -30q0 -19 -10.5 -38.5t-21 -32t-47.5 -51.5q-6 -6 -13 -13.5t-11 -12 t-9 -8.5t-9 -6t-7 -2q-15 0 -27.5 38.5t-39.5 155.5l-144 622q-8 38 -12.5 51.5t-17 26t-30.5 14.5t-56 2h-1084q-48 0 -71 2t-39 15t-21 28t-13 54l-34 149q-4 28 -4 35zM37 565q0 24 8.5 41.5t33.5 53.5q42 62 57 62q12 0 22 -25t30 -90q6 -20 9 -31l112 -372 q4 -13 10.5 -34t9.5 -33t6 -29.5t3 -34.5t-8 -32.5t-17 -25.5t-36 -36q-56 -56 -71 -56q-18 0 -31 36t-37 135l-81 352q-20 91 -20 119z" />
<glyph unicode="&#xfb24;" horiz-adv-x="1560" d="M-100 1199q0 32 28 51q66 -65 145 -72l945 -90q66 -6 107.5 -23t69.5 -63v-2l1 2q44 -88 83.5 -204.5t60 -195t55.5 -222.5q7 -27 7 -60q0 -86 -45.5 -162t-116.5 -97h-2l-961 -95q-101 -11 -139 -11q-11 0 -20.5 5t-16.5 15t-12 20t-9.5 26.5l-7.5 27.5t-6.5 29.5 t-5.5 27.5q-18 70 -18 93q0 31 24.5 42.5t94.5 17.5l947 87q77 4 107.5 21t30.5 50q0 24 -24 92q-56 165 -132 283q-13 21 -134.5 35.5t-304.5 25t-207 12.5l-363 34q-90 6 -115 26.5t-37 92.5l-25 146q-4 28 -4 35z" />
<glyph unicode="&#xfb25;" horiz-adv-x="1650" d="M-432 1968q0 41 20 41q13 0 31 -19t35 -53q20 -40 85 -73q22 -11 39 -24t29 -22t23 -28t16 -27t12.5 -34.5t9.5 -34t9 -42t9 -43.5l78 -373q6 -28 9 -39.5t9 -26.5t11 -19.5t16.5 -9.5t24 -6t34.5 -1l1037 -2q54 0 83 -4.5t52.5 -24t36.5 -45t36 -82.5l96 -242 q4 -13 13 -35t13 -36.5t4 -30.5q0 -31 -28 -74.5t-79 -100t-55 -61.5l-180 -225q-14 -24 -14 -50q0 -12 7.5 -35.5t7.5 -31.5v-2q0 -17 -17 -33l-204 -117q-42 -37 -58 -37q-19 0 -27 63q-6 31 -6 63q0 77 50 171l375 461q-20 93 -72 175q-31 47 -61 57t-127 10h-877 q-50 0 -76 4.5t-48.5 24t-35.5 52.5t-29 95q-16 65 -33 139.5t-36 163.5t-30 140q-14 61 -35 92.5t-71 65.5q-32 22 -48.5 51.5t-26.5 73.5l-29 141q-8 33 -8 60z" />
<glyph unicode="&#xfb26;" horiz-adv-x="1773" d="M-130 1151q0 65 19 65q58 -48 109 -67.5t121 -19.5l1054 -1q122 -2 168.5 -43t87.5 -186l190 -665q7 -25 7 -50q0 -59 -39.5 -102.5t-97.5 -62.5t-124 -19h-1046q-85 0 -127.5 31.5t-62.5 122.5l-113 512q-3 16 -3 34q0 60 46 130q3 8 3 14q0 16 -19.5 21t-43.5 4t-47 7 t-28 28l-51 205q-3 18 -3 42zM149 732q0 -58 25 -138l69 -220q30 -84 47 -99.5t84 -15.5h7l970 3q29 0 41 0.5t25 3.5t16.5 9t3.5 17q0 24 -19 92q-16 64 -30 121t-25.5 100.5t-38.5 136.5q-10 35 -15.5 52.5t-18 34t-20 21.5t-32 10t-43 5h-64.5h-889q-93 -22 -93 -133z " />
<glyph unicode="&#xfb27;" horiz-adv-x="1788" d="M-138 1122q0 51 17 102q45 -40 79 -59.5t83 -22.5l1276 -80q59 -10 82 -36.5t43 -110.5l172 -730q23 -92 23 -127q0 -23 -7.5 -36t-27.5 -34q-46 -48 -58 -48q-10 0 -17 16.5t-22 68.5l-199 692q-21 72 -33 87q-18 22 -75 27q-14 1 -35 2l-1147 61q-78 11 -94 23t-30 73z " />
<glyph unicode="&#xfb28;" horiz-adv-x="1873" d="M16 1101l19 115q32 -46 65.5 -60.5t82.5 -14.5l1105 -5q50 0 77 -1.5t52.5 -11.5t37 -21t25 -42t21.5 -62.5t23 -93.5q1 -6 2 -9l184 -763q8 -38 8 -55q0 -19 -7.5 -33t-29.5 -41q-9 -12 -27.5 -20t-27.5 -8l-222 722q-35 107 -51 130q-22 30 -72 34q-13 1 -31 1l-893 5 q-48 -2 -62 -24t-14 -84q0 -49 6 -74q18 -81 58.5 -167.5t76.5 -144.5t64 -127t28 -128q0 -21 -16 -32t-61 -28l-308 -115q-28 0 -44 29.5t-31 97.5q-16 66 -16 90q0 31 20 44t87 36q55 19 72.5 30.5t17.5 34.5q0 53 -40 188.5t-40 184.5q0 22 7.5 71t7.5 65q0 18 -6 28.5 t-14.5 16.5t-36.5 21q-5 3 -14 7.5t-12 6.5t-8.5 5.5t-7.5 5t-5.5 6t-4.5 7.5t-3.5 9.5t-4.5 12.5t-4 16z" />
<glyph unicode="&#xfb29;" horiz-adv-x="1106" d="M-50 647h370l-86 371h219l86 -371h368l50 -219h-957z" />
<glyph unicode="&#xfb2a;" horiz-adv-x="1244" d="M-33 588q0 32 20 50.5t57 18.5q53 0 88 -34t35 -90q0 -32 -20.5 -50.5t-57.5 -18.5q-52 0 -87 34t-35 90zM-27 822q0 32 20 50.5t57 18.5q53 0 88 -34t35 -90q0 -32 -20.5 -50.5t-57.5 -18.5q-52 0 -87 34t-35 90zM81 354q0 32 20 50.5t57 18.5q53 0 88 -34t35 -90 q0 -32 -20.5 -50.5t-57.5 -18.5q-52 0 -87 34t-35 90zM107 996q0 32 20 50.5t57 18.5q52 0 87.5 -34t35.5 -90q0 -32 -20.5 -50.5t-57.5 -18.5q-52 0 -87 34t-35 90zM296 180q0 33 20 51t57 18q52 0 87 -34t35 -90q0 -32 -20.5 -50.5t-57.5 -18.5q-52 0 -86.5 34t-34.5 90z M327 1056q0 32 20 50.5t57 18.5q52 0 87.5 -34t35.5 -90q0 -32 -20.5 -50.5t-57.5 -18.5q-52 0 -87 34t-35 90zM543 120q0 32 20 50.5t57 18.5q53 0 88 -34t35 -90q0 -32 -20.5 -50.5t-57.5 -18.5q-52 0 -87 34t-35 90zM575 996q0 32 20 50.5t57 18.5q52 0 87.5 -34 t35.5 -90q0 -32 -20.5 -50.5t-57.5 -18.5q-52 0 -87 34t-35 90zM764 180q0 33 20 51t57 18q52 0 87 -34t35 -90q0 -32 -20.5 -50.5t-57.5 -18.5q-52 0 -86.5 34t-34.5 90zM789 822q0 32 20 50.5t57 18.5q53 0 88 -34t35 -90q0 -32 -20.5 -50.5t-57.5 -18.5q-52 0 -87 34 t-35 90zM897 354q0 32 20 50.5t57 18.5q53 0 88 -34t35 -90q0 -32 -20.5 -50.5t-57.5 -18.5q-52 0 -87 34t-35 90zM903 588q0 32 20 50.5t57 18.5q53 0 88 -34t35 -90q0 -32 -20.5 -50.5t-57.5 -18.5q-52 0 -87 34t-35 90z" />
<glyph unicode="&#xfb2b;" horiz-adv-x="1244" d="M-33 588q0 32 20 50.5t57 18.5q53 0 88 -34t35 -90q0 -32 -20.5 -50.5t-57.5 -18.5q-52 0 -87 34t-35 90zM-27 822q0 32 20 50.5t57 18.5q53 0 88 -34t35 -90q0 -32 -20.5 -50.5t-57.5 -18.5q-52 0 -87 34t-35 90zM81 354q0 32 20 50.5t57 18.5q53 0 88 -34t35 -90 q0 -32 -20.5 -50.5t-57.5 -18.5q-52 0 -87 34t-35 90zM107 996q0 32 20 50.5t57 18.5q52 0 87.5 -34t35.5 -90q0 -32 -20.5 -50.5t-57.5 -18.5q-52 0 -87 34t-35 90zM296 180q0 33 20 51t57 18q52 0 87 -34t35 -90q0 -32 -20.5 -50.5t-57.5 -18.5q-52 0 -86.5 34t-34.5 90z M327 1056q0 32 20 50.5t57 18.5q52 0 87.5 -34t35.5 -90q0 -32 -20.5 -50.5t-57.5 -18.5q-52 0 -87 34t-35 90zM543 120q0 32 20 50.5t57 18.5q53 0 88 -34t35 -90q0 -32 -20.5 -50.5t-57.5 -18.5q-52 0 -87 34t-35 90zM575 996q0 32 20 50.5t57 18.5q52 0 87.5 -34 t35.5 -90q0 -32 -20.5 -50.5t-57.5 -18.5q-52 0 -87 34t-35 90zM764 180q0 33 20 51t57 18q52 0 87 -34t35 -90q0 -32 -20.5 -50.5t-57.5 -18.5q-52 0 -86.5 34t-34.5 90zM789 822q0 32 20 50.5t57 18.5q53 0 88 -34t35 -90q0 -32 -20.5 -50.5t-57.5 -18.5q-52 0 -87 34 t-35 90zM897 354q0 32 20 50.5t57 18.5q53 0 88 -34t35 -90q0 -32 -20.5 -50.5t-57.5 -18.5q-52 0 -87 34t-35 90zM903 588q0 32 20 50.5t57 18.5q53 0 88 -34t35 -90q0 -32 -20.5 -50.5t-57.5 -18.5q-52 0 -87 34t-35 90z" />
<glyph unicode="&#xfb2c;" horiz-adv-x="1244" d="M-33 588q0 32 20 50.5t57 18.5q53 0 88 -34t35 -90q0 -32 -20.5 -50.5t-57.5 -18.5q-52 0 -87 34t-35 90zM-27 822q0 32 20 50.5t57 18.5q53 0 88 -34t35 -90q0 -32 -20.5 -50.5t-57.5 -18.5q-52 0 -87 34t-35 90zM81 354q0 32 20 50.5t57 18.5q53 0 88 -34t35 -90 q0 -32 -20.5 -50.5t-57.5 -18.5q-52 0 -87 34t-35 90zM107 996q0 32 20 50.5t57 18.5q52 0 87.5 -34t35.5 -90q0 -32 -20.5 -50.5t-57.5 -18.5q-52 0 -87 34t-35 90zM296 180q0 33 20 51t57 18q52 0 87 -34t35 -90q0 -32 -20.5 -50.5t-57.5 -18.5q-52 0 -86.5 34t-34.5 90z M327 1056q0 32 20 50.5t57 18.5q52 0 87.5 -34t35.5 -90q0 -32 -20.5 -50.5t-57.5 -18.5q-52 0 -87 34t-35 90zM543 120q0 32 20 50.5t57 18.5q53 0 88 -34t35 -90q0 -32 -20.5 -50.5t-57.5 -18.5q-52 0 -87 34t-35 90zM575 996q0 32 20 50.5t57 18.5q52 0 87.5 -34 t35.5 -90q0 -32 -20.5 -50.5t-57.5 -18.5q-52 0 -87 34t-35 90zM764 180q0 33 20 51t57 18q52 0 87 -34t35 -90q0 -32 -20.5 -50.5t-57.5 -18.5q-52 0 -86.5 34t-34.5 90zM789 822q0 32 20 50.5t57 18.5q53 0 88 -34t35 -90q0 -32 -20.5 -50.5t-57.5 -18.5q-52 0 -87 34 t-35 90zM897 354q0 32 20 50.5t57 18.5q53 0 88 -34t35 -90q0 -32 -20.5 -50.5t-57.5 -18.5q-52 0 -87 34t-35 90zM903 588q0 32 20 50.5t57 18.5q53 0 88 -34t35 -90q0 -32 -20.5 -50.5t-57.5 -18.5q-52 0 -87 34t-35 90z" />
<glyph unicode="&#xfb2d;" horiz-adv-x="1244" d="M-33 588q0 32 20 50.5t57 18.5q53 0 88 -34t35 -90q0 -32 -20.5 -50.5t-57.5 -18.5q-52 0 -87 34t-35 90zM-27 822q0 32 20 50.5t57 18.5q53 0 88 -34t35 -90q0 -32 -20.5 -50.5t-57.5 -18.5q-52 0 -87 34t-35 90zM81 354q0 32 20 50.5t57 18.5q53 0 88 -34t35 -90 q0 -32 -20.5 -50.5t-57.5 -18.5q-52 0 -87 34t-35 90zM107 996q0 32 20 50.5t57 18.5q52 0 87.5 -34t35.5 -90q0 -32 -20.5 -50.5t-57.5 -18.5q-52 0 -87 34t-35 90zM296 180q0 33 20 51t57 18q52 0 87 -34t35 -90q0 -32 -20.5 -50.5t-57.5 -18.5q-52 0 -86.5 34t-34.5 90z M327 1056q0 32 20 50.5t57 18.5q52 0 87.5 -34t35.5 -90q0 -32 -20.5 -50.5t-57.5 -18.5q-52 0 -87 34t-35 90zM543 120q0 32 20 50.5t57 18.5q53 0 88 -34t35 -90q0 -32 -20.5 -50.5t-57.5 -18.5q-52 0 -87 34t-35 90zM575 996q0 32 20 50.5t57 18.5q52 0 87.5 -34 t35.5 -90q0 -32 -20.5 -50.5t-57.5 -18.5q-52 0 -87 34t-35 90zM764 180q0 33 20 51t57 18q52 0 87 -34t35 -90q0 -32 -20.5 -50.5t-57.5 -18.5q-52 0 -86.5 34t-34.5 90zM789 822q0 32 20 50.5t57 18.5q53 0 88 -34t35 -90q0 -32 -20.5 -50.5t-57.5 -18.5q-52 0 -87 34 t-35 90zM897 354q0 32 20 50.5t57 18.5q53 0 88 -34t35 -90q0 -32 -20.5 -50.5t-57.5 -18.5q-52 0 -87 34t-35 90zM903 588q0 32 20 50.5t57 18.5q53 0 88 -34t35 -90q0 -32 -20.5 -50.5t-57.5 -18.5q-52 0 -87 34t-35 90z" />
<glyph unicode="&#xfb2e;" horiz-adv-x="1244" d="M-33 588q0 32 20 50.5t57 18.5q53 0 88 -34t35 -90q0 -32 -20.5 -50.5t-57.5 -18.5q-52 0 -87 34t-35 90zM-27 822q0 32 20 50.5t57 18.5q53 0 88 -34t35 -90q0 -32 -20.5 -50.5t-57.5 -18.5q-52 0 -87 34t-35 90zM81 354q0 32 20 50.5t57 18.5q53 0 88 -34t35 -90 q0 -32 -20.5 -50.5t-57.5 -18.5q-52 0 -87 34t-35 90zM107 996q0 32 20 50.5t57 18.5q52 0 87.5 -34t35.5 -90q0 -32 -20.5 -50.5t-57.5 -18.5q-52 0 -87 34t-35 90zM296 180q0 33 20 51t57 18q52 0 87 -34t35 -90q0 -32 -20.5 -50.5t-57.5 -18.5q-52 0 -86.5 34t-34.5 90z M327 1056q0 32 20 50.5t57 18.5q52 0 87.5 -34t35.5 -90q0 -32 -20.5 -50.5t-57.5 -18.5q-52 0 -87 34t-35 90zM543 120q0 32 20 50.5t57 18.5q53 0 88 -34t35 -90q0 -32 -20.5 -50.5t-57.5 -18.5q-52 0 -87 34t-35 90zM575 996q0 32 20 50.5t57 18.5q52 0 87.5 -34 t35.5 -90q0 -32 -20.5 -50.5t-57.5 -18.5q-52 0 -87 34t-35 90zM764 180q0 33 20 51t57 18q52 0 87 -34t35 -90q0 -32 -20.5 -50.5t-57.5 -18.5q-52 0 -86.5 34t-34.5 90zM789 822q0 32 20 50.5t57 18.5q53 0 88 -34t35 -90q0 -32 -20.5 -50.5t-57.5 -18.5q-52 0 -87 34 t-35 90zM897 354q0 32 20 50.5t57 18.5q53 0 88 -34t35 -90q0 -32 -20.5 -50.5t-57.5 -18.5q-52 0 -87 34t-35 90zM903 588q0 32 20 50.5t57 18.5q53 0 88 -34t35 -90q0 -32 -20.5 -50.5t-57.5 -18.5q-52 0 -87 34t-35 90z" />
<glyph unicode="&#xfb2f;" horiz-adv-x="1244" d="M-33 588q0 32 20 50.5t57 18.5q53 0 88 -34t35 -90q0 -32 -20.5 -50.5t-57.5 -18.5q-52 0 -87 34t-35 90zM-27 822q0 32 20 50.5t57 18.5q53 0 88 -34t35 -90q0 -32 -20.5 -50.5t-57.5 -18.5q-52 0 -87 34t-35 90zM81 354q0 32 20 50.5t57 18.5q53 0 88 -34t35 -90 q0 -32 -20.5 -50.5t-57.5 -18.5q-52 0 -87 34t-35 90zM107 996q0 32 20 50.5t57 18.5q52 0 87.5 -34t35.5 -90q0 -32 -20.5 -50.5t-57.5 -18.5q-52 0 -87 34t-35 90zM296 180q0 33 20 51t57 18q52 0 87 -34t35 -90q0 -32 -20.5 -50.5t-57.5 -18.5q-52 0 -86.5 34t-34.5 90z M327 1056q0 32 20 50.5t57 18.5q52 0 87.5 -34t35.5 -90q0 -32 -20.5 -50.5t-57.5 -18.5q-52 0 -87 34t-35 90zM543 120q0 32 20 50.5t57 18.5q53 0 88 -34t35 -90q0 -32 -20.5 -50.5t-57.5 -18.5q-52 0 -87 34t-35 90zM575 996q0 32 20 50.5t57 18.5q52 0 87.5 -34 t35.5 -90q0 -32 -20.5 -50.5t-57.5 -18.5q-52 0 -87 34t-35 90zM764 180q0 33 20 51t57 18q52 0 87 -34t35 -90q0 -32 -20.5 -50.5t-57.5 -18.5q-52 0 -86.5 34t-34.5 90zM789 822q0 32 20 50.5t57 18.5q53 0 88 -34t35 -90q0 -32 -20.5 -50.5t-57.5 -18.5q-52 0 -87 34 t-35 90zM897 354q0 32 20 50.5t57 18.5q53 0 88 -34t35 -90q0 -32 -20.5 -50.5t-57.5 -18.5q-52 0 -87 34t-35 90zM903 588q0 32 20 50.5t57 18.5q53 0 88 -34t35 -90q0 -32 -20.5 -50.5t-57.5 -18.5q-52 0 -87 34t-35 90z" />
<glyph unicode="&#xfb30;" horiz-adv-x="1244" d="M-33 588q0 32 20 50.5t57 18.5q53 0 88 -34t35 -90q0 -32 -20.5 -50.5t-57.5 -18.5q-52 0 -87 34t-35 90zM-27 822q0 32 20 50.5t57 18.5q53 0 88 -34t35 -90q0 -32 -20.5 -50.5t-57.5 -18.5q-52 0 -87 34t-35 90zM81 354q0 32 20 50.5t57 18.5q53 0 88 -34t35 -90 q0 -32 -20.5 -50.5t-57.5 -18.5q-52 0 -87 34t-35 90zM107 996q0 32 20 50.5t57 18.5q52 0 87.5 -34t35.5 -90q0 -32 -20.5 -50.5t-57.5 -18.5q-52 0 -87 34t-35 90zM296 180q0 33 20 51t57 18q52 0 87 -34t35 -90q0 -32 -20.5 -50.5t-57.5 -18.5q-52 0 -86.5 34t-34.5 90z M327 1056q0 32 20 50.5t57 18.5q52 0 87.5 -34t35.5 -90q0 -32 -20.5 -50.5t-57.5 -18.5q-52 0 -87 34t-35 90zM543 120q0 32 20 50.5t57 18.5q53 0 88 -34t35 -90q0 -32 -20.5 -50.5t-57.5 -18.5q-52 0 -87 34t-35 90zM575 996q0 32 20 50.5t57 18.5q52 0 87.5 -34 t35.5 -90q0 -32 -20.5 -50.5t-57.5 -18.5q-52 0 -87 34t-35 90zM764 180q0 33 20 51t57 18q52 0 87 -34t35 -90q0 -32 -20.5 -50.5t-57.5 -18.5q-52 0 -86.5 34t-34.5 90zM789 822q0 32 20 50.5t57 18.5q53 0 88 -34t35 -90q0 -32 -20.5 -50.5t-57.5 -18.5q-52 0 -87 34 t-35 90zM897 354q0 32 20 50.5t57 18.5q53 0 88 -34t35 -90q0 -32 -20.5 -50.5t-57.5 -18.5q-52 0 -87 34t-35 90zM903 588q0 32 20 50.5t57 18.5q53 0 88 -34t35 -90q0 -32 -20.5 -50.5t-57.5 -18.5q-52 0 -87 34t-35 90z" />
<glyph unicode="&#xfb31;" horiz-adv-x="1244" d="M-33 588q0 32 20 50.5t57 18.5q53 0 88 -34t35 -90q0 -32 -20.5 -50.5t-57.5 -18.5q-52 0 -87 34t-35 90zM-27 822q0 32 20 50.5t57 18.5q53 0 88 -34t35 -90q0 -32 -20.5 -50.5t-57.5 -18.5q-52 0 -87 34t-35 90zM81 354q0 32 20 50.5t57 18.5q53 0 88 -34t35 -90 q0 -32 -20.5 -50.5t-57.5 -18.5q-52 0 -87 34t-35 90zM107 996q0 32 20 50.5t57 18.5q52 0 87.5 -34t35.5 -90q0 -32 -20.5 -50.5t-57.5 -18.5q-52 0 -87 34t-35 90zM296 180q0 33 20 51t57 18q52 0 87 -34t35 -90q0 -32 -20.5 -50.5t-57.5 -18.5q-52 0 -86.5 34t-34.5 90z M327 1056q0 32 20 50.5t57 18.5q52 0 87.5 -34t35.5 -90q0 -32 -20.5 -50.5t-57.5 -18.5q-52 0 -87 34t-35 90zM543 120q0 32 20 50.5t57 18.5q53 0 88 -34t35 -90q0 -32 -20.5 -50.5t-57.5 -18.5q-52 0 -87 34t-35 90zM575 996q0 32 20 50.5t57 18.5q52 0 87.5 -34 t35.5 -90q0 -32 -20.5 -50.5t-57.5 -18.5q-52 0 -87 34t-35 90zM764 180q0 33 20 51t57 18q52 0 87 -34t35 -90q0 -32 -20.5 -50.5t-57.5 -18.5q-52 0 -86.5 34t-34.5 90zM789 822q0 32 20 50.5t57 18.5q53 0 88 -34t35 -90q0 -32 -20.5 -50.5t-57.5 -18.5q-52 0 -87 34 t-35 90zM897 354q0 32 20 50.5t57 18.5q53 0 88 -34t35 -90q0 -32 -20.5 -50.5t-57.5 -18.5q-52 0 -87 34t-35 90zM903 588q0 32 20 50.5t57 18.5q53 0 88 -34t35 -90q0 -32 -20.5 -50.5t-57.5 -18.5q-52 0 -87 34t-35 90z" />
<glyph unicode="&#xfb32;" horiz-adv-x="1244" d="M-33 588q0 32 20 50.5t57 18.5q53 0 88 -34t35 -90q0 -32 -20.5 -50.5t-57.5 -18.5q-52 0 -87 34t-35 90zM-27 822q0 32 20 50.5t57 18.5q53 0 88 -34t35 -90q0 -32 -20.5 -50.5t-57.5 -18.5q-52 0 -87 34t-35 90zM81 354q0 32 20 50.5t57 18.5q53 0 88 -34t35 -90 q0 -32 -20.5 -50.5t-57.5 -18.5q-52 0 -87 34t-35 90zM107 996q0 32 20 50.5t57 18.5q52 0 87.5 -34t35.5 -90q0 -32 -20.5 -50.5t-57.5 -18.5q-52 0 -87 34t-35 90zM296 180q0 33 20 51t57 18q52 0 87 -34t35 -90q0 -32 -20.5 -50.5t-57.5 -18.5q-52 0 -86.5 34t-34.5 90z M327 1056q0 32 20 50.5t57 18.5q52 0 87.5 -34t35.5 -90q0 -32 -20.5 -50.5t-57.5 -18.5q-52 0 -87 34t-35 90zM543 120q0 32 20 50.5t57 18.5q53 0 88 -34t35 -90q0 -32 -20.5 -50.5t-57.5 -18.5q-52 0 -87 34t-35 90zM575 996q0 32 20 50.5t57 18.5q52 0 87.5 -34 t35.5 -90q0 -32 -20.5 -50.5t-57.5 -18.5q-52 0 -87 34t-35 90zM764 180q0 33 20 51t57 18q52 0 87 -34t35 -90q0 -32 -20.5 -50.5t-57.5 -18.5q-52 0 -86.5 34t-34.5 90zM789 822q0 32 20 50.5t57 18.5q53 0 88 -34t35 -90q0 -32 -20.5 -50.5t-57.5 -18.5q-52 0 -87 34 t-35 90zM897 354q0 32 20 50.5t57 18.5q53 0 88 -34t35 -90q0 -32 -20.5 -50.5t-57.5 -18.5q-52 0 -87 34t-35 90zM903 588q0 32 20 50.5t57 18.5q53 0 88 -34t35 -90q0 -32 -20.5 -50.5t-57.5 -18.5q-52 0 -87 34t-35 90z" />
<glyph unicode="&#xfb33;" horiz-adv-x="1244" d="M-33 588q0 32 20 50.5t57 18.5q53 0 88 -34t35 -90q0 -32 -20.5 -50.5t-57.5 -18.5q-52 0 -87 34t-35 90zM-27 822q0 32 20 50.5t57 18.5q53 0 88 -34t35 -90q0 -32 -20.5 -50.5t-57.5 -18.5q-52 0 -87 34t-35 90zM81 354q0 32 20 50.5t57 18.5q53 0 88 -34t35 -90 q0 -32 -20.5 -50.5t-57.5 -18.5q-52 0 -87 34t-35 90zM107 996q0 32 20 50.5t57 18.5q52 0 87.5 -34t35.5 -90q0 -32 -20.5 -50.5t-57.5 -18.5q-52 0 -87 34t-35 90zM296 180q0 33 20 51t57 18q52 0 87 -34t35 -90q0 -32 -20.5 -50.5t-57.5 -18.5q-52 0 -86.5 34t-34.5 90z M327 1056q0 32 20 50.5t57 18.5q52 0 87.5 -34t35.5 -90q0 -32 -20.5 -50.5t-57.5 -18.5q-52 0 -87 34t-35 90zM543 120q0 32 20 50.5t57 18.5q53 0 88 -34t35 -90q0 -32 -20.5 -50.5t-57.5 -18.5q-52 0 -87 34t-35 90zM575 996q0 32 20 50.5t57 18.5q52 0 87.5 -34 t35.5 -90q0 -32 -20.5 -50.5t-57.5 -18.5q-52 0 -87 34t-35 90zM764 180q0 33 20 51t57 18q52 0 87 -34t35 -90q0 -32 -20.5 -50.5t-57.5 -18.5q-52 0 -86.5 34t-34.5 90zM789 822q0 32 20 50.5t57 18.5q53 0 88 -34t35 -90q0 -32 -20.5 -50.5t-57.5 -18.5q-52 0 -87 34 t-35 90zM897 354q0 32 20 50.5t57 18.5q53 0 88 -34t35 -90q0 -32 -20.5 -50.5t-57.5 -18.5q-52 0 -87 34t-35 90zM903 588q0 32 20 50.5t57 18.5q53 0 88 -34t35 -90q0 -32 -20.5 -50.5t-57.5 -18.5q-52 0 -87 34t-35 90z" />
<glyph unicode="&#xfb34;" horiz-adv-x="1244" d="M-33 588q0 32 20 50.5t57 18.5q53 0 88 -34t35 -90q0 -32 -20.5 -50.5t-57.5 -18.5q-52 0 -87 34t-35 90zM-27 822q0 32 20 50.5t57 18.5q53 0 88 -34t35 -90q0 -32 -20.5 -50.5t-57.5 -18.5q-52 0 -87 34t-35 90zM81 354q0 32 20 50.5t57 18.5q53 0 88 -34t35 -90 q0 -32 -20.5 -50.5t-57.5 -18.5q-52 0 -87 34t-35 90zM107 996q0 32 20 50.5t57 18.5q52 0 87.5 -34t35.5 -90q0 -32 -20.5 -50.5t-57.5 -18.5q-52 0 -87 34t-35 90zM296 180q0 33 20 51t57 18q52 0 87 -34t35 -90q0 -32 -20.5 -50.5t-57.5 -18.5q-52 0 -86.5 34t-34.5 90z M327 1056q0 32 20 50.5t57 18.5q52 0 87.5 -34t35.5 -90q0 -32 -20.5 -50.5t-57.5 -18.5q-52 0 -87 34t-35 90zM543 120q0 32 20 50.5t57 18.5q53 0 88 -34t35 -90q0 -32 -20.5 -50.5t-57.5 -18.5q-52 0 -87 34t-35 90zM575 996q0 32 20 50.5t57 18.5q52 0 87.5 -34 t35.5 -90q0 -32 -20.5 -50.5t-57.5 -18.5q-52 0 -87 34t-35 90zM764 180q0 33 20 51t57 18q52 0 87 -34t35 -90q0 -32 -20.5 -50.5t-57.5 -18.5q-52 0 -86.5 34t-34.5 90zM789 822q0 32 20 50.5t57 18.5q53 0 88 -34t35 -90q0 -32 -20.5 -50.5t-57.5 -18.5q-52 0 -87 34 t-35 90zM897 354q0 32 20 50.5t57 18.5q53 0 88 -34t35 -90q0 -32 -20.5 -50.5t-57.5 -18.5q-52 0 -87 34t-35 90zM903 588q0 32 20 50.5t57 18.5q53 0 88 -34t35 -90q0 -32 -20.5 -50.5t-57.5 -18.5q-52 0 -87 34t-35 90z" />
<glyph unicode="&#xfb35;" horiz-adv-x="1244" d="M-33 588q0 32 20 50.5t57 18.5q53 0 88 -34t35 -90q0 -32 -20.5 -50.5t-57.5 -18.5q-52 0 -87 34t-35 90zM-27 822q0 32 20 50.5t57 18.5q53 0 88 -34t35 -90q0 -32 -20.5 -50.5t-57.5 -18.5q-52 0 -87 34t-35 90zM81 354q0 32 20 50.5t57 18.5q53 0 88 -34t35 -90 q0 -32 -20.5 -50.5t-57.5 -18.5q-52 0 -87 34t-35 90zM107 996q0 32 20 50.5t57 18.5q52 0 87.5 -34t35.5 -90q0 -32 -20.5 -50.5t-57.5 -18.5q-52 0 -87 34t-35 90zM296 180q0 33 20 51t57 18q52 0 87 -34t35 -90q0 -32 -20.5 -50.5t-57.5 -18.5q-52 0 -86.5 34t-34.5 90z M327 1056q0 32 20 50.5t57 18.5q52 0 87.5 -34t35.5 -90q0 -32 -20.5 -50.5t-57.5 -18.5q-52 0 -87 34t-35 90zM543 120q0 32 20 50.5t57 18.5q53 0 88 -34t35 -90q0 -32 -20.5 -50.5t-57.5 -18.5q-52 0 -87 34t-35 90zM575 996q0 32 20 50.5t57 18.5q52 0 87.5 -34 t35.5 -90q0 -32 -20.5 -50.5t-57.5 -18.5q-52 0 -87 34t-35 90zM764 180q0 33 20 51t57 18q52 0 87 -34t35 -90q0 -32 -20.5 -50.5t-57.5 -18.5q-52 0 -86.5 34t-34.5 90zM789 822q0 32 20 50.5t57 18.5q53 0 88 -34t35 -90q0 -32 -20.5 -50.5t-57.5 -18.5q-52 0 -87 34 t-35 90zM897 354q0 32 20 50.5t57 18.5q53 0 88 -34t35 -90q0 -32 -20.5 -50.5t-57.5 -18.5q-52 0 -87 34t-35 90zM903 588q0 32 20 50.5t57 18.5q53 0 88 -34t35 -90q0 -32 -20.5 -50.5t-57.5 -18.5q-52 0 -87 34t-35 90z" />
<glyph unicode="&#xfb36;" horiz-adv-x="1244" d="M-33 588q0 32 20 50.5t57 18.5q53 0 88 -34t35 -90q0 -32 -20.5 -50.5t-57.5 -18.5q-52 0 -87 34t-35 90zM-27 822q0 32 20 50.5t57 18.5q53 0 88 -34t35 -90q0 -32 -20.5 -50.5t-57.5 -18.5q-52 0 -87 34t-35 90zM81 354q0 32 20 50.5t57 18.5q53 0 88 -34t35 -90 q0 -32 -20.5 -50.5t-57.5 -18.5q-52 0 -87 34t-35 90zM107 996q0 32 20 50.5t57 18.5q52 0 87.5 -34t35.5 -90q0 -32 -20.5 -50.5t-57.5 -18.5q-52 0 -87 34t-35 90zM296 180q0 33 20 51t57 18q52 0 87 -34t35 -90q0 -32 -20.5 -50.5t-57.5 -18.5q-52 0 -86.5 34t-34.5 90z M327 1056q0 32 20 50.5t57 18.5q52 0 87.5 -34t35.5 -90q0 -32 -20.5 -50.5t-57.5 -18.5q-52 0 -87 34t-35 90zM543 120q0 32 20 50.5t57 18.5q53 0 88 -34t35 -90q0 -32 -20.5 -50.5t-57.5 -18.5q-52 0 -87 34t-35 90zM575 996q0 32 20 50.5t57 18.5q52 0 87.5 -34 t35.5 -90q0 -32 -20.5 -50.5t-57.5 -18.5q-52 0 -87 34t-35 90zM764 180q0 33 20 51t57 18q52 0 87 -34t35 -90q0 -32 -20.5 -50.5t-57.5 -18.5q-52 0 -86.5 34t-34.5 90zM789 822q0 32 20 50.5t57 18.5q53 0 88 -34t35 -90q0 -32 -20.5 -50.5t-57.5 -18.5q-52 0 -87 34 t-35 90zM897 354q0 32 20 50.5t57 18.5q53 0 88 -34t35 -90q0 -32 -20.5 -50.5t-57.5 -18.5q-52 0 -87 34t-35 90zM903 588q0 32 20 50.5t57 18.5q53 0 88 -34t35 -90q0 -32 -20.5 -50.5t-57.5 -18.5q-52 0 -87 34t-35 90z" />
<glyph unicode="&#xfb38;" horiz-adv-x="1244" d="M-33 588q0 32 20 50.5t57 18.5q53 0 88 -34t35 -90q0 -32 -20.5 -50.5t-57.5 -18.5q-52 0 -87 34t-35 90zM-27 822q0 32 20 50.5t57 18.5q53 0 88 -34t35 -90q0 -32 -20.5 -50.5t-57.5 -18.5q-52 0 -87 34t-35 90zM81 354q0 32 20 50.5t57 18.5q53 0 88 -34t35 -90 q0 -32 -20.5 -50.5t-57.5 -18.5q-52 0 -87 34t-35 90zM107 996q0 32 20 50.5t57 18.5q52 0 87.5 -34t35.5 -90q0 -32 -20.5 -50.5t-57.5 -18.5q-52 0 -87 34t-35 90zM296 180q0 33 20 51t57 18q52 0 87 -34t35 -90q0 -32 -20.5 -50.5t-57.5 -18.5q-52 0 -86.5 34t-34.5 90z M327 1056q0 32 20 50.5t57 18.5q52 0 87.5 -34t35.5 -90q0 -32 -20.5 -50.5t-57.5 -18.5q-52 0 -87 34t-35 90zM543 120q0 32 20 50.5t57 18.5q53 0 88 -34t35 -90q0 -32 -20.5 -50.5t-57.5 -18.5q-52 0 -87 34t-35 90zM575 996q0 32 20 50.5t57 18.5q52 0 87.5 -34 t35.5 -90q0 -32 -20.5 -50.5t-57.5 -18.5q-52 0 -87 34t-35 90zM764 180q0 33 20 51t57 18q52 0 87 -34t35 -90q0 -32 -20.5 -50.5t-57.5 -18.5q-52 0 -86.5 34t-34.5 90zM789 822q0 32 20 50.5t57 18.5q53 0 88 -34t35 -90q0 -32 -20.5 -50.5t-57.5 -18.5q-52 0 -87 34 t-35 90zM897 354q0 32 20 50.5t57 18.5q53 0 88 -34t35 -90q0 -32 -20.5 -50.5t-57.5 -18.5q-52 0 -87 34t-35 90zM903 588q0 32 20 50.5t57 18.5q53 0 88 -34t35 -90q0 -32 -20.5 -50.5t-57.5 -18.5q-52 0 -87 34t-35 90z" />
<glyph unicode="&#xfb39;" horiz-adv-x="1244" d="M-33 588q0 32 20 50.5t57 18.5q53 0 88 -34t35 -90q0 -32 -20.5 -50.5t-57.5 -18.5q-52 0 -87 34t-35 90zM-27 822q0 32 20 50.5t57 18.5q53 0 88 -34t35 -90q0 -32 -20.5 -50.5t-57.5 -18.5q-52 0 -87 34t-35 90zM81 354q0 32 20 50.5t57 18.5q53 0 88 -34t35 -90 q0 -32 -20.5 -50.5t-57.5 -18.5q-52 0 -87 34t-35 90zM107 996q0 32 20 50.5t57 18.5q52 0 87.5 -34t35.5 -90q0 -32 -20.5 -50.5t-57.5 -18.5q-52 0 -87 34t-35 90zM296 180q0 33 20 51t57 18q52 0 87 -34t35 -90q0 -32 -20.5 -50.5t-57.5 -18.5q-52 0 -86.5 34t-34.5 90z M327 1056q0 32 20 50.5t57 18.5q52 0 87.5 -34t35.5 -90q0 -32 -20.5 -50.5t-57.5 -18.5q-52 0 -87 34t-35 90zM543 120q0 32 20 50.5t57 18.5q53 0 88 -34t35 -90q0 -32 -20.5 -50.5t-57.5 -18.5q-52 0 -87 34t-35 90zM575 996q0 32 20 50.5t57 18.5q52 0 87.5 -34 t35.5 -90q0 -32 -20.5 -50.5t-57.5 -18.5q-52 0 -87 34t-35 90zM764 180q0 33 20 51t57 18q52 0 87 -34t35 -90q0 -32 -20.5 -50.5t-57.5 -18.5q-52 0 -86.5 34t-34.5 90zM789 822q0 32 20 50.5t57 18.5q53 0 88 -34t35 -90q0 -32 -20.5 -50.5t-57.5 -18.5q-52 0 -87 34 t-35 90zM897 354q0 32 20 50.5t57 18.5q53 0 88 -34t35 -90q0 -32 -20.5 -50.5t-57.5 -18.5q-52 0 -87 34t-35 90zM903 588q0 32 20 50.5t57 18.5q53 0 88 -34t35 -90q0 -32 -20.5 -50.5t-57.5 -18.5q-52 0 -87 34t-35 90z" />
<glyph unicode="&#xfb3a;" horiz-adv-x="1244" d="M-33 588q0 32 20 50.5t57 18.5q53 0 88 -34t35 -90q0 -32 -20.5 -50.5t-57.5 -18.5q-52 0 -87 34t-35 90zM-27 822q0 32 20 50.5t57 18.5q53 0 88 -34t35 -90q0 -32 -20.5 -50.5t-57.5 -18.5q-52 0 -87 34t-35 90zM81 354q0 32 20 50.5t57 18.5q53 0 88 -34t35 -90 q0 -32 -20.5 -50.5t-57.5 -18.5q-52 0 -87 34t-35 90zM107 996q0 32 20 50.5t57 18.5q52 0 87.5 -34t35.5 -90q0 -32 -20.5 -50.5t-57.5 -18.5q-52 0 -87 34t-35 90zM296 180q0 33 20 51t57 18q52 0 87 -34t35 -90q0 -32 -20.5 -50.5t-57.5 -18.5q-52 0 -86.5 34t-34.5 90z M327 1056q0 32 20 50.5t57 18.5q52 0 87.5 -34t35.5 -90q0 -32 -20.5 -50.5t-57.5 -18.5q-52 0 -87 34t-35 90zM543 120q0 32 20 50.5t57 18.5q53 0 88 -34t35 -90q0 -32 -20.5 -50.5t-57.5 -18.5q-52 0 -87 34t-35 90zM575 996q0 32 20 50.5t57 18.5q52 0 87.5 -34 t35.5 -90q0 -32 -20.5 -50.5t-57.5 -18.5q-52 0 -87 34t-35 90zM764 180q0 33 20 51t57 18q52 0 87 -34t35 -90q0 -32 -20.5 -50.5t-57.5 -18.5q-52 0 -86.5 34t-34.5 90zM789 822q0 32 20 50.5t57 18.5q53 0 88 -34t35 -90q0 -32 -20.5 -50.5t-57.5 -18.5q-52 0 -87 34 t-35 90zM897 354q0 32 20 50.5t57 18.5q53 0 88 -34t35 -90q0 -32 -20.5 -50.5t-57.5 -18.5q-52 0 -87 34t-35 90zM903 588q0 32 20 50.5t57 18.5q53 0 88 -34t35 -90q0 -32 -20.5 -50.5t-57.5 -18.5q-52 0 -87 34t-35 90z" />
<glyph unicode="&#xfb3b;" horiz-adv-x="1244" d="M-33 588q0 32 20 50.5t57 18.5q53 0 88 -34t35 -90q0 -32 -20.5 -50.5t-57.5 -18.5q-52 0 -87 34t-35 90zM-27 822q0 32 20 50.5t57 18.5q53 0 88 -34t35 -90q0 -32 -20.5 -50.5t-57.5 -18.5q-52 0 -87 34t-35 90zM81 354q0 32 20 50.5t57 18.5q53 0 88 -34t35 -90 q0 -32 -20.5 -50.5t-57.5 -18.5q-52 0 -87 34t-35 90zM107 996q0 32 20 50.5t57 18.5q52 0 87.5 -34t35.5 -90q0 -32 -20.5 -50.5t-57.5 -18.5q-52 0 -87 34t-35 90zM296 180q0 33 20 51t57 18q52 0 87 -34t35 -90q0 -32 -20.5 -50.5t-57.5 -18.5q-52 0 -86.5 34t-34.5 90z M327 1056q0 32 20 50.5t57 18.5q52 0 87.5 -34t35.5 -90q0 -32 -20.5 -50.5t-57.5 -18.5q-52 0 -87 34t-35 90zM543 120q0 32 20 50.5t57 18.5q53 0 88 -34t35 -90q0 -32 -20.5 -50.5t-57.5 -18.5q-52 0 -87 34t-35 90zM575 996q0 32 20 50.5t57 18.5q52 0 87.5 -34 t35.5 -90q0 -32 -20.5 -50.5t-57.5 -18.5q-52 0 -87 34t-35 90zM764 180q0 33 20 51t57 18q52 0 87 -34t35 -90q0 -32 -20.5 -50.5t-57.5 -18.5q-52 0 -86.5 34t-34.5 90zM789 822q0 32 20 50.5t57 18.5q53 0 88 -34t35 -90q0 -32 -20.5 -50.5t-57.5 -18.5q-52 0 -87 34 t-35 90zM897 354q0 32 20 50.5t57 18.5q53 0 88 -34t35 -90q0 -32 -20.5 -50.5t-57.5 -18.5q-52 0 -87 34t-35 90zM903 588q0 32 20 50.5t57 18.5q53 0 88 -34t35 -90q0 -32 -20.5 -50.5t-57.5 -18.5q-52 0 -87 34t-35 90z" />
<glyph unicode="&#xfb3c;" horiz-adv-x="1244" d="M-33 588q0 32 20 50.5t57 18.5q53 0 88 -34t35 -90q0 -32 -20.5 -50.5t-57.5 -18.5q-52 0 -87 34t-35 90zM-27 822q0 32 20 50.5t57 18.5q53 0 88 -34t35 -90q0 -32 -20.5 -50.5t-57.5 -18.5q-52 0 -87 34t-35 90zM81 354q0 32 20 50.5t57 18.5q53 0 88 -34t35 -90 q0 -32 -20.5 -50.5t-57.5 -18.5q-52 0 -87 34t-35 90zM107 996q0 32 20 50.5t57 18.5q52 0 87.5 -34t35.5 -90q0 -32 -20.5 -50.5t-57.5 -18.5q-52 0 -87 34t-35 90zM296 180q0 33 20 51t57 18q52 0 87 -34t35 -90q0 -32 -20.5 -50.5t-57.5 -18.5q-52 0 -86.5 34t-34.5 90z M327 1056q0 32 20 50.5t57 18.5q52 0 87.5 -34t35.5 -90q0 -32 -20.5 -50.5t-57.5 -18.5q-52 0 -87 34t-35 90zM543 120q0 32 20 50.5t57 18.5q53 0 88 -34t35 -90q0 -32 -20.5 -50.5t-57.5 -18.5q-52 0 -87 34t-35 90zM575 996q0 32 20 50.5t57 18.5q52 0 87.5 -34 t35.5 -90q0 -32 -20.5 -50.5t-57.5 -18.5q-52 0 -87 34t-35 90zM764 180q0 33 20 51t57 18q52 0 87 -34t35 -90q0 -32 -20.5 -50.5t-57.5 -18.5q-52 0 -86.5 34t-34.5 90zM789 822q0 32 20 50.5t57 18.5q53 0 88 -34t35 -90q0 -32 -20.5 -50.5t-57.5 -18.5q-52 0 -87 34 t-35 90zM897 354q0 32 20 50.5t57 18.5q53 0 88 -34t35 -90q0 -32 -20.5 -50.5t-57.5 -18.5q-52 0 -87 34t-35 90zM903 588q0 32 20 50.5t57 18.5q53 0 88 -34t35 -90q0 -32 -20.5 -50.5t-57.5 -18.5q-52 0 -87 34t-35 90z" />
<glyph unicode="&#xfb3e;" horiz-adv-x="1244" d="M-33 588q0 32 20 50.5t57 18.5q53 0 88 -34t35 -90q0 -32 -20.5 -50.5t-57.5 -18.5q-52 0 -87 34t-35 90zM-27 822q0 32 20 50.5t57 18.5q53 0 88 -34t35 -90q0 -32 -20.5 -50.5t-57.5 -18.5q-52 0 -87 34t-35 90zM81 354q0 32 20 50.5t57 18.5q53 0 88 -34t35 -90 q0 -32 -20.5 -50.5t-57.5 -18.5q-52 0 -87 34t-35 90zM107 996q0 32 20 50.5t57 18.5q52 0 87.5 -34t35.5 -90q0 -32 -20.5 -50.5t-57.5 -18.5q-52 0 -87 34t-35 90zM296 180q0 33 20 51t57 18q52 0 87 -34t35 -90q0 -32 -20.5 -50.5t-57.5 -18.5q-52 0 -86.5 34t-34.5 90z M327 1056q0 32 20 50.5t57 18.5q52 0 87.5 -34t35.5 -90q0 -32 -20.5 -50.5t-57.5 -18.5q-52 0 -87 34t-35 90zM543 120q0 32 20 50.5t57 18.5q53 0 88 -34t35 -90q0 -32 -20.5 -50.5t-57.5 -18.5q-52 0 -87 34t-35 90zM575 996q0 32 20 50.5t57 18.5q52 0 87.5 -34 t35.5 -90q0 -32 -20.5 -50.5t-57.5 -18.5q-52 0 -87 34t-35 90zM764 180q0 33 20 51t57 18q52 0 87 -34t35 -90q0 -32 -20.5 -50.5t-57.5 -18.5q-52 0 -86.5 34t-34.5 90zM789 822q0 32 20 50.5t57 18.5q53 0 88 -34t35 -90q0 -32 -20.5 -50.5t-57.5 -18.5q-52 0 -87 34 t-35 90zM897 354q0 32 20 50.5t57 18.5q53 0 88 -34t35 -90q0 -32 -20.5 -50.5t-57.5 -18.5q-52 0 -87 34t-35 90zM903 588q0 32 20 50.5t57 18.5q53 0 88 -34t35 -90q0 -32 -20.5 -50.5t-57.5 -18.5q-52 0 -87 34t-35 90z" />
<glyph unicode="&#xfb40;" horiz-adv-x="1244" d="M-33 588q0 32 20 50.5t57 18.5q53 0 88 -34t35 -90q0 -32 -20.5 -50.5t-57.5 -18.5q-52 0 -87 34t-35 90zM-27 822q0 32 20 50.5t57 18.5q53 0 88 -34t35 -90q0 -32 -20.5 -50.5t-57.5 -18.5q-52 0 -87 34t-35 90zM81 354q0 32 20 50.5t57 18.5q53 0 88 -34t35 -90 q0 -32 -20.5 -50.5t-57.5 -18.5q-52 0 -87 34t-35 90zM107 996q0 32 20 50.5t57 18.5q52 0 87.5 -34t35.5 -90q0 -32 -20.5 -50.5t-57.5 -18.5q-52 0 -87 34t-35 90zM296 180q0 33 20 51t57 18q52 0 87 -34t35 -90q0 -32 -20.5 -50.5t-57.5 -18.5q-52 0 -86.5 34t-34.5 90z M327 1056q0 32 20 50.5t57 18.5q52 0 87.5 -34t35.5 -90q0 -32 -20.5 -50.5t-57.5 -18.5q-52 0 -87 34t-35 90zM543 120q0 32 20 50.5t57 18.5q53 0 88 -34t35 -90q0 -32 -20.5 -50.5t-57.5 -18.5q-52 0 -87 34t-35 90zM575 996q0 32 20 50.5t57 18.5q52 0 87.5 -34 t35.5 -90q0 -32 -20.5 -50.5t-57.5 -18.5q-52 0 -87 34t-35 90zM764 180q0 33 20 51t57 18q52 0 87 -34t35 -90q0 -32 -20.5 -50.5t-57.5 -18.5q-52 0 -86.5 34t-34.5 90zM789 822q0 32 20 50.5t57 18.5q53 0 88 -34t35 -90q0 -32 -20.5 -50.5t-57.5 -18.5q-52 0 -87 34 t-35 90zM897 354q0 32 20 50.5t57 18.5q53 0 88 -34t35 -90q0 -32 -20.5 -50.5t-57.5 -18.5q-52 0 -87 34t-35 90zM903 588q0 32 20 50.5t57 18.5q53 0 88 -34t35 -90q0 -32 -20.5 -50.5t-57.5 -18.5q-52 0 -87 34t-35 90z" />
<glyph unicode="&#xfb41;" horiz-adv-x="1244" d="M-33 588q0 32 20 50.5t57 18.5q53 0 88 -34t35 -90q0 -32 -20.5 -50.5t-57.5 -18.5q-52 0 -87 34t-35 90zM-27 822q0 32 20 50.5t57 18.5q53 0 88 -34t35 -90q0 -32 -20.5 -50.5t-57.5 -18.5q-52 0 -87 34t-35 90zM81 354q0 32 20 50.5t57 18.5q53 0 88 -34t35 -90 q0 -32 -20.5 -50.5t-57.5 -18.5q-52 0 -87 34t-35 90zM107 996q0 32 20 50.5t57 18.5q52 0 87.5 -34t35.5 -90q0 -32 -20.5 -50.5t-57.5 -18.5q-52 0 -87 34t-35 90zM296 180q0 33 20 51t57 18q52 0 87 -34t35 -90q0 -32 -20.5 -50.5t-57.5 -18.5q-52 0 -86.5 34t-34.5 90z M327 1056q0 32 20 50.5t57 18.5q52 0 87.5 -34t35.5 -90q0 -32 -20.5 -50.5t-57.5 -18.5q-52 0 -87 34t-35 90zM543 120q0 32 20 50.5t57 18.5q53 0 88 -34t35 -90q0 -32 -20.5 -50.5t-57.5 -18.5q-52 0 -87 34t-35 90zM575 996q0 32 20 50.5t57 18.5q52 0 87.5 -34 t35.5 -90q0 -32 -20.5 -50.5t-57.5 -18.5q-52 0 -87 34t-35 90zM764 180q0 33 20 51t57 18q52 0 87 -34t35 -90q0 -32 -20.5 -50.5t-57.5 -18.5q-52 0 -86.5 34t-34.5 90zM789 822q0 32 20 50.5t57 18.5q53 0 88 -34t35 -90q0 -32 -20.5 -50.5t-57.5 -18.5q-52 0 -87 34 t-35 90zM897 354q0 32 20 50.5t57 18.5q53 0 88 -34t35 -90q0 -32 -20.5 -50.5t-57.5 -18.5q-52 0 -87 34t-35 90zM903 588q0 32 20 50.5t57 18.5q53 0 88 -34t35 -90q0 -32 -20.5 -50.5t-57.5 -18.5q-52 0 -87 34t-35 90z" />
<glyph unicode="&#xfb43;" horiz-adv-x="1244" d="M-33 588q0 32 20 50.5t57 18.5q53 0 88 -34t35 -90q0 -32 -20.5 -50.5t-57.5 -18.5q-52 0 -87 34t-35 90zM-27 822q0 32 20 50.5t57 18.5q53 0 88 -34t35 -90q0 -32 -20.5 -50.5t-57.5 -18.5q-52 0 -87 34t-35 90zM81 354q0 32 20 50.5t57 18.5q53 0 88 -34t35 -90 q0 -32 -20.5 -50.5t-57.5 -18.5q-52 0 -87 34t-35 90zM107 996q0 32 20 50.5t57 18.5q52 0 87.5 -34t35.5 -90q0 -32 -20.5 -50.5t-57.5 -18.5q-52 0 -87 34t-35 90zM296 180q0 33 20 51t57 18q52 0 87 -34t35 -90q0 -32 -20.5 -50.5t-57.5 -18.5q-52 0 -86.5 34t-34.5 90z M327 1056q0 32 20 50.5t57 18.5q52 0 87.5 -34t35.5 -90q0 -32 -20.5 -50.5t-57.5 -18.5q-52 0 -87 34t-35 90zM543 120q0 32 20 50.5t57 18.5q53 0 88 -34t35 -90q0 -32 -20.5 -50.5t-57.5 -18.5q-52 0 -87 34t-35 90zM575 996q0 32 20 50.5t57 18.5q52 0 87.5 -34 t35.5 -90q0 -32 -20.5 -50.5t-57.5 -18.5q-52 0 -87 34t-35 90zM764 180q0 33 20 51t57 18q52 0 87 -34t35 -90q0 -32 -20.5 -50.5t-57.5 -18.5q-52 0 -86.5 34t-34.5 90zM789 822q0 32 20 50.5t57 18.5q53 0 88 -34t35 -90q0 -32 -20.5 -50.5t-57.5 -18.5q-52 0 -87 34 t-35 90zM897 354q0 32 20 50.5t57 18.5q53 0 88 -34t35 -90q0 -32 -20.5 -50.5t-57.5 -18.5q-52 0 -87 34t-35 90zM903 588q0 32 20 50.5t57 18.5q53 0 88 -34t35 -90q0 -32 -20.5 -50.5t-57.5 -18.5q-52 0 -87 34t-35 90z" />
<glyph unicode="&#xfb44;" horiz-adv-x="1244" d="M-33 588q0 32 20 50.5t57 18.5q53 0 88 -34t35 -90q0 -32 -20.5 -50.5t-57.5 -18.5q-52 0 -87 34t-35 90zM-27 822q0 32 20 50.5t57 18.5q53 0 88 -34t35 -90q0 -32 -20.5 -50.5t-57.5 -18.5q-52 0 -87 34t-35 90zM81 354q0 32 20 50.5t57 18.5q53 0 88 -34t35 -90 q0 -32 -20.5 -50.5t-57.5 -18.5q-52 0 -87 34t-35 90zM107 996q0 32 20 50.5t57 18.5q52 0 87.5 -34t35.5 -90q0 -32 -20.5 -50.5t-57.5 -18.5q-52 0 -87 34t-35 90zM296 180q0 33 20 51t57 18q52 0 87 -34t35 -90q0 -32 -20.5 -50.5t-57.5 -18.5q-52 0 -86.5 34t-34.5 90z M327 1056q0 32 20 50.5t57 18.5q52 0 87.5 -34t35.5 -90q0 -32 -20.5 -50.5t-57.5 -18.5q-52 0 -87 34t-35 90zM543 120q0 32 20 50.5t57 18.5q53 0 88 -34t35 -90q0 -32 -20.5 -50.5t-57.5 -18.5q-52 0 -87 34t-35 90zM575 996q0 32 20 50.5t57 18.5q52 0 87.5 -34 t35.5 -90q0 -32 -20.5 -50.5t-57.5 -18.5q-52 0 -87 34t-35 90zM764 180q0 33 20 51t57 18q52 0 87 -34t35 -90q0 -32 -20.5 -50.5t-57.5 -18.5q-52 0 -86.5 34t-34.5 90zM789 822q0 32 20 50.5t57 18.5q53 0 88 -34t35 -90q0 -32 -20.5 -50.5t-57.5 -18.5q-52 0 -87 34 t-35 90zM897 354q0 32 20 50.5t57 18.5q53 0 88 -34t35 -90q0 -32 -20.5 -50.5t-57.5 -18.5q-52 0 -87 34t-35 90zM903 588q0 32 20 50.5t57 18.5q53 0 88 -34t35 -90q0 -32 -20.5 -50.5t-57.5 -18.5q-52 0 -87 34t-35 90z" />
<glyph unicode="&#xfb46;" horiz-adv-x="1244" d="M-33 588q0 32 20 50.5t57 18.5q53 0 88 -34t35 -90q0 -32 -20.5 -50.5t-57.5 -18.5q-52 0 -87 34t-35 90zM-27 822q0 32 20 50.5t57 18.5q53 0 88 -34t35 -90q0 -32 -20.5 -50.5t-57.5 -18.5q-52 0 -87 34t-35 90zM81 354q0 32 20 50.5t57 18.5q53 0 88 -34t35 -90 q0 -32 -20.5 -50.5t-57.5 -18.5q-52 0 -87 34t-35 90zM107 996q0 32 20 50.5t57 18.5q52 0 87.5 -34t35.5 -90q0 -32 -20.5 -50.5t-57.5 -18.5q-52 0 -87 34t-35 90zM296 180q0 33 20 51t57 18q52 0 87 -34t35 -90q0 -32 -20.5 -50.5t-57.5 -18.5q-52 0 -86.5 34t-34.5 90z M327 1056q0 32 20 50.5t57 18.5q52 0 87.5 -34t35.5 -90q0 -32 -20.5 -50.5t-57.5 -18.5q-52 0 -87 34t-35 90zM543 120q0 32 20 50.5t57 18.5q53 0 88 -34t35 -90q0 -32 -20.5 -50.5t-57.5 -18.5q-52 0 -87 34t-35 90zM575 996q0 32 20 50.5t57 18.5q52 0 87.5 -34 t35.5 -90q0 -32 -20.5 -50.5t-57.5 -18.5q-52 0 -87 34t-35 90zM764 180q0 33 20 51t57 18q52 0 87 -34t35 -90q0 -32 -20.5 -50.5t-57.5 -18.5q-52 0 -86.5 34t-34.5 90zM789 822q0 32 20 50.5t57 18.5q53 0 88 -34t35 -90q0 -32 -20.5 -50.5t-57.5 -18.5q-52 0 -87 34 t-35 90zM897 354q0 32 20 50.5t57 18.5q53 0 88 -34t35 -90q0 -32 -20.5 -50.5t-57.5 -18.5q-52 0 -87 34t-35 90zM903 588q0 32 20 50.5t57 18.5q53 0 88 -34t35 -90q0 -32 -20.5 -50.5t-57.5 -18.5q-52 0 -87 34t-35 90z" />
<glyph unicode="&#xfb47;" horiz-adv-x="1244" d="M-33 588q0 32 20 50.5t57 18.5q53 0 88 -34t35 -90q0 -32 -20.5 -50.5t-57.5 -18.5q-52 0 -87 34t-35 90zM-27 822q0 32 20 50.5t57 18.5q53 0 88 -34t35 -90q0 -32 -20.5 -50.5t-57.5 -18.5q-52 0 -87 34t-35 90zM81 354q0 32 20 50.5t57 18.5q53 0 88 -34t35 -90 q0 -32 -20.5 -50.5t-57.5 -18.5q-52 0 -87 34t-35 90zM107 996q0 32 20 50.5t57 18.5q52 0 87.5 -34t35.5 -90q0 -32 -20.5 -50.5t-57.5 -18.5q-52 0 -87 34t-35 90zM296 180q0 33 20 51t57 18q52 0 87 -34t35 -90q0 -32 -20.5 -50.5t-57.5 -18.5q-52 0 -86.5 34t-34.5 90z M327 1056q0 32 20 50.5t57 18.5q52 0 87.5 -34t35.5 -90q0 -32 -20.5 -50.5t-57.5 -18.5q-52 0 -87 34t-35 90zM543 120q0 32 20 50.5t57 18.5q53 0 88 -34t35 -90q0 -32 -20.5 -50.5t-57.5 -18.5q-52 0 -87 34t-35 90zM575 996q0 32 20 50.5t57 18.5q52 0 87.5 -34 t35.5 -90q0 -32 -20.5 -50.5t-57.5 -18.5q-52 0 -87 34t-35 90zM764 180q0 33 20 51t57 18q52 0 87 -34t35 -90q0 -32 -20.5 -50.5t-57.5 -18.5q-52 0 -86.5 34t-34.5 90zM789 822q0 32 20 50.5t57 18.5q53 0 88 -34t35 -90q0 -32 -20.5 -50.5t-57.5 -18.5q-52 0 -87 34 t-35 90zM897 354q0 32 20 50.5t57 18.5q53 0 88 -34t35 -90q0 -32 -20.5 -50.5t-57.5 -18.5q-52 0 -87 34t-35 90zM903 588q0 32 20 50.5t57 18.5q53 0 88 -34t35 -90q0 -32 -20.5 -50.5t-57.5 -18.5q-52 0 -87 34t-35 90z" />
<glyph unicode="&#xfb48;" horiz-adv-x="1244" d="M-33 588q0 32 20 50.5t57 18.5q53 0 88 -34t35 -90q0 -32 -20.5 -50.5t-57.5 -18.5q-52 0 -87 34t-35 90zM-27 822q0 32 20 50.5t57 18.5q53 0 88 -34t35 -90q0 -32 -20.5 -50.5t-57.5 -18.5q-52 0 -87 34t-35 90zM81 354q0 32 20 50.5t57 18.5q53 0 88 -34t35 -90 q0 -32 -20.5 -50.5t-57.5 -18.5q-52 0 -87 34t-35 90zM107 996q0 32 20 50.5t57 18.5q52 0 87.5 -34t35.5 -90q0 -32 -20.5 -50.5t-57.5 -18.5q-52 0 -87 34t-35 90zM296 180q0 33 20 51t57 18q52 0 87 -34t35 -90q0 -32 -20.5 -50.5t-57.5 -18.5q-52 0 -86.5 34t-34.5 90z M327 1056q0 32 20 50.5t57 18.5q52 0 87.5 -34t35.5 -90q0 -32 -20.5 -50.5t-57.5 -18.5q-52 0 -87 34t-35 90zM543 120q0 32 20 50.5t57 18.5q53 0 88 -34t35 -90q0 -32 -20.5 -50.5t-57.5 -18.5q-52 0 -87 34t-35 90zM575 996q0 32 20 50.5t57 18.5q52 0 87.5 -34 t35.5 -90q0 -32 -20.5 -50.5t-57.5 -18.5q-52 0 -87 34t-35 90zM764 180q0 33 20 51t57 18q52 0 87 -34t35 -90q0 -32 -20.5 -50.5t-57.5 -18.5q-52 0 -86.5 34t-34.5 90zM789 822q0 32 20 50.5t57 18.5q53 0 88 -34t35 -90q0 -32 -20.5 -50.5t-57.5 -18.5q-52 0 -87 34 t-35 90zM897 354q0 32 20 50.5t57 18.5q53 0 88 -34t35 -90q0 -32 -20.5 -50.5t-57.5 -18.5q-52 0 -87 34t-35 90zM903 588q0 32 20 50.5t57 18.5q53 0 88 -34t35 -90q0 -32 -20.5 -50.5t-57.5 -18.5q-52 0 -87 34t-35 90z" />
<glyph unicode="&#xfb49;" horiz-adv-x="1244" d="M-33 588q0 32 20 50.5t57 18.5q53 0 88 -34t35 -90q0 -32 -20.5 -50.5t-57.5 -18.5q-52 0 -87 34t-35 90zM-27 822q0 32 20 50.5t57 18.5q53 0 88 -34t35 -90q0 -32 -20.5 -50.5t-57.5 -18.5q-52 0 -87 34t-35 90zM81 354q0 32 20 50.5t57 18.5q53 0 88 -34t35 -90 q0 -32 -20.5 -50.5t-57.5 -18.5q-52 0 -87 34t-35 90zM107 996q0 32 20 50.5t57 18.5q52 0 87.5 -34t35.5 -90q0 -32 -20.5 -50.5t-57.5 -18.5q-52 0 -87 34t-35 90zM296 180q0 33 20 51t57 18q52 0 87 -34t35 -90q0 -32 -20.5 -50.5t-57.5 -18.5q-52 0 -86.5 34t-34.5 90z M327 1056q0 32 20 50.5t57 18.5q52 0 87.5 -34t35.5 -90q0 -32 -20.5 -50.5t-57.5 -18.5q-52 0 -87 34t-35 90zM543 120q0 32 20 50.5t57 18.5q53 0 88 -34t35 -90q0 -32 -20.5 -50.5t-57.5 -18.5q-52 0 -87 34t-35 90zM575 996q0 32 20 50.5t57 18.5q52 0 87.5 -34 t35.5 -90q0 -32 -20.5 -50.5t-57.5 -18.5q-52 0 -87 34t-35 90zM764 180q0 33 20 51t57 18q52 0 87 -34t35 -90q0 -32 -20.5 -50.5t-57.5 -18.5q-52 0 -86.5 34t-34.5 90zM789 822q0 32 20 50.5t57 18.5q53 0 88 -34t35 -90q0 -32 -20.5 -50.5t-57.5 -18.5q-52 0 -87 34 t-35 90zM897 354q0 32 20 50.5t57 18.5q53 0 88 -34t35 -90q0 -32 -20.5 -50.5t-57.5 -18.5q-52 0 -87 34t-35 90zM903 588q0 32 20 50.5t57 18.5q53 0 88 -34t35 -90q0 -32 -20.5 -50.5t-57.5 -18.5q-52 0 -87 34t-35 90z" />
<glyph unicode="&#xfb4a;" horiz-adv-x="1244" d="M-33 588q0 32 20 50.5t57 18.5q53 0 88 -34t35 -90q0 -32 -20.5 -50.5t-57.5 -18.5q-52 0 -87 34t-35 90zM-27 822q0 32 20 50.5t57 18.5q53 0 88 -34t35 -90q0 -32 -20.5 -50.5t-57.5 -18.5q-52 0 -87 34t-35 90zM81 354q0 32 20 50.5t57 18.5q53 0 88 -34t35 -90 q0 -32 -20.5 -50.5t-57.5 -18.5q-52 0 -87 34t-35 90zM107 996q0 32 20 50.5t57 18.5q52 0 87.5 -34t35.5 -90q0 -32 -20.5 -50.5t-57.5 -18.5q-52 0 -87 34t-35 90zM296 180q0 33 20 51t57 18q52 0 87 -34t35 -90q0 -32 -20.5 -50.5t-57.5 -18.5q-52 0 -86.5 34t-34.5 90z M327 1056q0 32 20 50.5t57 18.5q52 0 87.5 -34t35.5 -90q0 -32 -20.5 -50.5t-57.5 -18.5q-52 0 -87 34t-35 90zM543 120q0 32 20 50.5t57 18.5q53 0 88 -34t35 -90q0 -32 -20.5 -50.5t-57.5 -18.5q-52 0 -87 34t-35 90zM575 996q0 32 20 50.5t57 18.5q52 0 87.5 -34 t35.5 -90q0 -32 -20.5 -50.5t-57.5 -18.5q-52 0 -87 34t-35 90zM764 180q0 33 20 51t57 18q52 0 87 -34t35 -90q0 -32 -20.5 -50.5t-57.5 -18.5q-52 0 -86.5 34t-34.5 90zM789 822q0 32 20 50.5t57 18.5q53 0 88 -34t35 -90q0 -32 -20.5 -50.5t-57.5 -18.5q-52 0 -87 34 t-35 90zM897 354q0 32 20 50.5t57 18.5q53 0 88 -34t35 -90q0 -32 -20.5 -50.5t-57.5 -18.5q-52 0 -87 34t-35 90zM903 588q0 32 20 50.5t57 18.5q53 0 88 -34t35 -90q0 -32 -20.5 -50.5t-57.5 -18.5q-52 0 -87 34t-35 90z" />
<glyph unicode="&#xfb4b;" horiz-adv-x="648" d="M-165 1177q0 47 26 47h4q49 -49 96 -63l144 -45q91 -28 138 -86t60 -112l199 -860l7 -73q-2 -19 -20.5 -31t-37.5 -12q-20 0 -38 16t-27 46l-219 734q-10 29 -17 44t-22.5 34.5t-41 32.5t-65.5 25q-74 22 -105.5 43t-40.5 61l-33 149q-7 23 -7 50zM11 1393 q0 34 19.5 54.5t52.5 20.5q48 0 83.5 -39.5t35.5 -90.5q0 -33 -19.5 -53.5t-51.5 -20.5q-48 0 -84 39.5t-36 89.5z" />
<glyph unicode="&#xfb4c;" horiz-adv-x="1244" d="M-33 588q0 32 20 50.5t57 18.5q53 0 88 -34t35 -90q0 -32 -20.5 -50.5t-57.5 -18.5q-52 0 -87 34t-35 90zM-27 822q0 32 20 50.5t57 18.5q53 0 88 -34t35 -90q0 -32 -20.5 -50.5t-57.5 -18.5q-52 0 -87 34t-35 90zM81 354q0 32 20 50.5t57 18.5q53 0 88 -34t35 -90 q0 -32 -20.5 -50.5t-57.5 -18.5q-52 0 -87 34t-35 90zM107 996q0 32 20 50.5t57 18.5q52 0 87.5 -34t35.5 -90q0 -32 -20.5 -50.5t-57.5 -18.5q-52 0 -87 34t-35 90zM296 180q0 33 20 51t57 18q52 0 87 -34t35 -90q0 -32 -20.5 -50.5t-57.5 -18.5q-52 0 -86.5 34t-34.5 90z M327 1056q0 32 20 50.5t57 18.5q52 0 87.5 -34t35.5 -90q0 -32 -20.5 -50.5t-57.5 -18.5q-52 0 -87 34t-35 90zM543 120q0 32 20 50.5t57 18.5q53 0 88 -34t35 -90q0 -32 -20.5 -50.5t-57.5 -18.5q-52 0 -87 34t-35 90zM575 996q0 32 20 50.5t57 18.5q52 0 87.5 -34 t35.5 -90q0 -32 -20.5 -50.5t-57.5 -18.5q-52 0 -87 34t-35 90zM764 180q0 33 20 51t57 18q52 0 87 -34t35 -90q0 -32 -20.5 -50.5t-57.5 -18.5q-52 0 -86.5 34t-34.5 90zM789 822q0 32 20 50.5t57 18.5q53 0 88 -34t35 -90q0 -32 -20.5 -50.5t-57.5 -18.5q-52 0 -87 34 t-35 90zM897 354q0 32 20 50.5t57 18.5q53 0 88 -34t35 -90q0 -32 -20.5 -50.5t-57.5 -18.5q-52 0 -87 34t-35 90zM903 588q0 32 20 50.5t57 18.5q53 0 88 -34t35 -90q0 -32 -20.5 -50.5t-57.5 -18.5q-52 0 -87 34t-35 90z" />
<glyph unicode="&#xfb4d;" horiz-adv-x="1244" d="M-33 588q0 32 20 50.5t57 18.5q53 0 88 -34t35 -90q0 -32 -20.5 -50.5t-57.5 -18.5q-52 0 -87 34t-35 90zM-27 822q0 32 20 50.5t57 18.5q53 0 88 -34t35 -90q0 -32 -20.5 -50.5t-57.5 -18.5q-52 0 -87 34t-35 90zM81 354q0 32 20 50.5t57 18.5q53 0 88 -34t35 -90 q0 -32 -20.5 -50.5t-57.5 -18.5q-52 0 -87 34t-35 90zM107 996q0 32 20 50.5t57 18.5q52 0 87.5 -34t35.5 -90q0 -32 -20.5 -50.5t-57.5 -18.5q-52 0 -87 34t-35 90zM296 180q0 33 20 51t57 18q52 0 87 -34t35 -90q0 -32 -20.5 -50.5t-57.5 -18.5q-52 0 -86.5 34t-34.5 90z M327 1056q0 32 20 50.5t57 18.5q52 0 87.5 -34t35.5 -90q0 -32 -20.5 -50.5t-57.5 -18.5q-52 0 -87 34t-35 90zM543 120q0 32 20 50.5t57 18.5q53 0 88 -34t35 -90q0 -32 -20.5 -50.5t-57.5 -18.5q-52 0 -87 34t-35 90zM575 996q0 32 20 50.5t57 18.5q52 0 87.5 -34 t35.5 -90q0 -32 -20.5 -50.5t-57.5 -18.5q-52 0 -87 34t-35 90zM764 180q0 33 20 51t57 18q52 0 87 -34t35 -90q0 -32 -20.5 -50.5t-57.5 -18.5q-52 0 -86.5 34t-34.5 90zM789 822q0 32 20 50.5t57 18.5q53 0 88 -34t35 -90q0 -32 -20.5 -50.5t-57.5 -18.5q-52 0 -87 34 t-35 90zM897 354q0 32 20 50.5t57 18.5q53 0 88 -34t35 -90q0 -32 -20.5 -50.5t-57.5 -18.5q-52 0 -87 34t-35 90zM903 588q0 32 20 50.5t57 18.5q53 0 88 -34t35 -90q0 -32 -20.5 -50.5t-57.5 -18.5q-52 0 -87 34t-35 90z" />
<glyph unicode="&#xfb4e;" horiz-adv-x="1244" d="M-33 588q0 32 20 50.5t57 18.5q53 0 88 -34t35 -90q0 -32 -20.5 -50.5t-57.5 -18.5q-52 0 -87 34t-35 90zM-27 822q0 32 20 50.5t57 18.5q53 0 88 -34t35 -90q0 -32 -20.5 -50.5t-57.5 -18.5q-52 0 -87 34t-35 90zM81 354q0 32 20 50.5t57 18.5q53 0 88 -34t35 -90 q0 -32 -20.5 -50.5t-57.5 -18.5q-52 0 -87 34t-35 90zM107 996q0 32 20 50.5t57 18.5q52 0 87.5 -34t35.5 -90q0 -32 -20.5 -50.5t-57.5 -18.5q-52 0 -87 34t-35 90zM296 180q0 33 20 51t57 18q52 0 87 -34t35 -90q0 -32 -20.5 -50.5t-57.5 -18.5q-52 0 -86.5 34t-34.5 90z M327 1056q0 32 20 50.5t57 18.5q52 0 87.5 -34t35.5 -90q0 -32 -20.5 -50.5t-57.5 -18.5q-52 0 -87 34t-35 90zM543 120q0 32 20 50.5t57 18.5q53 0 88 -34t35 -90q0 -32 -20.5 -50.5t-57.5 -18.5q-52 0 -87 34t-35 90zM575 996q0 32 20 50.5t57 18.5q52 0 87.5 -34 t35.5 -90q0 -32 -20.5 -50.5t-57.5 -18.5q-52 0 -87 34t-35 90zM764 180q0 33 20 51t57 18q52 0 87 -34t35 -90q0 -32 -20.5 -50.5t-57.5 -18.5q-52 0 -86.5 34t-34.5 90zM789 822q0 32 20 50.5t57 18.5q53 0 88 -34t35 -90q0 -32 -20.5 -50.5t-57.5 -18.5q-52 0 -87 34 t-35 90zM897 354q0 32 20 50.5t57 18.5q53 0 88 -34t35 -90q0 -32 -20.5 -50.5t-57.5 -18.5q-52 0 -87 34t-35 90zM903 588q0 32 20 50.5t57 18.5q53 0 88 -34t35 -90q0 -32 -20.5 -50.5t-57.5 -18.5q-52 0 -87 34t-35 90z" />
<glyph unicode="&#xfb4f;" horiz-adv-x="1335" d="M-434 1974q0 41 20 45q13 0 31 -19t35 -53q19 -39 84 -73q19 -10 35 -19.5t28.5 -22.5t21 -21.5t16.5 -26t12.5 -26t10 -31.5t7.5 -31.5t8 -37.5t8 -39l78 -373q16 -67 31.5 -97.5t45.5 -52.5l380 -278q12 -9 28.5 -20.5t25.5 -18t19 -13t17.5 -9.5t14.5 -3q15 0 28 19 t31 67l83 218q23 59 40 83t38 24q8 0 17.5 -3t22 -11t23.5 -15t30.5 -20.5t34.5 -23.5q36 -24 56 -40.5t34 -29.5t22.5 -35.5t13 -38.5t13.5 -58q2 -11 9.5 -39.5t11.5 -50.5t4 -38q0 -30 -22 -30q-15 0 -111 44.5t-122 44.5t-59 -61t-33 -93q0 -10 2.5 -17.5t12 -17 t15.5 -14.5t26 -19.5t30 -22.5l183 -142q41 -30 63.5 -48.5t44.5 -36.5t33.5 -35t21.5 -30t17 -38t11.5 -42.5t13.5 -58.5q21 -94 21 -124t-15 -30q-8 0 -20 5t-34 20t-39.5 27.5t-58 42.5t-68.5 50l-933 670q-55 31 -67 44q-19 21 -38 99l-9 39q-19 84 -58.5 252.5 t-58.5 253.5q-14 61 -35 92.5t-71 65.5q-58 40 -75 125l-30 141q-7 28 -7 56z" />
</font>
</defs>
</svg>
